%TF.GenerationSoftware,KiCad,Pcbnew,5.1.6*%
%TF.CreationDate,2020-08-26T17:45:01+02:00*%
%TF.ProjectId,PAF_controller,5041465f-636f-46e7-9472-6f6c6c65722e,rev?*%
%TF.SameCoordinates,Original*%
%TF.FileFunction,Soldermask,Bot*%
%TF.FilePolarity,Negative*%
%FSLAX46Y46*%
G04 Gerber Fmt 4.6, Leading zero omitted, Abs format (unit mm)*
G04 Created by KiCad (PCBNEW 5.1.6) date 2020-08-26 17:45:01*
%MOMM*%
%LPD*%
G01*
G04 APERTURE LIST*
%ADD10C,3.100000*%
%ADD11O,1.800000X1.800000*%
%ADD12C,1.800000*%
%ADD13R,1.800000X1.800000*%
%ADD14C,3.600000*%
%ADD15O,2.050000X1.800000*%
%ADD16O,1.800000X2.050000*%
%ADD17O,1.100000X1.100000*%
%ADD18R,1.100000X1.100000*%
G04 APERTURE END LIST*
D10*
%TO.C,E1*%
X120750000Y-67390000D03*
X145350000Y-67390000D03*
X145350000Y-113990000D03*
X120850000Y-113990000D03*
D11*
X120050000Y-97790000D03*
X120050000Y-102870000D03*
X120050000Y-87630000D03*
X120050000Y-77470000D03*
X120050000Y-82550000D03*
X120050000Y-100330000D03*
X120050000Y-80010000D03*
X120050000Y-105410000D03*
D12*
X120050000Y-110490000D03*
D11*
X120050000Y-90170000D03*
X120050000Y-92710000D03*
X120050000Y-85090000D03*
X120050000Y-95250000D03*
X120050000Y-107950000D03*
X120050000Y-74930000D03*
D13*
X146050000Y-110490000D03*
D11*
X146050000Y-107950000D03*
X146050000Y-105410000D03*
X146050000Y-102870000D03*
X146050000Y-100330000D03*
X146050000Y-97790000D03*
X146050000Y-95250000D03*
X146050000Y-92710000D03*
X146050000Y-90170000D03*
X146050000Y-87630000D03*
X146050000Y-85090000D03*
X146050000Y-82550000D03*
X146050000Y-80010000D03*
X146050000Y-77470000D03*
X146050000Y-74930000D03*
%TD*%
D14*
%TO.C,REF\u002A\u002A*%
X96520000Y-55880000D03*
%TD*%
%TO.C,REF\u002A\u002A*%
X96520000Y-134620000D03*
%TD*%
%TO.C,REF\u002A\u002A*%
X163830000Y-134620000D03*
%TD*%
%TO.C,REF\u002A\u002A*%
X163830000Y-55880000D03*
%TD*%
D15*
%TO.C,J13*%
X157480000Y-83900000D03*
X157480000Y-86400000D03*
G36*
G01*
X158240294Y-89800000D02*
X156719706Y-89800000D01*
G75*
G02*
X156455000Y-89535294I0J264706D01*
G01*
X156455000Y-88264706D01*
G75*
G02*
X156719706Y-88000000I264706J0D01*
G01*
X158240294Y-88000000D01*
G75*
G02*
X158505000Y-88264706I0J-264706D01*
G01*
X158505000Y-89535294D01*
G75*
G02*
X158240294Y-89800000I-264706J0D01*
G01*
G37*
%TD*%
D16*
%TO.C,J12*%
X139620000Y-128270000D03*
X137120000Y-128270000D03*
G36*
G01*
X133720000Y-129030294D02*
X133720000Y-127509706D01*
G75*
G02*
X133984706Y-127245000I264706J0D01*
G01*
X135255294Y-127245000D01*
G75*
G02*
X135520000Y-127509706I0J-264706D01*
G01*
X135520000Y-129030294D01*
G75*
G02*
X135255294Y-129295000I-264706J0D01*
G01*
X133984706Y-129295000D01*
G75*
G02*
X133720000Y-129030294I0J264706D01*
G01*
G37*
%TD*%
D15*
%TO.C,J11*%
X157480000Y-71200000D03*
X157480000Y-73700000D03*
G36*
G01*
X158240294Y-77100000D02*
X156719706Y-77100000D01*
G75*
G02*
X156455000Y-76835294I0J264706D01*
G01*
X156455000Y-75564706D01*
G75*
G02*
X156719706Y-75300000I264706J0D01*
G01*
X158240294Y-75300000D01*
G75*
G02*
X158505000Y-75564706I0J-264706D01*
G01*
X158505000Y-76835294D01*
G75*
G02*
X158240294Y-77100000I-264706J0D01*
G01*
G37*
%TD*%
D16*
%TO.C,J10*%
X114220000Y-128270000D03*
X111720000Y-128270000D03*
G36*
G01*
X108320000Y-129030294D02*
X108320000Y-127509706D01*
G75*
G02*
X108584706Y-127245000I264706J0D01*
G01*
X109855294Y-127245000D01*
G75*
G02*
X110120000Y-127509706I0J-264706D01*
G01*
X110120000Y-129030294D01*
G75*
G02*
X109855294Y-129295000I-264706J0D01*
G01*
X108584706Y-129295000D01*
G75*
G02*
X108320000Y-129030294I0J264706D01*
G01*
G37*
%TD*%
%TO.C,J9*%
X126920000Y-128270000D03*
X124420000Y-128270000D03*
G36*
G01*
X121020000Y-129030294D02*
X121020000Y-127509706D01*
G75*
G02*
X121284706Y-127245000I264706J0D01*
G01*
X122555294Y-127245000D01*
G75*
G02*
X122820000Y-127509706I0J-264706D01*
G01*
X122820000Y-129030294D01*
G75*
G02*
X122555294Y-129295000I-264706J0D01*
G01*
X121284706Y-129295000D01*
G75*
G02*
X121020000Y-129030294I0J264706D01*
G01*
G37*
%TD*%
%TO.C,J8*%
X152320000Y-128270000D03*
X149820000Y-128270000D03*
G36*
G01*
X146420000Y-129030294D02*
X146420000Y-127509706D01*
G75*
G02*
X146684706Y-127245000I264706J0D01*
G01*
X147955294Y-127245000D01*
G75*
G02*
X148220000Y-127509706I0J-264706D01*
G01*
X148220000Y-129030294D01*
G75*
G02*
X147955294Y-129295000I-264706J0D01*
G01*
X146684706Y-129295000D01*
G75*
G02*
X146420000Y-129030294I0J264706D01*
G01*
G37*
%TD*%
D15*
%TO.C,J7*%
X157480000Y-96600000D03*
X157480000Y-99100000D03*
G36*
G01*
X158240294Y-102500000D02*
X156719706Y-102500000D01*
G75*
G02*
X156455000Y-102235294I0J264706D01*
G01*
X156455000Y-100964706D01*
G75*
G02*
X156719706Y-100700000I264706J0D01*
G01*
X158240294Y-100700000D01*
G75*
G02*
X158505000Y-100964706I0J-264706D01*
G01*
X158505000Y-102235294D01*
G75*
G02*
X158240294Y-102500000I-264706J0D01*
G01*
G37*
%TD*%
%TO.C,J6*%
X157480000Y-109300000D03*
X157480000Y-111800000D03*
G36*
G01*
X158240294Y-115200000D02*
X156719706Y-115200000D01*
G75*
G02*
X156455000Y-114935294I0J264706D01*
G01*
X156455000Y-113664706D01*
G75*
G02*
X156719706Y-113400000I264706J0D01*
G01*
X158240294Y-113400000D01*
G75*
G02*
X158505000Y-113664706I0J-264706D01*
G01*
X158505000Y-114935294D01*
G75*
G02*
X158240294Y-115200000I-264706J0D01*
G01*
G37*
%TD*%
D11*
%TO.C,J5*%
X102870000Y-76200000D03*
X102870000Y-78740000D03*
X102870000Y-81280000D03*
X102870000Y-83820000D03*
X102870000Y-86360000D03*
X102870000Y-88900000D03*
X102870000Y-91440000D03*
D13*
X102870000Y-93980000D03*
%TD*%
D11*
%TO.C,J4*%
X99060000Y-106680000D03*
X99060000Y-109220000D03*
X99060000Y-111760000D03*
D13*
X99060000Y-114300000D03*
%TD*%
D11*
%TO.C,J3*%
X111760000Y-101600000D03*
X111760000Y-104140000D03*
X111760000Y-106680000D03*
X111760000Y-109220000D03*
X111760000Y-111760000D03*
D13*
X111760000Y-114300000D03*
%TD*%
D11*
%TO.C,J2*%
X119380000Y-54610000D03*
X119380000Y-57150000D03*
X121920000Y-54610000D03*
X121920000Y-57150000D03*
X124460000Y-54610000D03*
X124460000Y-57150000D03*
X127000000Y-54610000D03*
X127000000Y-57150000D03*
X129540000Y-54610000D03*
X129540000Y-57150000D03*
X132080000Y-54610000D03*
X132080000Y-57150000D03*
X134620000Y-54610000D03*
X134620000Y-57150000D03*
X137160000Y-54610000D03*
X137160000Y-57150000D03*
X139700000Y-54610000D03*
X139700000Y-57150000D03*
X142240000Y-54610000D03*
D13*
X142240000Y-57150000D03*
%TD*%
D17*
%TO.C,J1*%
X152400000Y-55880000D03*
X153670000Y-55880000D03*
X152400000Y-57150000D03*
X153670000Y-57150000D03*
X152400000Y-58420000D03*
X153670000Y-58420000D03*
X152400000Y-59690000D03*
X153670000Y-59690000D03*
X152400000Y-60960000D03*
D18*
X153670000Y-60960000D03*
%TD*%
M02*
