%TF.GenerationSoftware,KiCad,Pcbnew,5.1.6*%
%TF.CreationDate,2020-08-26T17:45:01+02:00*%
%TF.ProjectId,PAF_controller,5041465f-636f-46e7-9472-6f6c6c65722e,rev?*%
%TF.SameCoordinates,Original*%
%TF.FileFunction,Soldermask,Top*%
%TF.FilePolarity,Negative*%
%FSLAX46Y46*%
G04 Gerber Fmt 4.6, Leading zero omitted, Abs format (unit mm)*
G04 Created by KiCad (PCBNEW 5.1.6) date 2020-08-26 17:45:01*
%MOMM*%
%LPD*%
G01*
G04 APERTURE LIST*
%ADD10C,3.100000*%
%ADD11O,1.800000X1.800000*%
%ADD12C,1.800000*%
%ADD13R,1.800000X1.800000*%
%ADD14C,3.600000*%
%ADD15O,2.050000X1.800000*%
%ADD16O,1.800000X2.050000*%
%ADD17C,0.150000*%
%ADD18O,1.100000X1.100000*%
%ADD19R,1.100000X1.100000*%
G04 APERTURE END LIST*
%TO.C,R3*%
G36*
G01*
X105710000Y-56161250D02*
X105710000Y-55598750D01*
G75*
G02*
X105953750Y-55355000I243750J0D01*
G01*
X106441250Y-55355000D01*
G75*
G02*
X106685000Y-55598750I0J-243750D01*
G01*
X106685000Y-56161250D01*
G75*
G02*
X106441250Y-56405000I-243750J0D01*
G01*
X105953750Y-56405000D01*
G75*
G02*
X105710000Y-56161250I0J243750D01*
G01*
G37*
G36*
G01*
X104135000Y-56161250D02*
X104135000Y-55598750D01*
G75*
G02*
X104378750Y-55355000I243750J0D01*
G01*
X104866250Y-55355000D01*
G75*
G02*
X105110000Y-55598750I0J-243750D01*
G01*
X105110000Y-56161250D01*
G75*
G02*
X104866250Y-56405000I-243750J0D01*
G01*
X104378750Y-56405000D01*
G75*
G02*
X104135000Y-56161250I0J243750D01*
G01*
G37*
%TD*%
%TO.C,R2*%
G36*
G01*
X105710000Y-59971250D02*
X105710000Y-59408750D01*
G75*
G02*
X105953750Y-59165000I243750J0D01*
G01*
X106441250Y-59165000D01*
G75*
G02*
X106685000Y-59408750I0J-243750D01*
G01*
X106685000Y-59971250D01*
G75*
G02*
X106441250Y-60215000I-243750J0D01*
G01*
X105953750Y-60215000D01*
G75*
G02*
X105710000Y-59971250I0J243750D01*
G01*
G37*
G36*
G01*
X104135000Y-59971250D02*
X104135000Y-59408750D01*
G75*
G02*
X104378750Y-59165000I243750J0D01*
G01*
X104866250Y-59165000D01*
G75*
G02*
X105110000Y-59408750I0J-243750D01*
G01*
X105110000Y-59971250D01*
G75*
G02*
X104866250Y-60215000I-243750J0D01*
G01*
X104378750Y-60215000D01*
G75*
G02*
X104135000Y-59971250I0J243750D01*
G01*
G37*
%TD*%
D10*
%TO.C,E1*%
X120750000Y-67390000D03*
X145350000Y-67390000D03*
X145350000Y-113990000D03*
X120850000Y-113990000D03*
D11*
X120050000Y-97790000D03*
X120050000Y-102870000D03*
X120050000Y-87630000D03*
X120050000Y-77470000D03*
X120050000Y-82550000D03*
X120050000Y-100330000D03*
X120050000Y-80010000D03*
X120050000Y-105410000D03*
D12*
X120050000Y-110490000D03*
D11*
X120050000Y-90170000D03*
X120050000Y-92710000D03*
X120050000Y-85090000D03*
X120050000Y-95250000D03*
X120050000Y-107950000D03*
X120050000Y-74930000D03*
D13*
X146050000Y-110490000D03*
D11*
X146050000Y-107950000D03*
X146050000Y-105410000D03*
X146050000Y-102870000D03*
X146050000Y-100330000D03*
X146050000Y-97790000D03*
X146050000Y-95250000D03*
X146050000Y-92710000D03*
X146050000Y-90170000D03*
X146050000Y-87630000D03*
X146050000Y-85090000D03*
X146050000Y-82550000D03*
X146050000Y-80010000D03*
X146050000Y-77470000D03*
X146050000Y-74930000D03*
%TD*%
D14*
%TO.C,REF\u002A\u002A*%
X96520000Y-55880000D03*
%TD*%
%TO.C,REF\u002A\u002A*%
X96520000Y-134620000D03*
%TD*%
%TO.C,REF\u002A\u002A*%
X163830000Y-134620000D03*
%TD*%
%TO.C,REF\u002A\u002A*%
X163830000Y-55880000D03*
%TD*%
D15*
%TO.C,J13*%
X157480000Y-83900000D03*
X157480000Y-86400000D03*
G36*
G01*
X158240294Y-89800000D02*
X156719706Y-89800000D01*
G75*
G02*
X156455000Y-89535294I0J264706D01*
G01*
X156455000Y-88264706D01*
G75*
G02*
X156719706Y-88000000I264706J0D01*
G01*
X158240294Y-88000000D01*
G75*
G02*
X158505000Y-88264706I0J-264706D01*
G01*
X158505000Y-89535294D01*
G75*
G02*
X158240294Y-89800000I-264706J0D01*
G01*
G37*
%TD*%
D16*
%TO.C,J12*%
X139620000Y-128270000D03*
X137120000Y-128270000D03*
G36*
G01*
X133720000Y-129030294D02*
X133720000Y-127509706D01*
G75*
G02*
X133984706Y-127245000I264706J0D01*
G01*
X135255294Y-127245000D01*
G75*
G02*
X135520000Y-127509706I0J-264706D01*
G01*
X135520000Y-129030294D01*
G75*
G02*
X135255294Y-129295000I-264706J0D01*
G01*
X133984706Y-129295000D01*
G75*
G02*
X133720000Y-129030294I0J264706D01*
G01*
G37*
%TD*%
D15*
%TO.C,J11*%
X157480000Y-71200000D03*
X157480000Y-73700000D03*
G36*
G01*
X158240294Y-77100000D02*
X156719706Y-77100000D01*
G75*
G02*
X156455000Y-76835294I0J264706D01*
G01*
X156455000Y-75564706D01*
G75*
G02*
X156719706Y-75300000I264706J0D01*
G01*
X158240294Y-75300000D01*
G75*
G02*
X158505000Y-75564706I0J-264706D01*
G01*
X158505000Y-76835294D01*
G75*
G02*
X158240294Y-77100000I-264706J0D01*
G01*
G37*
%TD*%
D16*
%TO.C,J10*%
X114220000Y-128270000D03*
X111720000Y-128270000D03*
G36*
G01*
X108320000Y-129030294D02*
X108320000Y-127509706D01*
G75*
G02*
X108584706Y-127245000I264706J0D01*
G01*
X109855294Y-127245000D01*
G75*
G02*
X110120000Y-127509706I0J-264706D01*
G01*
X110120000Y-129030294D01*
G75*
G02*
X109855294Y-129295000I-264706J0D01*
G01*
X108584706Y-129295000D01*
G75*
G02*
X108320000Y-129030294I0J264706D01*
G01*
G37*
%TD*%
%TO.C,J9*%
X126920000Y-128270000D03*
X124420000Y-128270000D03*
G36*
G01*
X121020000Y-129030294D02*
X121020000Y-127509706D01*
G75*
G02*
X121284706Y-127245000I264706J0D01*
G01*
X122555294Y-127245000D01*
G75*
G02*
X122820000Y-127509706I0J-264706D01*
G01*
X122820000Y-129030294D01*
G75*
G02*
X122555294Y-129295000I-264706J0D01*
G01*
X121284706Y-129295000D01*
G75*
G02*
X121020000Y-129030294I0J264706D01*
G01*
G37*
%TD*%
%TO.C,J8*%
X152320000Y-128270000D03*
X149820000Y-128270000D03*
G36*
G01*
X146420000Y-129030294D02*
X146420000Y-127509706D01*
G75*
G02*
X146684706Y-127245000I264706J0D01*
G01*
X147955294Y-127245000D01*
G75*
G02*
X148220000Y-127509706I0J-264706D01*
G01*
X148220000Y-129030294D01*
G75*
G02*
X147955294Y-129295000I-264706J0D01*
G01*
X146684706Y-129295000D01*
G75*
G02*
X146420000Y-129030294I0J264706D01*
G01*
G37*
%TD*%
D15*
%TO.C,J7*%
X157480000Y-96600000D03*
X157480000Y-99100000D03*
G36*
G01*
X158240294Y-102500000D02*
X156719706Y-102500000D01*
G75*
G02*
X156455000Y-102235294I0J264706D01*
G01*
X156455000Y-100964706D01*
G75*
G02*
X156719706Y-100700000I264706J0D01*
G01*
X158240294Y-100700000D01*
G75*
G02*
X158505000Y-100964706I0J-264706D01*
G01*
X158505000Y-102235294D01*
G75*
G02*
X158240294Y-102500000I-264706J0D01*
G01*
G37*
%TD*%
%TO.C,J6*%
X157480000Y-109300000D03*
X157480000Y-111800000D03*
G36*
G01*
X158240294Y-115200000D02*
X156719706Y-115200000D01*
G75*
G02*
X156455000Y-114935294I0J264706D01*
G01*
X156455000Y-113664706D01*
G75*
G02*
X156719706Y-113400000I264706J0D01*
G01*
X158240294Y-113400000D01*
G75*
G02*
X158505000Y-113664706I0J-264706D01*
G01*
X158505000Y-114935294D01*
G75*
G02*
X158240294Y-115200000I-264706J0D01*
G01*
G37*
%TD*%
%TO.C,R1*%
G36*
G01*
X101900000Y-63781250D02*
X101900000Y-63218750D01*
G75*
G02*
X102143750Y-62975000I243750J0D01*
G01*
X102631250Y-62975000D01*
G75*
G02*
X102875000Y-63218750I0J-243750D01*
G01*
X102875000Y-63781250D01*
G75*
G02*
X102631250Y-64025000I-243750J0D01*
G01*
X102143750Y-64025000D01*
G75*
G02*
X101900000Y-63781250I0J243750D01*
G01*
G37*
G36*
G01*
X100325000Y-63781250D02*
X100325000Y-63218750D01*
G75*
G02*
X100568750Y-62975000I243750J0D01*
G01*
X101056250Y-62975000D01*
G75*
G02*
X101300000Y-63218750I0J-243750D01*
G01*
X101300000Y-63781250D01*
G75*
G02*
X101056250Y-64025000I-243750J0D01*
G01*
X100568750Y-64025000D01*
G75*
G02*
X100325000Y-63781250I0J243750D01*
G01*
G37*
%TD*%
D17*
%TO.C,JP5*%
G36*
X102256111Y-65240602D02*
G01*
X102274534Y-65240602D01*
X102279435Y-65240843D01*
X102328266Y-65245653D01*
X102333119Y-65246373D01*
X102381244Y-65255945D01*
X102386005Y-65257137D01*
X102432960Y-65271381D01*
X102437579Y-65273034D01*
X102482912Y-65291811D01*
X102487349Y-65293909D01*
X102530622Y-65317040D01*
X102534829Y-65319562D01*
X102575628Y-65346822D01*
X102579570Y-65349746D01*
X102617499Y-65380874D01*
X102621134Y-65384169D01*
X102655831Y-65418866D01*
X102659126Y-65422501D01*
X102690254Y-65460430D01*
X102693178Y-65464372D01*
X102720438Y-65505171D01*
X102722960Y-65509378D01*
X102746091Y-65552651D01*
X102748189Y-65557088D01*
X102766966Y-65602421D01*
X102768619Y-65607040D01*
X102782863Y-65653995D01*
X102784055Y-65658756D01*
X102793627Y-65706881D01*
X102794347Y-65711734D01*
X102799157Y-65760565D01*
X102799398Y-65765466D01*
X102799398Y-65783889D01*
X102800000Y-65790000D01*
X102800000Y-66290000D01*
X102799398Y-66296111D01*
X102799398Y-66314534D01*
X102799157Y-66319435D01*
X102794347Y-66368266D01*
X102793627Y-66373119D01*
X102784055Y-66421244D01*
X102782863Y-66426005D01*
X102768619Y-66472960D01*
X102766966Y-66477579D01*
X102748189Y-66522912D01*
X102746091Y-66527349D01*
X102722960Y-66570622D01*
X102720438Y-66574829D01*
X102693178Y-66615628D01*
X102690254Y-66619570D01*
X102659126Y-66657499D01*
X102655831Y-66661134D01*
X102621134Y-66695831D01*
X102617499Y-66699126D01*
X102579570Y-66730254D01*
X102575628Y-66733178D01*
X102534829Y-66760438D01*
X102530622Y-66762960D01*
X102487349Y-66786091D01*
X102482912Y-66788189D01*
X102437579Y-66806966D01*
X102432960Y-66808619D01*
X102386005Y-66822863D01*
X102381244Y-66824055D01*
X102333119Y-66833627D01*
X102328266Y-66834347D01*
X102279435Y-66839157D01*
X102274534Y-66839398D01*
X102256111Y-66839398D01*
X102250000Y-66840000D01*
X101750000Y-66840000D01*
X101740245Y-66839039D01*
X101730866Y-66836194D01*
X101722221Y-66831573D01*
X101714645Y-66825355D01*
X101708427Y-66817779D01*
X101703806Y-66809134D01*
X101700961Y-66799755D01*
X101700000Y-66790000D01*
X101700000Y-65290000D01*
X101700961Y-65280245D01*
X101703806Y-65270866D01*
X101708427Y-65262221D01*
X101714645Y-65254645D01*
X101722221Y-65248427D01*
X101730866Y-65243806D01*
X101740245Y-65240961D01*
X101750000Y-65240000D01*
X102250000Y-65240000D01*
X102256111Y-65240602D01*
G37*
G36*
X101459755Y-65240961D02*
G01*
X101469134Y-65243806D01*
X101477779Y-65248427D01*
X101485355Y-65254645D01*
X101491573Y-65262221D01*
X101496194Y-65270866D01*
X101499039Y-65280245D01*
X101500000Y-65290000D01*
X101500000Y-66790000D01*
X101499039Y-66799755D01*
X101496194Y-66809134D01*
X101491573Y-66817779D01*
X101485355Y-66825355D01*
X101477779Y-66831573D01*
X101469134Y-66836194D01*
X101459755Y-66839039D01*
X101450000Y-66840000D01*
X100950000Y-66840000D01*
X100943889Y-66839398D01*
X100925466Y-66839398D01*
X100920565Y-66839157D01*
X100871734Y-66834347D01*
X100866881Y-66833627D01*
X100818756Y-66824055D01*
X100813995Y-66822863D01*
X100767040Y-66808619D01*
X100762421Y-66806966D01*
X100717088Y-66788189D01*
X100712651Y-66786091D01*
X100669378Y-66762960D01*
X100665171Y-66760438D01*
X100624372Y-66733178D01*
X100620430Y-66730254D01*
X100582501Y-66699126D01*
X100578866Y-66695831D01*
X100544169Y-66661134D01*
X100540874Y-66657499D01*
X100509746Y-66619570D01*
X100506822Y-66615628D01*
X100479562Y-66574829D01*
X100477040Y-66570622D01*
X100453909Y-66527349D01*
X100451811Y-66522912D01*
X100433034Y-66477579D01*
X100431381Y-66472960D01*
X100417137Y-66426005D01*
X100415945Y-66421244D01*
X100406373Y-66373119D01*
X100405653Y-66368266D01*
X100400843Y-66319435D01*
X100400602Y-66314534D01*
X100400602Y-66296111D01*
X100400000Y-66290000D01*
X100400000Y-65790000D01*
X100400602Y-65783889D01*
X100400602Y-65765466D01*
X100400843Y-65760565D01*
X100405653Y-65711734D01*
X100406373Y-65706881D01*
X100415945Y-65658756D01*
X100417137Y-65653995D01*
X100431381Y-65607040D01*
X100433034Y-65602421D01*
X100451811Y-65557088D01*
X100453909Y-65552651D01*
X100477040Y-65509378D01*
X100479562Y-65505171D01*
X100506822Y-65464372D01*
X100509746Y-65460430D01*
X100540874Y-65422501D01*
X100544169Y-65418866D01*
X100578866Y-65384169D01*
X100582501Y-65380874D01*
X100620430Y-65349746D01*
X100624372Y-65346822D01*
X100665171Y-65319562D01*
X100669378Y-65317040D01*
X100712651Y-65293909D01*
X100717088Y-65291811D01*
X100762421Y-65273034D01*
X100767040Y-65271381D01*
X100813995Y-65257137D01*
X100818756Y-65255945D01*
X100866881Y-65246373D01*
X100871734Y-65245653D01*
X100920565Y-65240843D01*
X100925466Y-65240602D01*
X100943889Y-65240602D01*
X100950000Y-65240000D01*
X101450000Y-65240000D01*
X101459755Y-65240961D01*
G37*
%TD*%
%TO.C,JP4*%
G36*
X101740245Y-70649039D02*
G01*
X101730866Y-70646194D01*
X101722221Y-70641573D01*
X101714645Y-70635355D01*
X101708427Y-70627779D01*
X101703806Y-70619134D01*
X101700961Y-70609755D01*
X101700000Y-70600000D01*
X101700000Y-69100000D01*
X101700961Y-69090245D01*
X101703806Y-69080866D01*
X101708427Y-69072221D01*
X101714645Y-69064645D01*
X101722221Y-69058427D01*
X101730866Y-69053806D01*
X101740245Y-69050961D01*
X101750000Y-69050000D01*
X102250000Y-69050000D01*
X102256111Y-69050602D01*
X102274534Y-69050602D01*
X102279435Y-69050843D01*
X102328266Y-69055653D01*
X102333119Y-69056373D01*
X102381244Y-69065945D01*
X102386005Y-69067137D01*
X102432960Y-69081381D01*
X102437579Y-69083034D01*
X102482912Y-69101811D01*
X102487349Y-69103909D01*
X102530622Y-69127040D01*
X102534829Y-69129562D01*
X102575628Y-69156822D01*
X102579570Y-69159746D01*
X102617499Y-69190874D01*
X102621134Y-69194169D01*
X102655831Y-69228866D01*
X102659126Y-69232501D01*
X102690254Y-69270430D01*
X102693178Y-69274372D01*
X102720438Y-69315171D01*
X102722960Y-69319378D01*
X102746091Y-69362651D01*
X102748189Y-69367088D01*
X102766966Y-69412421D01*
X102768619Y-69417040D01*
X102782863Y-69463995D01*
X102784055Y-69468756D01*
X102793627Y-69516881D01*
X102794347Y-69521734D01*
X102799157Y-69570565D01*
X102799398Y-69575466D01*
X102799398Y-69593889D01*
X102800000Y-69600000D01*
X102800000Y-70100000D01*
X102799398Y-70106111D01*
X102799398Y-70124534D01*
X102799157Y-70129435D01*
X102794347Y-70178266D01*
X102793627Y-70183119D01*
X102784055Y-70231244D01*
X102782863Y-70236005D01*
X102768619Y-70282960D01*
X102766966Y-70287579D01*
X102748189Y-70332912D01*
X102746091Y-70337349D01*
X102722960Y-70380622D01*
X102720438Y-70384829D01*
X102693178Y-70425628D01*
X102690254Y-70429570D01*
X102659126Y-70467499D01*
X102655831Y-70471134D01*
X102621134Y-70505831D01*
X102617499Y-70509126D01*
X102579570Y-70540254D01*
X102575628Y-70543178D01*
X102534829Y-70570438D01*
X102530622Y-70572960D01*
X102487349Y-70596091D01*
X102482912Y-70598189D01*
X102437579Y-70616966D01*
X102432960Y-70618619D01*
X102386005Y-70632863D01*
X102381244Y-70634055D01*
X102333119Y-70643627D01*
X102328266Y-70644347D01*
X102279435Y-70649157D01*
X102274534Y-70649398D01*
X102256111Y-70649398D01*
X102250000Y-70650000D01*
X101750000Y-70650000D01*
X101740245Y-70649039D01*
G37*
G36*
X100943889Y-70649398D02*
G01*
X100925466Y-70649398D01*
X100920565Y-70649157D01*
X100871734Y-70644347D01*
X100866881Y-70643627D01*
X100818756Y-70634055D01*
X100813995Y-70632863D01*
X100767040Y-70618619D01*
X100762421Y-70616966D01*
X100717088Y-70598189D01*
X100712651Y-70596091D01*
X100669378Y-70572960D01*
X100665171Y-70570438D01*
X100624372Y-70543178D01*
X100620430Y-70540254D01*
X100582501Y-70509126D01*
X100578866Y-70505831D01*
X100544169Y-70471134D01*
X100540874Y-70467499D01*
X100509746Y-70429570D01*
X100506822Y-70425628D01*
X100479562Y-70384829D01*
X100477040Y-70380622D01*
X100453909Y-70337349D01*
X100451811Y-70332912D01*
X100433034Y-70287579D01*
X100431381Y-70282960D01*
X100417137Y-70236005D01*
X100415945Y-70231244D01*
X100406373Y-70183119D01*
X100405653Y-70178266D01*
X100400843Y-70129435D01*
X100400602Y-70124534D01*
X100400602Y-70106111D01*
X100400000Y-70100000D01*
X100400000Y-69600000D01*
X100400602Y-69593889D01*
X100400602Y-69575466D01*
X100400843Y-69570565D01*
X100405653Y-69521734D01*
X100406373Y-69516881D01*
X100415945Y-69468756D01*
X100417137Y-69463995D01*
X100431381Y-69417040D01*
X100433034Y-69412421D01*
X100451811Y-69367088D01*
X100453909Y-69362651D01*
X100477040Y-69319378D01*
X100479562Y-69315171D01*
X100506822Y-69274372D01*
X100509746Y-69270430D01*
X100540874Y-69232501D01*
X100544169Y-69228866D01*
X100578866Y-69194169D01*
X100582501Y-69190874D01*
X100620430Y-69159746D01*
X100624372Y-69156822D01*
X100665171Y-69129562D01*
X100669378Y-69127040D01*
X100712651Y-69103909D01*
X100717088Y-69101811D01*
X100762421Y-69083034D01*
X100767040Y-69081381D01*
X100813995Y-69067137D01*
X100818756Y-69065945D01*
X100866881Y-69056373D01*
X100871734Y-69055653D01*
X100920565Y-69050843D01*
X100925466Y-69050602D01*
X100943889Y-69050602D01*
X100950000Y-69050000D01*
X101450000Y-69050000D01*
X101459755Y-69050961D01*
X101469134Y-69053806D01*
X101477779Y-69058427D01*
X101485355Y-69064645D01*
X101491573Y-69072221D01*
X101496194Y-69080866D01*
X101499039Y-69090245D01*
X101500000Y-69100000D01*
X101500000Y-70600000D01*
X101499039Y-70609755D01*
X101496194Y-70619134D01*
X101491573Y-70627779D01*
X101485355Y-70635355D01*
X101477779Y-70641573D01*
X101469134Y-70646194D01*
X101459755Y-70649039D01*
X101450000Y-70650000D01*
X100950000Y-70650000D01*
X100943889Y-70649398D01*
G37*
%TD*%
%TO.C,JP3*%
G36*
X120170245Y-61759039D02*
G01*
X120160866Y-61756194D01*
X120152221Y-61751573D01*
X120144645Y-61745355D01*
X120138427Y-61737779D01*
X120133806Y-61729134D01*
X120130961Y-61719755D01*
X120130000Y-61710000D01*
X120130000Y-60210000D01*
X120130961Y-60200245D01*
X120133806Y-60190866D01*
X120138427Y-60182221D01*
X120144645Y-60174645D01*
X120152221Y-60168427D01*
X120160866Y-60163806D01*
X120170245Y-60160961D01*
X120180000Y-60160000D01*
X120680000Y-60160000D01*
X120686111Y-60160602D01*
X120704534Y-60160602D01*
X120709435Y-60160843D01*
X120758266Y-60165653D01*
X120763119Y-60166373D01*
X120811244Y-60175945D01*
X120816005Y-60177137D01*
X120862960Y-60191381D01*
X120867579Y-60193034D01*
X120912912Y-60211811D01*
X120917349Y-60213909D01*
X120960622Y-60237040D01*
X120964829Y-60239562D01*
X121005628Y-60266822D01*
X121009570Y-60269746D01*
X121047499Y-60300874D01*
X121051134Y-60304169D01*
X121085831Y-60338866D01*
X121089126Y-60342501D01*
X121120254Y-60380430D01*
X121123178Y-60384372D01*
X121150438Y-60425171D01*
X121152960Y-60429378D01*
X121176091Y-60472651D01*
X121178189Y-60477088D01*
X121196966Y-60522421D01*
X121198619Y-60527040D01*
X121212863Y-60573995D01*
X121214055Y-60578756D01*
X121223627Y-60626881D01*
X121224347Y-60631734D01*
X121229157Y-60680565D01*
X121229398Y-60685466D01*
X121229398Y-60703889D01*
X121230000Y-60710000D01*
X121230000Y-61210000D01*
X121229398Y-61216111D01*
X121229398Y-61234534D01*
X121229157Y-61239435D01*
X121224347Y-61288266D01*
X121223627Y-61293119D01*
X121214055Y-61341244D01*
X121212863Y-61346005D01*
X121198619Y-61392960D01*
X121196966Y-61397579D01*
X121178189Y-61442912D01*
X121176091Y-61447349D01*
X121152960Y-61490622D01*
X121150438Y-61494829D01*
X121123178Y-61535628D01*
X121120254Y-61539570D01*
X121089126Y-61577499D01*
X121085831Y-61581134D01*
X121051134Y-61615831D01*
X121047499Y-61619126D01*
X121009570Y-61650254D01*
X121005628Y-61653178D01*
X120964829Y-61680438D01*
X120960622Y-61682960D01*
X120917349Y-61706091D01*
X120912912Y-61708189D01*
X120867579Y-61726966D01*
X120862960Y-61728619D01*
X120816005Y-61742863D01*
X120811244Y-61744055D01*
X120763119Y-61753627D01*
X120758266Y-61754347D01*
X120709435Y-61759157D01*
X120704534Y-61759398D01*
X120686111Y-61759398D01*
X120680000Y-61760000D01*
X120180000Y-61760000D01*
X120170245Y-61759039D01*
G37*
G36*
X119373889Y-61759398D02*
G01*
X119355466Y-61759398D01*
X119350565Y-61759157D01*
X119301734Y-61754347D01*
X119296881Y-61753627D01*
X119248756Y-61744055D01*
X119243995Y-61742863D01*
X119197040Y-61728619D01*
X119192421Y-61726966D01*
X119147088Y-61708189D01*
X119142651Y-61706091D01*
X119099378Y-61682960D01*
X119095171Y-61680438D01*
X119054372Y-61653178D01*
X119050430Y-61650254D01*
X119012501Y-61619126D01*
X119008866Y-61615831D01*
X118974169Y-61581134D01*
X118970874Y-61577499D01*
X118939746Y-61539570D01*
X118936822Y-61535628D01*
X118909562Y-61494829D01*
X118907040Y-61490622D01*
X118883909Y-61447349D01*
X118881811Y-61442912D01*
X118863034Y-61397579D01*
X118861381Y-61392960D01*
X118847137Y-61346005D01*
X118845945Y-61341244D01*
X118836373Y-61293119D01*
X118835653Y-61288266D01*
X118830843Y-61239435D01*
X118830602Y-61234534D01*
X118830602Y-61216111D01*
X118830000Y-61210000D01*
X118830000Y-60710000D01*
X118830602Y-60703889D01*
X118830602Y-60685466D01*
X118830843Y-60680565D01*
X118835653Y-60631734D01*
X118836373Y-60626881D01*
X118845945Y-60578756D01*
X118847137Y-60573995D01*
X118861381Y-60527040D01*
X118863034Y-60522421D01*
X118881811Y-60477088D01*
X118883909Y-60472651D01*
X118907040Y-60429378D01*
X118909562Y-60425171D01*
X118936822Y-60384372D01*
X118939746Y-60380430D01*
X118970874Y-60342501D01*
X118974169Y-60338866D01*
X119008866Y-60304169D01*
X119012501Y-60300874D01*
X119050430Y-60269746D01*
X119054372Y-60266822D01*
X119095171Y-60239562D01*
X119099378Y-60237040D01*
X119142651Y-60213909D01*
X119147088Y-60211811D01*
X119192421Y-60193034D01*
X119197040Y-60191381D01*
X119243995Y-60177137D01*
X119248756Y-60175945D01*
X119296881Y-60166373D01*
X119301734Y-60165653D01*
X119350565Y-60160843D01*
X119355466Y-60160602D01*
X119373889Y-60160602D01*
X119380000Y-60160000D01*
X119880000Y-60160000D01*
X119889755Y-60160961D01*
X119899134Y-60163806D01*
X119907779Y-60168427D01*
X119915355Y-60174645D01*
X119921573Y-60182221D01*
X119926194Y-60190866D01*
X119929039Y-60200245D01*
X119930000Y-60210000D01*
X119930000Y-61710000D01*
X119929039Y-61719755D01*
X119926194Y-61729134D01*
X119921573Y-61737779D01*
X119915355Y-61745355D01*
X119907779Y-61751573D01*
X119899134Y-61756194D01*
X119889755Y-61759039D01*
X119880000Y-61760000D01*
X119380000Y-61760000D01*
X119373889Y-61759398D01*
G37*
%TD*%
%TO.C,JP2*%
G36*
X100943889Y-56679398D02*
G01*
X100925466Y-56679398D01*
X100920565Y-56679157D01*
X100871734Y-56674347D01*
X100866881Y-56673627D01*
X100818756Y-56664055D01*
X100813995Y-56662863D01*
X100767040Y-56648619D01*
X100762421Y-56646966D01*
X100717088Y-56628189D01*
X100712651Y-56626091D01*
X100669378Y-56602960D01*
X100665171Y-56600438D01*
X100624372Y-56573178D01*
X100620430Y-56570254D01*
X100582501Y-56539126D01*
X100578866Y-56535831D01*
X100544169Y-56501134D01*
X100540874Y-56497499D01*
X100509746Y-56459570D01*
X100506822Y-56455628D01*
X100479562Y-56414829D01*
X100477040Y-56410622D01*
X100453909Y-56367349D01*
X100451811Y-56362912D01*
X100433034Y-56317579D01*
X100431381Y-56312960D01*
X100417137Y-56266005D01*
X100415945Y-56261244D01*
X100406373Y-56213119D01*
X100405653Y-56208266D01*
X100400843Y-56159435D01*
X100400602Y-56154534D01*
X100400602Y-56136111D01*
X100400000Y-56130000D01*
X100400000Y-55630000D01*
X100400602Y-55623889D01*
X100400602Y-55605466D01*
X100400843Y-55600565D01*
X100405653Y-55551734D01*
X100406373Y-55546881D01*
X100415945Y-55498756D01*
X100417137Y-55493995D01*
X100431381Y-55447040D01*
X100433034Y-55442421D01*
X100451811Y-55397088D01*
X100453909Y-55392651D01*
X100477040Y-55349378D01*
X100479562Y-55345171D01*
X100506822Y-55304372D01*
X100509746Y-55300430D01*
X100540874Y-55262501D01*
X100544169Y-55258866D01*
X100578866Y-55224169D01*
X100582501Y-55220874D01*
X100620430Y-55189746D01*
X100624372Y-55186822D01*
X100665171Y-55159562D01*
X100669378Y-55157040D01*
X100712651Y-55133909D01*
X100717088Y-55131811D01*
X100762421Y-55113034D01*
X100767040Y-55111381D01*
X100813995Y-55097137D01*
X100818756Y-55095945D01*
X100866881Y-55086373D01*
X100871734Y-55085653D01*
X100920565Y-55080843D01*
X100925466Y-55080602D01*
X100943889Y-55080602D01*
X100950000Y-55080000D01*
X101450000Y-55080000D01*
X101459755Y-55080961D01*
X101469134Y-55083806D01*
X101477779Y-55088427D01*
X101485355Y-55094645D01*
X101491573Y-55102221D01*
X101496194Y-55110866D01*
X101499039Y-55120245D01*
X101500000Y-55130000D01*
X101500000Y-56630000D01*
X101499039Y-56639755D01*
X101496194Y-56649134D01*
X101491573Y-56657779D01*
X101485355Y-56665355D01*
X101477779Y-56671573D01*
X101469134Y-56676194D01*
X101459755Y-56679039D01*
X101450000Y-56680000D01*
X100950000Y-56680000D01*
X100943889Y-56679398D01*
G37*
G36*
X101740245Y-56679039D02*
G01*
X101730866Y-56676194D01*
X101722221Y-56671573D01*
X101714645Y-56665355D01*
X101708427Y-56657779D01*
X101703806Y-56649134D01*
X101700961Y-56639755D01*
X101700000Y-56630000D01*
X101700000Y-55130000D01*
X101700961Y-55120245D01*
X101703806Y-55110866D01*
X101708427Y-55102221D01*
X101714645Y-55094645D01*
X101722221Y-55088427D01*
X101730866Y-55083806D01*
X101740245Y-55080961D01*
X101750000Y-55080000D01*
X102250000Y-55080000D01*
X102256111Y-55080602D01*
X102274534Y-55080602D01*
X102279435Y-55080843D01*
X102328266Y-55085653D01*
X102333119Y-55086373D01*
X102381244Y-55095945D01*
X102386005Y-55097137D01*
X102432960Y-55111381D01*
X102437579Y-55113034D01*
X102482912Y-55131811D01*
X102487349Y-55133909D01*
X102530622Y-55157040D01*
X102534829Y-55159562D01*
X102575628Y-55186822D01*
X102579570Y-55189746D01*
X102617499Y-55220874D01*
X102621134Y-55224169D01*
X102655831Y-55258866D01*
X102659126Y-55262501D01*
X102690254Y-55300430D01*
X102693178Y-55304372D01*
X102720438Y-55345171D01*
X102722960Y-55349378D01*
X102746091Y-55392651D01*
X102748189Y-55397088D01*
X102766966Y-55442421D01*
X102768619Y-55447040D01*
X102782863Y-55493995D01*
X102784055Y-55498756D01*
X102793627Y-55546881D01*
X102794347Y-55551734D01*
X102799157Y-55600565D01*
X102799398Y-55605466D01*
X102799398Y-55623889D01*
X102800000Y-55630000D01*
X102800000Y-56130000D01*
X102799398Y-56136111D01*
X102799398Y-56154534D01*
X102799157Y-56159435D01*
X102794347Y-56208266D01*
X102793627Y-56213119D01*
X102784055Y-56261244D01*
X102782863Y-56266005D01*
X102768619Y-56312960D01*
X102766966Y-56317579D01*
X102748189Y-56362912D01*
X102746091Y-56367349D01*
X102722960Y-56410622D01*
X102720438Y-56414829D01*
X102693178Y-56455628D01*
X102690254Y-56459570D01*
X102659126Y-56497499D01*
X102655831Y-56501134D01*
X102621134Y-56535831D01*
X102617499Y-56539126D01*
X102579570Y-56570254D01*
X102575628Y-56573178D01*
X102534829Y-56600438D01*
X102530622Y-56602960D01*
X102487349Y-56626091D01*
X102482912Y-56628189D01*
X102437579Y-56646966D01*
X102432960Y-56648619D01*
X102386005Y-56662863D01*
X102381244Y-56664055D01*
X102333119Y-56673627D01*
X102328266Y-56674347D01*
X102279435Y-56679157D01*
X102274534Y-56679398D01*
X102256111Y-56679398D01*
X102250000Y-56680000D01*
X101750000Y-56680000D01*
X101740245Y-56679039D01*
G37*
%TD*%
%TO.C,JP1*%
G36*
X100943889Y-60489398D02*
G01*
X100925466Y-60489398D01*
X100920565Y-60489157D01*
X100871734Y-60484347D01*
X100866881Y-60483627D01*
X100818756Y-60474055D01*
X100813995Y-60472863D01*
X100767040Y-60458619D01*
X100762421Y-60456966D01*
X100717088Y-60438189D01*
X100712651Y-60436091D01*
X100669378Y-60412960D01*
X100665171Y-60410438D01*
X100624372Y-60383178D01*
X100620430Y-60380254D01*
X100582501Y-60349126D01*
X100578866Y-60345831D01*
X100544169Y-60311134D01*
X100540874Y-60307499D01*
X100509746Y-60269570D01*
X100506822Y-60265628D01*
X100479562Y-60224829D01*
X100477040Y-60220622D01*
X100453909Y-60177349D01*
X100451811Y-60172912D01*
X100433034Y-60127579D01*
X100431381Y-60122960D01*
X100417137Y-60076005D01*
X100415945Y-60071244D01*
X100406373Y-60023119D01*
X100405653Y-60018266D01*
X100400843Y-59969435D01*
X100400602Y-59964534D01*
X100400602Y-59946111D01*
X100400000Y-59940000D01*
X100400000Y-59440000D01*
X100400602Y-59433889D01*
X100400602Y-59415466D01*
X100400843Y-59410565D01*
X100405653Y-59361734D01*
X100406373Y-59356881D01*
X100415945Y-59308756D01*
X100417137Y-59303995D01*
X100431381Y-59257040D01*
X100433034Y-59252421D01*
X100451811Y-59207088D01*
X100453909Y-59202651D01*
X100477040Y-59159378D01*
X100479562Y-59155171D01*
X100506822Y-59114372D01*
X100509746Y-59110430D01*
X100540874Y-59072501D01*
X100544169Y-59068866D01*
X100578866Y-59034169D01*
X100582501Y-59030874D01*
X100620430Y-58999746D01*
X100624372Y-58996822D01*
X100665171Y-58969562D01*
X100669378Y-58967040D01*
X100712651Y-58943909D01*
X100717088Y-58941811D01*
X100762421Y-58923034D01*
X100767040Y-58921381D01*
X100813995Y-58907137D01*
X100818756Y-58905945D01*
X100866881Y-58896373D01*
X100871734Y-58895653D01*
X100920565Y-58890843D01*
X100925466Y-58890602D01*
X100943889Y-58890602D01*
X100950000Y-58890000D01*
X101450000Y-58890000D01*
X101459755Y-58890961D01*
X101469134Y-58893806D01*
X101477779Y-58898427D01*
X101485355Y-58904645D01*
X101491573Y-58912221D01*
X101496194Y-58920866D01*
X101499039Y-58930245D01*
X101500000Y-58940000D01*
X101500000Y-60440000D01*
X101499039Y-60449755D01*
X101496194Y-60459134D01*
X101491573Y-60467779D01*
X101485355Y-60475355D01*
X101477779Y-60481573D01*
X101469134Y-60486194D01*
X101459755Y-60489039D01*
X101450000Y-60490000D01*
X100950000Y-60490000D01*
X100943889Y-60489398D01*
G37*
G36*
X101740245Y-60489039D02*
G01*
X101730866Y-60486194D01*
X101722221Y-60481573D01*
X101714645Y-60475355D01*
X101708427Y-60467779D01*
X101703806Y-60459134D01*
X101700961Y-60449755D01*
X101700000Y-60440000D01*
X101700000Y-58940000D01*
X101700961Y-58930245D01*
X101703806Y-58920866D01*
X101708427Y-58912221D01*
X101714645Y-58904645D01*
X101722221Y-58898427D01*
X101730866Y-58893806D01*
X101740245Y-58890961D01*
X101750000Y-58890000D01*
X102250000Y-58890000D01*
X102256111Y-58890602D01*
X102274534Y-58890602D01*
X102279435Y-58890843D01*
X102328266Y-58895653D01*
X102333119Y-58896373D01*
X102381244Y-58905945D01*
X102386005Y-58907137D01*
X102432960Y-58921381D01*
X102437579Y-58923034D01*
X102482912Y-58941811D01*
X102487349Y-58943909D01*
X102530622Y-58967040D01*
X102534829Y-58969562D01*
X102575628Y-58996822D01*
X102579570Y-58999746D01*
X102617499Y-59030874D01*
X102621134Y-59034169D01*
X102655831Y-59068866D01*
X102659126Y-59072501D01*
X102690254Y-59110430D01*
X102693178Y-59114372D01*
X102720438Y-59155171D01*
X102722960Y-59159378D01*
X102746091Y-59202651D01*
X102748189Y-59207088D01*
X102766966Y-59252421D01*
X102768619Y-59257040D01*
X102782863Y-59303995D01*
X102784055Y-59308756D01*
X102793627Y-59356881D01*
X102794347Y-59361734D01*
X102799157Y-59410565D01*
X102799398Y-59415466D01*
X102799398Y-59433889D01*
X102800000Y-59440000D01*
X102800000Y-59940000D01*
X102799398Y-59946111D01*
X102799398Y-59964534D01*
X102799157Y-59969435D01*
X102794347Y-60018266D01*
X102793627Y-60023119D01*
X102784055Y-60071244D01*
X102782863Y-60076005D01*
X102768619Y-60122960D01*
X102766966Y-60127579D01*
X102748189Y-60172912D01*
X102746091Y-60177349D01*
X102722960Y-60220622D01*
X102720438Y-60224829D01*
X102693178Y-60265628D01*
X102690254Y-60269570D01*
X102659126Y-60307499D01*
X102655831Y-60311134D01*
X102621134Y-60345831D01*
X102617499Y-60349126D01*
X102579570Y-60380254D01*
X102575628Y-60383178D01*
X102534829Y-60410438D01*
X102530622Y-60412960D01*
X102487349Y-60436091D01*
X102482912Y-60438189D01*
X102437579Y-60456966D01*
X102432960Y-60458619D01*
X102386005Y-60472863D01*
X102381244Y-60474055D01*
X102333119Y-60483627D01*
X102328266Y-60484347D01*
X102279435Y-60489157D01*
X102274534Y-60489398D01*
X102256111Y-60489398D01*
X102250000Y-60490000D01*
X101750000Y-60490000D01*
X101740245Y-60489039D01*
G37*
%TD*%
D11*
%TO.C,J5*%
X102870000Y-76200000D03*
X102870000Y-78740000D03*
X102870000Y-81280000D03*
X102870000Y-83820000D03*
X102870000Y-86360000D03*
X102870000Y-88900000D03*
X102870000Y-91440000D03*
D13*
X102870000Y-93980000D03*
%TD*%
D11*
%TO.C,J4*%
X99060000Y-106680000D03*
X99060000Y-109220000D03*
X99060000Y-111760000D03*
D13*
X99060000Y-114300000D03*
%TD*%
D11*
%TO.C,J3*%
X111760000Y-101600000D03*
X111760000Y-104140000D03*
X111760000Y-106680000D03*
X111760000Y-109220000D03*
X111760000Y-111760000D03*
D13*
X111760000Y-114300000D03*
%TD*%
D11*
%TO.C,J2*%
X119380000Y-54610000D03*
X119380000Y-57150000D03*
X121920000Y-54610000D03*
X121920000Y-57150000D03*
X124460000Y-54610000D03*
X124460000Y-57150000D03*
X127000000Y-54610000D03*
X127000000Y-57150000D03*
X129540000Y-54610000D03*
X129540000Y-57150000D03*
X132080000Y-54610000D03*
X132080000Y-57150000D03*
X134620000Y-54610000D03*
X134620000Y-57150000D03*
X137160000Y-54610000D03*
X137160000Y-57150000D03*
X139700000Y-54610000D03*
X139700000Y-57150000D03*
X142240000Y-54610000D03*
D13*
X142240000Y-57150000D03*
%TD*%
D18*
%TO.C,J1*%
X152400000Y-55880000D03*
X153670000Y-55880000D03*
X152400000Y-57150000D03*
X153670000Y-57150000D03*
X152400000Y-58420000D03*
X153670000Y-58420000D03*
X152400000Y-59690000D03*
X153670000Y-59690000D03*
X152400000Y-60960000D03*
D19*
X153670000Y-60960000D03*
%TD*%
M02*
