%TF.GenerationSoftware,KiCad,Pcbnew,5.1.6*%
%TF.CreationDate,2020-08-26T17:45:01+02:00*%
%TF.ProjectId,PAF_controller,5041465f-636f-46e7-9472-6f6c6c65722e,rev?*%
%TF.SameCoordinates,Original*%
%TF.FileFunction,Copper,L1,Top*%
%TF.FilePolarity,Positive*%
%FSLAX46Y46*%
G04 Gerber Fmt 4.6, Leading zero omitted, Abs format (unit mm)*
G04 Created by KiCad (PCBNEW 5.1.6) date 2020-08-26 17:45:01*
%MOMM*%
%LPD*%
G01*
G04 APERTURE LIST*
%TA.AperFunction,EtchedComponent*%
%ADD10C,0.150000*%
%TD*%
%TA.AperFunction,ComponentPad*%
%ADD11O,1.700000X1.700000*%
%TD*%
%TA.AperFunction,ComponentPad*%
%ADD12C,1.700000*%
%TD*%
%TA.AperFunction,ComponentPad*%
%ADD13R,1.700000X1.700000*%
%TD*%
%TA.AperFunction,ComponentPad*%
%ADD14O,1.950000X1.700000*%
%TD*%
%TA.AperFunction,ComponentPad*%
%ADD15O,1.700000X1.950000*%
%TD*%
%TA.AperFunction,SMDPad,CuDef*%
%ADD16C,0.150000*%
%TD*%
%TA.AperFunction,ComponentPad*%
%ADD17O,1.000000X1.000000*%
%TD*%
%TA.AperFunction,ComponentPad*%
%ADD18R,1.000000X1.000000*%
%TD*%
%TA.AperFunction,ViaPad*%
%ADD19C,0.800000*%
%TD*%
%TA.AperFunction,Conductor*%
%ADD20C,0.500000*%
%TD*%
%TA.AperFunction,Conductor*%
%ADD21C,0.300000*%
%TD*%
%TA.AperFunction,Conductor*%
%ADD22C,1.000000*%
%TD*%
%TA.AperFunction,Conductor*%
%ADD23C,0.700000*%
%TD*%
G04 APERTURE END LIST*
D10*
%TO.C,JP4*%
G36*
X101350000Y-70150000D02*
G01*
X101850000Y-70150000D01*
X101850000Y-69550000D01*
X101350000Y-69550000D01*
X101350000Y-70150000D01*
G37*
%TO.C,JP3*%
G36*
X119780000Y-61260000D02*
G01*
X120280000Y-61260000D01*
X120280000Y-60660000D01*
X119780000Y-60660000D01*
X119780000Y-61260000D01*
G37*
%TD*%
%TO.P,R3,2*%
%TO.N,GND*%
%TA.AperFunction,SMDPad,CuDef*%
G36*
G01*
X105760000Y-56136250D02*
X105760000Y-55623750D01*
G75*
G02*
X105978750Y-55405000I218750J0D01*
G01*
X106416250Y-55405000D01*
G75*
G02*
X106635000Y-55623750I0J-218750D01*
G01*
X106635000Y-56136250D01*
G75*
G02*
X106416250Y-56355000I-218750J0D01*
G01*
X105978750Y-56355000D01*
G75*
G02*
X105760000Y-56136250I0J218750D01*
G01*
G37*
%TD.AperFunction*%
%TO.P,R3,1*%
%TO.N,Net-(JP2-Pad1)*%
%TA.AperFunction,SMDPad,CuDef*%
G36*
G01*
X104185000Y-56136250D02*
X104185000Y-55623750D01*
G75*
G02*
X104403750Y-55405000I218750J0D01*
G01*
X104841250Y-55405000D01*
G75*
G02*
X105060000Y-55623750I0J-218750D01*
G01*
X105060000Y-56136250D01*
G75*
G02*
X104841250Y-56355000I-218750J0D01*
G01*
X104403750Y-56355000D01*
G75*
G02*
X104185000Y-56136250I0J218750D01*
G01*
G37*
%TD.AperFunction*%
%TD*%
%TO.P,R2,2*%
%TO.N,LED_PORT_PWR*%
%TA.AperFunction,SMDPad,CuDef*%
G36*
G01*
X105760000Y-59946250D02*
X105760000Y-59433750D01*
G75*
G02*
X105978750Y-59215000I218750J0D01*
G01*
X106416250Y-59215000D01*
G75*
G02*
X106635000Y-59433750I0J-218750D01*
G01*
X106635000Y-59946250D01*
G75*
G02*
X106416250Y-60165000I-218750J0D01*
G01*
X105978750Y-60165000D01*
G75*
G02*
X105760000Y-59946250I0J218750D01*
G01*
G37*
%TD.AperFunction*%
%TO.P,R2,1*%
%TO.N,Net-(JP1-Pad1)*%
%TA.AperFunction,SMDPad,CuDef*%
G36*
G01*
X104185000Y-59946250D02*
X104185000Y-59433750D01*
G75*
G02*
X104403750Y-59215000I218750J0D01*
G01*
X104841250Y-59215000D01*
G75*
G02*
X105060000Y-59433750I0J-218750D01*
G01*
X105060000Y-59946250D01*
G75*
G02*
X104841250Y-60165000I-218750J0D01*
G01*
X104403750Y-60165000D01*
G75*
G02*
X104185000Y-59946250I0J218750D01*
G01*
G37*
%TD.AperFunction*%
%TD*%
D11*
%TO.P,E1,25*%
%TO.N,SPI_MISO*%
X120050000Y-97790000D03*
%TO.P,E1,27*%
%TO.N,Net-(E1-Pad27)*%
X120050000Y-102870000D03*
%TO.P,E1,21*%
%TO.N,SCREEN_RESET*%
X120050000Y-87630000D03*
%TO.P,E1,17*%
%TO.N,GND*%
X120050000Y-77470000D03*
%TO.P,E1,19*%
%TO.N,Net-(E1-Pad19)*%
X120050000Y-82550000D03*
%TO.P,E1,26*%
%TO.N,I2C_SDA*%
X120050000Y-100330000D03*
%TO.P,E1,18*%
%TO.N,Debug_TDO*%
X120050000Y-80010000D03*
%TO.P,E1,28*%
%TO.N,Net-(E1-Pad28)*%
X120050000Y-105410000D03*
D12*
%TO.P,E1,30*%
%TO.N,SPI_MOSI*%
X120050000Y-110490000D03*
D11*
%TO.P,E1,22*%
%TO.N,Net-(E1-Pad22)*%
X120050000Y-90170000D03*
%TO.P,E1,23*%
%TO.N,SPI_CS*%
X120050000Y-92710000D03*
%TO.P,E1,20*%
%TO.N,Net-(E1-Pad20)*%
X120050000Y-85090000D03*
%TO.P,E1,24*%
%TO.N,SPI_CLK*%
X120050000Y-95250000D03*
%TO.P,E1,29*%
%TO.N,I2C_SCL*%
X120050000Y-107950000D03*
%TO.P,E1,16*%
%TO.N,LED_PORT_PWR*%
X120050000Y-74930000D03*
D13*
%TO.P,E1,1*%
%TO.N,Net-(E1-Pad1)*%
X146050000Y-110490000D03*
D11*
%TO.P,E1,2*%
%TO.N,LED_PWM_4*%
X146050000Y-107950000D03*
%TO.P,E1,3*%
%TO.N,LED_PWM_3*%
X146050000Y-105410000D03*
%TO.P,E1,4*%
%TO.N,LED_PWM_2*%
X146050000Y-102870000D03*
%TO.P,E1,5*%
%TO.N,LED_PWM_1*%
X146050000Y-100330000D03*
%TO.P,E1,6*%
%TO.N,LED_PWM_5*%
X146050000Y-97790000D03*
%TO.P,E1,7*%
%TO.N,LED_PWM_6*%
X146050000Y-95250000D03*
%TO.P,E1,8*%
%TO.N,Net-(E1-Pad8)*%
X146050000Y-92710000D03*
%TO.P,E1,9*%
%TO.N,LED_PWM_7*%
X146050000Y-90170000D03*
%TO.P,E1,10*%
%TO.N,LED_PWM_8*%
X146050000Y-87630000D03*
%TO.P,E1,11*%
%TO.N,Debug_TMS*%
X146050000Y-85090000D03*
%TO.P,E1,12*%
%TO.N,Debug_TDI*%
X146050000Y-82550000D03*
%TO.P,E1,13*%
%TO.N,Debug_TCK*%
X146050000Y-80010000D03*
%TO.P,E1,14*%
%TO.N,GND*%
X146050000Y-77470000D03*
%TO.P,E1,15*%
%TO.N,Net-(E1-Pad15)*%
X146050000Y-74930000D03*
%TD*%
D14*
%TO.P,J13,3*%
%TO.N,LED_PWM_7*%
X157480000Y-83900000D03*
%TO.P,J13,2*%
%TO.N,LED_PORT_PWR*%
X157480000Y-86400000D03*
%TO.P,J13,1*%
%TO.N,GND*%
%TA.AperFunction,ComponentPad*%
G36*
G01*
X158205000Y-89750000D02*
X156755000Y-89750000D01*
G75*
G02*
X156505000Y-89500000I0J250000D01*
G01*
X156505000Y-88300000D01*
G75*
G02*
X156755000Y-88050000I250000J0D01*
G01*
X158205000Y-88050000D01*
G75*
G02*
X158455000Y-88300000I0J-250000D01*
G01*
X158455000Y-89500000D01*
G75*
G02*
X158205000Y-89750000I-250000J0D01*
G01*
G37*
%TD.AperFunction*%
%TD*%
D15*
%TO.P,J12,3*%
%TO.N,LED_PWM_3*%
X139620000Y-128270000D03*
%TO.P,J12,2*%
%TO.N,LED_PORT_PWR*%
X137120000Y-128270000D03*
%TO.P,J12,1*%
%TO.N,GND*%
%TA.AperFunction,ComponentPad*%
G36*
G01*
X133770000Y-128995000D02*
X133770000Y-127545000D01*
G75*
G02*
X134020000Y-127295000I250000J0D01*
G01*
X135220000Y-127295000D01*
G75*
G02*
X135470000Y-127545000I0J-250000D01*
G01*
X135470000Y-128995000D01*
G75*
G02*
X135220000Y-129245000I-250000J0D01*
G01*
X134020000Y-129245000D01*
G75*
G02*
X133770000Y-128995000I0J250000D01*
G01*
G37*
%TD.AperFunction*%
%TD*%
D14*
%TO.P,J11,3*%
%TO.N,LED_PWM_8*%
X157480000Y-71200000D03*
%TO.P,J11,2*%
%TO.N,LED_PORT_PWR*%
X157480000Y-73700000D03*
%TO.P,J11,1*%
%TO.N,GND*%
%TA.AperFunction,ComponentPad*%
G36*
G01*
X158205000Y-77050000D02*
X156755000Y-77050000D01*
G75*
G02*
X156505000Y-76800000I0J250000D01*
G01*
X156505000Y-75600000D01*
G75*
G02*
X156755000Y-75350000I250000J0D01*
G01*
X158205000Y-75350000D01*
G75*
G02*
X158455000Y-75600000I0J-250000D01*
G01*
X158455000Y-76800000D01*
G75*
G02*
X158205000Y-77050000I-250000J0D01*
G01*
G37*
%TD.AperFunction*%
%TD*%
D15*
%TO.P,J10,3*%
%TO.N,LED_PWM_1*%
X114220000Y-128270000D03*
%TO.P,J10,2*%
%TO.N,LED_PORT_PWR*%
X111720000Y-128270000D03*
%TO.P,J10,1*%
%TO.N,GND*%
%TA.AperFunction,ComponentPad*%
G36*
G01*
X108370000Y-128995000D02*
X108370000Y-127545000D01*
G75*
G02*
X108620000Y-127295000I250000J0D01*
G01*
X109820000Y-127295000D01*
G75*
G02*
X110070000Y-127545000I0J-250000D01*
G01*
X110070000Y-128995000D01*
G75*
G02*
X109820000Y-129245000I-250000J0D01*
G01*
X108620000Y-129245000D01*
G75*
G02*
X108370000Y-128995000I0J250000D01*
G01*
G37*
%TD.AperFunction*%
%TD*%
%TO.P,J9,3*%
%TO.N,LED_PWM_2*%
X126920000Y-128270000D03*
%TO.P,J9,2*%
%TO.N,LED_PORT_PWR*%
X124420000Y-128270000D03*
%TO.P,J9,1*%
%TO.N,GND*%
%TA.AperFunction,ComponentPad*%
G36*
G01*
X121070000Y-128995000D02*
X121070000Y-127545000D01*
G75*
G02*
X121320000Y-127295000I250000J0D01*
G01*
X122520000Y-127295000D01*
G75*
G02*
X122770000Y-127545000I0J-250000D01*
G01*
X122770000Y-128995000D01*
G75*
G02*
X122520000Y-129245000I-250000J0D01*
G01*
X121320000Y-129245000D01*
G75*
G02*
X121070000Y-128995000I0J250000D01*
G01*
G37*
%TD.AperFunction*%
%TD*%
%TO.P,J8,3*%
%TO.N,LED_PWM_4*%
X152320000Y-128270000D03*
%TO.P,J8,2*%
%TO.N,LED_PORT_PWR*%
X149820000Y-128270000D03*
%TO.P,J8,1*%
%TO.N,GND*%
%TA.AperFunction,ComponentPad*%
G36*
G01*
X146470000Y-128995000D02*
X146470000Y-127545000D01*
G75*
G02*
X146720000Y-127295000I250000J0D01*
G01*
X147920000Y-127295000D01*
G75*
G02*
X148170000Y-127545000I0J-250000D01*
G01*
X148170000Y-128995000D01*
G75*
G02*
X147920000Y-129245000I-250000J0D01*
G01*
X146720000Y-129245000D01*
G75*
G02*
X146470000Y-128995000I0J250000D01*
G01*
G37*
%TD.AperFunction*%
%TD*%
D14*
%TO.P,J7,3*%
%TO.N,LED_PWM_6*%
X157480000Y-96600000D03*
%TO.P,J7,2*%
%TO.N,LED_PORT_PWR*%
X157480000Y-99100000D03*
%TO.P,J7,1*%
%TO.N,GND*%
%TA.AperFunction,ComponentPad*%
G36*
G01*
X158205000Y-102450000D02*
X156755000Y-102450000D01*
G75*
G02*
X156505000Y-102200000I0J250000D01*
G01*
X156505000Y-101000000D01*
G75*
G02*
X156755000Y-100750000I250000J0D01*
G01*
X158205000Y-100750000D01*
G75*
G02*
X158455000Y-101000000I0J-250000D01*
G01*
X158455000Y-102200000D01*
G75*
G02*
X158205000Y-102450000I-250000J0D01*
G01*
G37*
%TD.AperFunction*%
%TD*%
%TO.P,J6,3*%
%TO.N,LED_PWM_5*%
X157480000Y-109300000D03*
%TO.P,J6,2*%
%TO.N,LED_PORT_PWR*%
X157480000Y-111800000D03*
%TO.P,J6,1*%
%TO.N,GND*%
%TA.AperFunction,ComponentPad*%
G36*
G01*
X158205000Y-115150000D02*
X156755000Y-115150000D01*
G75*
G02*
X156505000Y-114900000I0J250000D01*
G01*
X156505000Y-113700000D01*
G75*
G02*
X156755000Y-113450000I250000J0D01*
G01*
X158205000Y-113450000D01*
G75*
G02*
X158455000Y-113700000I0J-250000D01*
G01*
X158455000Y-114900000D01*
G75*
G02*
X158205000Y-115150000I-250000J0D01*
G01*
G37*
%TD.AperFunction*%
%TD*%
%TO.P,R1,2*%
%TO.N,GND*%
%TA.AperFunction,SMDPad,CuDef*%
G36*
G01*
X101950000Y-63756250D02*
X101950000Y-63243750D01*
G75*
G02*
X102168750Y-63025000I218750J0D01*
G01*
X102606250Y-63025000D01*
G75*
G02*
X102825000Y-63243750I0J-218750D01*
G01*
X102825000Y-63756250D01*
G75*
G02*
X102606250Y-63975000I-218750J0D01*
G01*
X102168750Y-63975000D01*
G75*
G02*
X101950000Y-63756250I0J218750D01*
G01*
G37*
%TD.AperFunction*%
%TO.P,R1,1*%
%TO.N,Net-(JP5-Pad1)*%
%TA.AperFunction,SMDPad,CuDef*%
G36*
G01*
X100375000Y-63756250D02*
X100375000Y-63243750D01*
G75*
G02*
X100593750Y-63025000I218750J0D01*
G01*
X101031250Y-63025000D01*
G75*
G02*
X101250000Y-63243750I0J-218750D01*
G01*
X101250000Y-63756250D01*
G75*
G02*
X101031250Y-63975000I-218750J0D01*
G01*
X100593750Y-63975000D01*
G75*
G02*
X100375000Y-63756250I0J218750D01*
G01*
G37*
%TD.AperFunction*%
%TD*%
%TA.AperFunction,SMDPad,CuDef*%
D16*
%TO.P,JP5,2*%
%TO.N,OLED_RES*%
G36*
X102250000Y-65290602D02*
G01*
X102274534Y-65290602D01*
X102323365Y-65295412D01*
X102371490Y-65304984D01*
X102418445Y-65319228D01*
X102463778Y-65338005D01*
X102507051Y-65361136D01*
X102547850Y-65388396D01*
X102585779Y-65419524D01*
X102620476Y-65454221D01*
X102651604Y-65492150D01*
X102678864Y-65532949D01*
X102701995Y-65576222D01*
X102720772Y-65621555D01*
X102735016Y-65668510D01*
X102744588Y-65716635D01*
X102749398Y-65765466D01*
X102749398Y-65790000D01*
X102750000Y-65790000D01*
X102750000Y-66290000D01*
X102749398Y-66290000D01*
X102749398Y-66314534D01*
X102744588Y-66363365D01*
X102735016Y-66411490D01*
X102720772Y-66458445D01*
X102701995Y-66503778D01*
X102678864Y-66547051D01*
X102651604Y-66587850D01*
X102620476Y-66625779D01*
X102585779Y-66660476D01*
X102547850Y-66691604D01*
X102507051Y-66718864D01*
X102463778Y-66741995D01*
X102418445Y-66760772D01*
X102371490Y-66775016D01*
X102323365Y-66784588D01*
X102274534Y-66789398D01*
X102250000Y-66789398D01*
X102250000Y-66790000D01*
X101750000Y-66790000D01*
X101750000Y-65290000D01*
X102250000Y-65290000D01*
X102250000Y-65290602D01*
G37*
%TD.AperFunction*%
%TA.AperFunction,SMDPad,CuDef*%
%TO.P,JP5,1*%
%TO.N,Net-(JP5-Pad1)*%
G36*
X101450000Y-66790000D02*
G01*
X100950000Y-66790000D01*
X100950000Y-66789398D01*
X100925466Y-66789398D01*
X100876635Y-66784588D01*
X100828510Y-66775016D01*
X100781555Y-66760772D01*
X100736222Y-66741995D01*
X100692949Y-66718864D01*
X100652150Y-66691604D01*
X100614221Y-66660476D01*
X100579524Y-66625779D01*
X100548396Y-66587850D01*
X100521136Y-66547051D01*
X100498005Y-66503778D01*
X100479228Y-66458445D01*
X100464984Y-66411490D01*
X100455412Y-66363365D01*
X100450602Y-66314534D01*
X100450602Y-66290000D01*
X100450000Y-66290000D01*
X100450000Y-65790000D01*
X100450602Y-65790000D01*
X100450602Y-65765466D01*
X100455412Y-65716635D01*
X100464984Y-65668510D01*
X100479228Y-65621555D01*
X100498005Y-65576222D01*
X100521136Y-65532949D01*
X100548396Y-65492150D01*
X100579524Y-65454221D01*
X100614221Y-65419524D01*
X100652150Y-65388396D01*
X100692949Y-65361136D01*
X100736222Y-65338005D01*
X100781555Y-65319228D01*
X100828510Y-65304984D01*
X100876635Y-65295412D01*
X100925466Y-65290602D01*
X100950000Y-65290602D01*
X100950000Y-65290000D01*
X101450000Y-65290000D01*
X101450000Y-66790000D01*
G37*
%TD.AperFunction*%
%TD*%
%TA.AperFunction,SMDPad,CuDef*%
%TO.P,JP4,1*%
%TO.N,SCREEN_RESET*%
G36*
X101750000Y-69100000D02*
G01*
X102250000Y-69100000D01*
X102250000Y-69100602D01*
X102274534Y-69100602D01*
X102323365Y-69105412D01*
X102371490Y-69114984D01*
X102418445Y-69129228D01*
X102463778Y-69148005D01*
X102507051Y-69171136D01*
X102547850Y-69198396D01*
X102585779Y-69229524D01*
X102620476Y-69264221D01*
X102651604Y-69302150D01*
X102678864Y-69342949D01*
X102701995Y-69386222D01*
X102720772Y-69431555D01*
X102735016Y-69478510D01*
X102744588Y-69526635D01*
X102749398Y-69575466D01*
X102749398Y-69600000D01*
X102750000Y-69600000D01*
X102750000Y-70100000D01*
X102749398Y-70100000D01*
X102749398Y-70124534D01*
X102744588Y-70173365D01*
X102735016Y-70221490D01*
X102720772Y-70268445D01*
X102701995Y-70313778D01*
X102678864Y-70357051D01*
X102651604Y-70397850D01*
X102620476Y-70435779D01*
X102585779Y-70470476D01*
X102547850Y-70501604D01*
X102507051Y-70528864D01*
X102463778Y-70551995D01*
X102418445Y-70570772D01*
X102371490Y-70585016D01*
X102323365Y-70594588D01*
X102274534Y-70599398D01*
X102250000Y-70599398D01*
X102250000Y-70600000D01*
X101750000Y-70600000D01*
X101750000Y-69100000D01*
G37*
%TD.AperFunction*%
%TA.AperFunction,SMDPad,CuDef*%
%TO.P,JP4,2*%
%TO.N,OLED_RES*%
G36*
X100950000Y-70599398D02*
G01*
X100925466Y-70599398D01*
X100876635Y-70594588D01*
X100828510Y-70585016D01*
X100781555Y-70570772D01*
X100736222Y-70551995D01*
X100692949Y-70528864D01*
X100652150Y-70501604D01*
X100614221Y-70470476D01*
X100579524Y-70435779D01*
X100548396Y-70397850D01*
X100521136Y-70357051D01*
X100498005Y-70313778D01*
X100479228Y-70268445D01*
X100464984Y-70221490D01*
X100455412Y-70173365D01*
X100450602Y-70124534D01*
X100450602Y-70100000D01*
X100450000Y-70100000D01*
X100450000Y-69600000D01*
X100450602Y-69600000D01*
X100450602Y-69575466D01*
X100455412Y-69526635D01*
X100464984Y-69478510D01*
X100479228Y-69431555D01*
X100498005Y-69386222D01*
X100521136Y-69342949D01*
X100548396Y-69302150D01*
X100579524Y-69264221D01*
X100614221Y-69229524D01*
X100652150Y-69198396D01*
X100692949Y-69171136D01*
X100736222Y-69148005D01*
X100781555Y-69129228D01*
X100828510Y-69114984D01*
X100876635Y-69105412D01*
X100925466Y-69100602D01*
X100950000Y-69100602D01*
X100950000Y-69100000D01*
X101450000Y-69100000D01*
X101450000Y-70600000D01*
X100950000Y-70600000D01*
X100950000Y-70599398D01*
G37*
%TD.AperFunction*%
%TD*%
%TA.AperFunction,SMDPad,CuDef*%
%TO.P,JP3,1*%
%TO.N,RF_EN*%
G36*
X120180000Y-60210000D02*
G01*
X120680000Y-60210000D01*
X120680000Y-60210602D01*
X120704534Y-60210602D01*
X120753365Y-60215412D01*
X120801490Y-60224984D01*
X120848445Y-60239228D01*
X120893778Y-60258005D01*
X120937051Y-60281136D01*
X120977850Y-60308396D01*
X121015779Y-60339524D01*
X121050476Y-60374221D01*
X121081604Y-60412150D01*
X121108864Y-60452949D01*
X121131995Y-60496222D01*
X121150772Y-60541555D01*
X121165016Y-60588510D01*
X121174588Y-60636635D01*
X121179398Y-60685466D01*
X121179398Y-60710000D01*
X121180000Y-60710000D01*
X121180000Y-61210000D01*
X121179398Y-61210000D01*
X121179398Y-61234534D01*
X121174588Y-61283365D01*
X121165016Y-61331490D01*
X121150772Y-61378445D01*
X121131995Y-61423778D01*
X121108864Y-61467051D01*
X121081604Y-61507850D01*
X121050476Y-61545779D01*
X121015779Y-61580476D01*
X120977850Y-61611604D01*
X120937051Y-61638864D01*
X120893778Y-61661995D01*
X120848445Y-61680772D01*
X120801490Y-61695016D01*
X120753365Y-61704588D01*
X120704534Y-61709398D01*
X120680000Y-61709398D01*
X120680000Y-61710000D01*
X120180000Y-61710000D01*
X120180000Y-60210000D01*
G37*
%TD.AperFunction*%
%TA.AperFunction,SMDPad,CuDef*%
%TO.P,JP3,2*%
%TO.N,Net-(E1-Pad1)*%
G36*
X119380000Y-61709398D02*
G01*
X119355466Y-61709398D01*
X119306635Y-61704588D01*
X119258510Y-61695016D01*
X119211555Y-61680772D01*
X119166222Y-61661995D01*
X119122949Y-61638864D01*
X119082150Y-61611604D01*
X119044221Y-61580476D01*
X119009524Y-61545779D01*
X118978396Y-61507850D01*
X118951136Y-61467051D01*
X118928005Y-61423778D01*
X118909228Y-61378445D01*
X118894984Y-61331490D01*
X118885412Y-61283365D01*
X118880602Y-61234534D01*
X118880602Y-61210000D01*
X118880000Y-61210000D01*
X118880000Y-60710000D01*
X118880602Y-60710000D01*
X118880602Y-60685466D01*
X118885412Y-60636635D01*
X118894984Y-60588510D01*
X118909228Y-60541555D01*
X118928005Y-60496222D01*
X118951136Y-60452949D01*
X118978396Y-60412150D01*
X119009524Y-60374221D01*
X119044221Y-60339524D01*
X119082150Y-60308396D01*
X119122949Y-60281136D01*
X119166222Y-60258005D01*
X119211555Y-60239228D01*
X119258510Y-60224984D01*
X119306635Y-60215412D01*
X119355466Y-60210602D01*
X119380000Y-60210602D01*
X119380000Y-60210000D01*
X119880000Y-60210000D01*
X119880000Y-61710000D01*
X119380000Y-61710000D01*
X119380000Y-61709398D01*
G37*
%TD.AperFunction*%
%TD*%
%TA.AperFunction,SMDPad,CuDef*%
%TO.P,JP2,2*%
%TO.N,Net-(E1-Pad1)*%
G36*
X100950000Y-56629398D02*
G01*
X100925466Y-56629398D01*
X100876635Y-56624588D01*
X100828510Y-56615016D01*
X100781555Y-56600772D01*
X100736222Y-56581995D01*
X100692949Y-56558864D01*
X100652150Y-56531604D01*
X100614221Y-56500476D01*
X100579524Y-56465779D01*
X100548396Y-56427850D01*
X100521136Y-56387051D01*
X100498005Y-56343778D01*
X100479228Y-56298445D01*
X100464984Y-56251490D01*
X100455412Y-56203365D01*
X100450602Y-56154534D01*
X100450602Y-56130000D01*
X100450000Y-56130000D01*
X100450000Y-55630000D01*
X100450602Y-55630000D01*
X100450602Y-55605466D01*
X100455412Y-55556635D01*
X100464984Y-55508510D01*
X100479228Y-55461555D01*
X100498005Y-55416222D01*
X100521136Y-55372949D01*
X100548396Y-55332150D01*
X100579524Y-55294221D01*
X100614221Y-55259524D01*
X100652150Y-55228396D01*
X100692949Y-55201136D01*
X100736222Y-55178005D01*
X100781555Y-55159228D01*
X100828510Y-55144984D01*
X100876635Y-55135412D01*
X100925466Y-55130602D01*
X100950000Y-55130602D01*
X100950000Y-55130000D01*
X101450000Y-55130000D01*
X101450000Y-56630000D01*
X100950000Y-56630000D01*
X100950000Y-56629398D01*
G37*
%TD.AperFunction*%
%TA.AperFunction,SMDPad,CuDef*%
%TO.P,JP2,1*%
%TO.N,Net-(JP2-Pad1)*%
G36*
X101750000Y-55130000D02*
G01*
X102250000Y-55130000D01*
X102250000Y-55130602D01*
X102274534Y-55130602D01*
X102323365Y-55135412D01*
X102371490Y-55144984D01*
X102418445Y-55159228D01*
X102463778Y-55178005D01*
X102507051Y-55201136D01*
X102547850Y-55228396D01*
X102585779Y-55259524D01*
X102620476Y-55294221D01*
X102651604Y-55332150D01*
X102678864Y-55372949D01*
X102701995Y-55416222D01*
X102720772Y-55461555D01*
X102735016Y-55508510D01*
X102744588Y-55556635D01*
X102749398Y-55605466D01*
X102749398Y-55630000D01*
X102750000Y-55630000D01*
X102750000Y-56130000D01*
X102749398Y-56130000D01*
X102749398Y-56154534D01*
X102744588Y-56203365D01*
X102735016Y-56251490D01*
X102720772Y-56298445D01*
X102701995Y-56343778D01*
X102678864Y-56387051D01*
X102651604Y-56427850D01*
X102620476Y-56465779D01*
X102585779Y-56500476D01*
X102547850Y-56531604D01*
X102507051Y-56558864D01*
X102463778Y-56581995D01*
X102418445Y-56600772D01*
X102371490Y-56615016D01*
X102323365Y-56624588D01*
X102274534Y-56629398D01*
X102250000Y-56629398D01*
X102250000Y-56630000D01*
X101750000Y-56630000D01*
X101750000Y-55130000D01*
G37*
%TD.AperFunction*%
%TD*%
%TA.AperFunction,SMDPad,CuDef*%
%TO.P,JP1,2*%
%TO.N,Net-(E1-Pad1)*%
G36*
X100950000Y-60439398D02*
G01*
X100925466Y-60439398D01*
X100876635Y-60434588D01*
X100828510Y-60425016D01*
X100781555Y-60410772D01*
X100736222Y-60391995D01*
X100692949Y-60368864D01*
X100652150Y-60341604D01*
X100614221Y-60310476D01*
X100579524Y-60275779D01*
X100548396Y-60237850D01*
X100521136Y-60197051D01*
X100498005Y-60153778D01*
X100479228Y-60108445D01*
X100464984Y-60061490D01*
X100455412Y-60013365D01*
X100450602Y-59964534D01*
X100450602Y-59940000D01*
X100450000Y-59940000D01*
X100450000Y-59440000D01*
X100450602Y-59440000D01*
X100450602Y-59415466D01*
X100455412Y-59366635D01*
X100464984Y-59318510D01*
X100479228Y-59271555D01*
X100498005Y-59226222D01*
X100521136Y-59182949D01*
X100548396Y-59142150D01*
X100579524Y-59104221D01*
X100614221Y-59069524D01*
X100652150Y-59038396D01*
X100692949Y-59011136D01*
X100736222Y-58988005D01*
X100781555Y-58969228D01*
X100828510Y-58954984D01*
X100876635Y-58945412D01*
X100925466Y-58940602D01*
X100950000Y-58940602D01*
X100950000Y-58940000D01*
X101450000Y-58940000D01*
X101450000Y-60440000D01*
X100950000Y-60440000D01*
X100950000Y-60439398D01*
G37*
%TD.AperFunction*%
%TA.AperFunction,SMDPad,CuDef*%
%TO.P,JP1,1*%
%TO.N,Net-(JP1-Pad1)*%
G36*
X101750000Y-58940000D02*
G01*
X102250000Y-58940000D01*
X102250000Y-58940602D01*
X102274534Y-58940602D01*
X102323365Y-58945412D01*
X102371490Y-58954984D01*
X102418445Y-58969228D01*
X102463778Y-58988005D01*
X102507051Y-59011136D01*
X102547850Y-59038396D01*
X102585779Y-59069524D01*
X102620476Y-59104221D01*
X102651604Y-59142150D01*
X102678864Y-59182949D01*
X102701995Y-59226222D01*
X102720772Y-59271555D01*
X102735016Y-59318510D01*
X102744588Y-59366635D01*
X102749398Y-59415466D01*
X102749398Y-59440000D01*
X102750000Y-59440000D01*
X102750000Y-59940000D01*
X102749398Y-59940000D01*
X102749398Y-59964534D01*
X102744588Y-60013365D01*
X102735016Y-60061490D01*
X102720772Y-60108445D01*
X102701995Y-60153778D01*
X102678864Y-60197051D01*
X102651604Y-60237850D01*
X102620476Y-60275779D01*
X102585779Y-60310476D01*
X102547850Y-60341604D01*
X102507051Y-60368864D01*
X102463778Y-60391995D01*
X102418445Y-60410772D01*
X102371490Y-60425016D01*
X102323365Y-60434588D01*
X102274534Y-60439398D01*
X102250000Y-60439398D01*
X102250000Y-60440000D01*
X101750000Y-60440000D01*
X101750000Y-58940000D01*
G37*
%TD.AperFunction*%
%TD*%
D11*
%TO.P,J5,8*%
%TO.N,OLED_RES*%
X102870000Y-76200000D03*
%TO.P,J5,7*%
%TO.N,Net-(J5-Pad7)*%
X102870000Y-78740000D03*
%TO.P,J5,6*%
%TO.N,Net-(J5-Pad6)*%
X102870000Y-81280000D03*
%TO.P,J5,5*%
%TO.N,I2C_SCL*%
X102870000Y-83820000D03*
%TO.P,J5,4*%
%TO.N,I2C_SDA*%
X102870000Y-86360000D03*
%TO.P,J5,3*%
%TO.N,Net-(J5-Pad3)*%
X102870000Y-88900000D03*
%TO.P,J5,2*%
%TO.N,GND*%
X102870000Y-91440000D03*
D13*
%TO.P,J5,1*%
%TO.N,LED_PORT_PWR*%
X102870000Y-93980000D03*
%TD*%
D11*
%TO.P,J4,4*%
%TO.N,GND*%
X99060000Y-106680000D03*
%TO.P,J4,3*%
%TO.N,LED_PORT_PWR*%
X99060000Y-109220000D03*
%TO.P,J4,2*%
%TO.N,I2C_SCL*%
X99060000Y-111760000D03*
D13*
%TO.P,J4,1*%
%TO.N,I2C_SDA*%
X99060000Y-114300000D03*
%TD*%
D11*
%TO.P,J3,6*%
%TO.N,GND*%
X111760000Y-101600000D03*
%TO.P,J3,5*%
%TO.N,LED_PORT_PWR*%
X111760000Y-104140000D03*
%TO.P,J3,4*%
%TO.N,SPI_CS*%
X111760000Y-106680000D03*
%TO.P,J3,3*%
%TO.N,SPI_CLK*%
X111760000Y-109220000D03*
%TO.P,J3,2*%
%TO.N,SPI_MISO*%
X111760000Y-111760000D03*
D13*
%TO.P,J3,1*%
%TO.N,SPI_MOSI*%
X111760000Y-114300000D03*
%TD*%
D11*
%TO.P,J2,20*%
%TO.N,GND*%
X119380000Y-54610000D03*
%TO.P,J2,19*%
%TO.N,Net-(J2-Pad19)*%
X119380000Y-57150000D03*
%TO.P,J2,18*%
%TO.N,GND*%
X121920000Y-54610000D03*
%TO.P,J2,17*%
%TO.N,Net-(J2-Pad17)*%
X121920000Y-57150000D03*
%TO.P,J2,16*%
%TO.N,GND*%
X124460000Y-54610000D03*
%TO.P,J2,15*%
%TO.N,RF_EN*%
X124460000Y-57150000D03*
%TO.P,J2,14*%
%TO.N,GND*%
X127000000Y-54610000D03*
%TO.P,J2,13*%
%TO.N,Debug_TDO*%
X127000000Y-57150000D03*
%TO.P,J2,12*%
%TO.N,GND*%
X129540000Y-54610000D03*
%TO.P,J2,11*%
%TO.N,Net-(J2-Pad11)*%
X129540000Y-57150000D03*
%TO.P,J2,10*%
%TO.N,GND*%
X132080000Y-54610000D03*
%TO.P,J2,9*%
%TO.N,Debug_TCK*%
X132080000Y-57150000D03*
%TO.P,J2,8*%
%TO.N,GND*%
X134620000Y-54610000D03*
%TO.P,J2,7*%
%TO.N,Debug_TMS*%
X134620000Y-57150000D03*
%TO.P,J2,6*%
%TO.N,GND*%
X137160000Y-54610000D03*
%TO.P,J2,5*%
%TO.N,Debug_TDI*%
X137160000Y-57150000D03*
%TO.P,J2,4*%
%TO.N,GND*%
X139700000Y-54610000D03*
%TO.P,J2,3*%
%TO.N,Net-(J2-Pad3)*%
X139700000Y-57150000D03*
%TO.P,J2,2*%
%TO.N,Net-(J2-Pad2)*%
X142240000Y-54610000D03*
D13*
%TO.P,J2,1*%
%TO.N,LED_PORT_PWR*%
X142240000Y-57150000D03*
%TD*%
D17*
%TO.P,J1,10*%
%TO.N,RF_EN*%
X152400000Y-55880000D03*
%TO.P,J1,9*%
%TO.N,GND*%
X153670000Y-55880000D03*
%TO.P,J1,8*%
%TO.N,Debug_TDI*%
X152400000Y-57150000D03*
%TO.P,J1,7*%
%TO.N,Net-(J1-Pad7)*%
X153670000Y-57150000D03*
%TO.P,J1,6*%
%TO.N,Debug_TDO*%
X152400000Y-58420000D03*
%TO.P,J1,5*%
%TO.N,GND*%
X153670000Y-58420000D03*
%TO.P,J1,4*%
%TO.N,Debug_TCK*%
X152400000Y-59690000D03*
%TO.P,J1,3*%
%TO.N,GND*%
X153670000Y-59690000D03*
%TO.P,J1,2*%
%TO.N,Debug_TMS*%
X152400000Y-60960000D03*
D18*
%TO.P,J1,1*%
%TO.N,LED_PORT_PWR*%
X153670000Y-60960000D03*
%TD*%
D19*
%TO.N,SCREEN_RESET*%
X111760000Y-81280000D03*
%TO.N,GND*%
X106680000Y-55880000D03*
X102870000Y-63500000D03*
%TO.N,I2C_SCL*%
X100330000Y-95250000D03*
%TO.N,Net-(E1-Pad1)*%
X125730000Y-72390000D03*
X127000000Y-76200000D03*
%TO.N,Debug_TCK*%
X149860000Y-62230000D03*
X139700000Y-66040000D03*
%TO.N,RF_EN*%
X148590000Y-67310000D03*
%TD*%
D20*
%TO.N,SPI_MISO*%
X116840000Y-101000000D02*
X120050000Y-97790000D01*
X116840000Y-109220000D02*
X116840000Y-101000000D01*
X114300000Y-111760000D02*
X116840000Y-109220000D01*
X111760000Y-111760000D02*
X114300000Y-111760000D01*
%TO.N,SCREEN_RESET*%
X102250000Y-71770000D02*
X111760000Y-81280000D01*
X102250000Y-69850000D02*
X102250000Y-71770000D01*
%TO.N,GND*%
X106197500Y-55880000D02*
X106680000Y-55880000D01*
X102387500Y-63500000D02*
X102870000Y-63500000D01*
%TO.N,Debug_TDO*%
X127000000Y-73060000D02*
X120050000Y-80010000D01*
X127000000Y-57150000D02*
X127000000Y-73060000D01*
%TO.N,SPI_CS*%
X111760000Y-106680000D02*
X114169980Y-106680000D01*
X114169980Y-106680000D02*
X115439980Y-105410000D01*
X115439980Y-97320020D02*
X120050000Y-92710000D01*
X115439980Y-105410000D02*
X115439980Y-97320020D01*
%TO.N,SPI_CLK*%
X111760000Y-109220000D02*
X114300000Y-109220000D01*
X114300000Y-109220000D02*
X116139990Y-107380010D01*
X116139990Y-99160010D02*
X120050000Y-95250000D01*
X116139990Y-107380010D02*
X116139990Y-99160010D01*
%TO.N,I2C_SCL*%
X100330000Y-86360000D02*
X102870000Y-83820000D01*
X100330000Y-95250000D02*
X100330000Y-86360000D01*
%TO.N,Net-(E1-Pad1)*%
X116190000Y-57770000D02*
X100950000Y-57770000D01*
X119380000Y-60960000D02*
X116190000Y-57770000D01*
X100950000Y-57770000D02*
X100950000Y-55880000D01*
X100950000Y-59690000D02*
X100950000Y-57770000D01*
X125730000Y-69483998D02*
X125730000Y-72390000D01*
X119380000Y-63133998D02*
X125730000Y-69483998D01*
X119380000Y-60960000D02*
X119380000Y-63133998D01*
X146050000Y-109874002D02*
X146050000Y-110490000D01*
X127000000Y-90824002D02*
X146050000Y-109874002D01*
X127000000Y-76200000D02*
X127000000Y-90824002D01*
D21*
%TO.N,Debug_TMS*%
X152400000Y-78740000D02*
X146050000Y-85090000D01*
X152400000Y-60960000D02*
X152400000Y-78740000D01*
D20*
X146050000Y-84474002D02*
X146050000Y-85090000D01*
X134620000Y-73044002D02*
X146050000Y-84474002D01*
X134620000Y-57150000D02*
X134620000Y-73044002D01*
D21*
%TO.N,Debug_TDI*%
X151130000Y-77470000D02*
X146050000Y-82550000D01*
X151130000Y-58420000D02*
X151130000Y-77470000D01*
X152400000Y-57150000D02*
X151130000Y-58420000D01*
D20*
X138460001Y-74960001D02*
X146050000Y-82550000D01*
X138460001Y-58450001D02*
X138460001Y-74960001D01*
X137160000Y-57150000D02*
X138460001Y-58450001D01*
D21*
%TO.N,Debug_TCK*%
X149860000Y-76200000D02*
X146050000Y-80010000D01*
X149860000Y-62230000D02*
X149860000Y-76200000D01*
D20*
X139700000Y-73660000D02*
X146050000Y-80010000D01*
X139700000Y-66040000D02*
X139700000Y-73660000D01*
%TO.N,RF_EN*%
X120680000Y-60930000D02*
X120680000Y-60960000D01*
X124460000Y-57150000D02*
X120680000Y-60930000D01*
D21*
X148590000Y-59690000D02*
X152400000Y-55880000D01*
X148590000Y-67310000D02*
X148590000Y-59690000D01*
D20*
%TO.N,OLED_RES*%
X100950000Y-69263588D02*
X100950000Y-69850000D01*
X102250000Y-67963588D02*
X100950000Y-69263588D01*
X102250000Y-66040000D02*
X102250000Y-67963588D01*
X100950000Y-74280000D02*
X100950000Y-69850000D01*
X102870000Y-76200000D02*
X100950000Y-74280000D01*
%TO.N,Net-(JP5-Pad1)*%
X100812500Y-65902500D02*
X100950000Y-66040000D01*
X100812500Y-63500000D02*
X100812500Y-65902500D01*
D22*
%TO.N,LED_PORT_PWR*%
X153670000Y-113030000D02*
X146050000Y-120650000D01*
X106680000Y-88300000D02*
X120050000Y-74930000D01*
X153710000Y-73700000D02*
X153670000Y-73660000D01*
X157480000Y-73700000D02*
X153710000Y-73700000D01*
X153670000Y-60960000D02*
X153670000Y-73660000D01*
X153710000Y-86400000D02*
X153670000Y-86360000D01*
X157480000Y-86400000D02*
X153710000Y-86400000D01*
X153670000Y-73660000D02*
X153670000Y-86360000D01*
X153710000Y-99100000D02*
X153670000Y-99060000D01*
X157480000Y-99100000D02*
X153710000Y-99100000D01*
X153670000Y-86360000D02*
X153670000Y-99060000D01*
X157480000Y-111800000D02*
X153710000Y-111800000D01*
X153670000Y-111760000D02*
X153670000Y-113030000D01*
X153710000Y-111800000D02*
X153670000Y-111760000D01*
X153670000Y-99060000D02*
X153670000Y-111760000D01*
X149820000Y-124420000D02*
X146050000Y-120650000D01*
X149820000Y-128270000D02*
X149820000Y-124420000D01*
X137120000Y-120690000D02*
X137160000Y-120650000D01*
X137120000Y-128270000D02*
X137120000Y-120690000D01*
X146050000Y-120650000D02*
X137160000Y-120650000D01*
X124420000Y-128270000D02*
X124420000Y-120690000D01*
X124420000Y-120690000D02*
X124460000Y-120650000D01*
X137160000Y-120650000D02*
X124460000Y-120650000D01*
X111720000Y-120690000D02*
X111760000Y-120650000D01*
X111720000Y-128270000D02*
X111720000Y-120690000D01*
X124460000Y-120650000D02*
X111760000Y-120650000D01*
X102870000Y-93980000D02*
X106680000Y-93980000D01*
X106680000Y-93980000D02*
X106680000Y-88300000D01*
X106680000Y-97790000D02*
X106680000Y-93980000D01*
X104140000Y-100330000D02*
X106680000Y-97790000D01*
X100330000Y-100330000D02*
X104140000Y-100330000D01*
X95250000Y-105410000D02*
X100330000Y-100330000D01*
X99060000Y-120650000D02*
X95250000Y-116840000D01*
X111760000Y-120650000D02*
X99060000Y-120650000D01*
X106680000Y-99060000D02*
X106680000Y-97790000D01*
X111760000Y-104140000D02*
X106680000Y-99060000D01*
X99060000Y-109220000D02*
X95250000Y-109220000D01*
X95250000Y-109220000D02*
X95250000Y-105410000D01*
X95250000Y-116840000D02*
X95250000Y-109220000D01*
D20*
X106197500Y-61077500D02*
X120050000Y-74930000D01*
X106197500Y-59690000D02*
X106197500Y-61077500D01*
D23*
X153954002Y-60960000D02*
X153670000Y-60960000D01*
X154940000Y-59974002D02*
X153954002Y-60960000D01*
X154940000Y-54467999D02*
X154940000Y-59974002D01*
X153812001Y-53340000D02*
X154940000Y-54467999D01*
X148590000Y-53340000D02*
X153812001Y-53340000D01*
X147100001Y-54829999D02*
X148590000Y-53340000D01*
X144560001Y-54829999D02*
X147100001Y-54829999D01*
X142240000Y-57150000D02*
X144560001Y-54829999D01*
D20*
%TO.N,SPI_MOSI*%
X116240000Y-114300000D02*
X120050000Y-110490000D01*
X111760000Y-114300000D02*
X116240000Y-114300000D01*
%TO.N,Net-(JP1-Pad1)*%
X102250000Y-59690000D02*
X104622500Y-59690000D01*
%TO.N,Net-(JP2-Pad1)*%
X102250000Y-55880000D02*
X104622500Y-55880000D01*
%TD*%
M02*
