M48
; DRILL file {KiCad 5.1.6} date Wed Aug 26 17:45:03 2020
; FORMAT={-:-/ absolute / inch / decimal}
; #@! TF.CreationDate,2020-08-26T17:45:03+02:00
; #@! TF.GenerationSoftware,Kicad,Pcbnew,5.1.6
; #@! TF.FileFunction,Plated,1,2,PTH
FMAT,2
INCH
T1C0.0157
T2C0.0256
T3C0.0374
T4C0.0394
%
G90
G05
T1
X3.95Y-3.75
X4.05Y-2.5
X4.2Y-2.2
X4.4Y-3.2
X4.95Y-2.85
X5.0Y-3.0
X5.5Y-2.6
X5.85Y-2.65
X5.9Y-2.45
T2
X6.0Y-2.2
X6.0Y-2.25
X6.0Y-2.3
X6.0Y-2.35
X6.0Y-2.4
X6.05Y-2.2
X6.05Y-2.25
X6.05Y-2.3
X6.05Y-2.35
X6.05Y-2.4
T3
X6.2Y-3.8031
X6.2Y-3.9016
X6.2Y-4.0
X5.3Y-5.05
X5.3984Y-5.05
X5.4969Y-5.05
X6.2Y-2.8031
X6.2Y-2.9016
X6.2Y-3.0
X6.2Y-4.3031
X6.2Y-4.4016
X6.2Y-4.5
X5.8Y-5.05
X5.8984Y-5.05
X5.9969Y-5.05
X6.2Y-3.3031
X6.2Y-3.4016
X6.2Y-3.5
X4.3Y-5.05
X4.3984Y-5.05
X4.4969Y-5.05
X4.8Y-5.05
X4.8984Y-5.05
X4.9969Y-5.05
T4
X3.9Y-4.2
X3.9Y-4.3
X3.9Y-4.4
X3.9Y-4.5
X4.05Y-3.0
X4.05Y-3.1
X4.05Y-3.2
X4.05Y-3.3
X4.05Y-3.4
X4.05Y-3.5
X4.05Y-3.6
X4.05Y-3.7
X4.7264Y-2.95
X4.7264Y-3.05
X4.7264Y-3.15
X4.7264Y-3.25
X4.7264Y-3.35
X4.7264Y-3.45
X4.7264Y-3.55
X4.7264Y-3.65
X4.7264Y-3.75
X4.7264Y-3.85
X4.7264Y-3.95
X4.7264Y-4.05
X4.7264Y-4.15
X4.7264Y-4.25
X4.7264Y-4.35
X5.75Y-2.95
X5.75Y-3.05
X5.75Y-3.15
X5.75Y-3.25
X5.75Y-3.35
X5.75Y-3.45
X5.75Y-3.55
X5.75Y-3.65
X5.75Y-3.75
X5.75Y-3.85
X5.75Y-3.95
X5.75Y-4.05
X5.75Y-4.15
X5.75Y-4.25
X5.75Y-4.35
X4.7Y-2.15
X4.7Y-2.25
X4.8Y-2.15
X4.8Y-2.25
X4.9Y-2.15
X4.9Y-2.25
X5.0Y-2.15
X5.0Y-2.25
X5.1Y-2.15
X5.1Y-2.25
X5.2Y-2.15
X5.2Y-2.25
X5.3Y-2.15
X5.3Y-2.25
X5.4Y-2.15
X5.4Y-2.25
X5.5Y-2.15
X5.5Y-2.25
X5.6Y-2.15
X5.6Y-2.25
X4.4Y-4.0
X4.4Y-4.1
X4.4Y-4.2
X4.4Y-4.3
X4.4Y-4.4
X4.4Y-4.5
T0
M30
