%TF.GenerationSoftware,KiCad,Pcbnew,5.1.6*%
%TF.CreationDate,2020-08-26T17:45:01+02:00*%
%TF.ProjectId,PAF_controller,5041465f-636f-46e7-9472-6f6c6c65722e,rev?*%
%TF.SameCoordinates,Original*%
%TF.FileFunction,Legend,Top*%
%TF.FilePolarity,Positive*%
%FSLAX46Y46*%
G04 Gerber Fmt 4.6, Leading zero omitted, Abs format (unit mm)*
G04 Created by KiCad (PCBNEW 5.1.6) date 2020-08-26 17:45:01*
%MOMM*%
%LPD*%
G01*
G04 APERTURE LIST*
%ADD10C,0.400000*%
%ADD11C,0.150000*%
%ADD12C,0.300000*%
%ADD13C,0.120000*%
G04 APERTURE END LIST*
D10*
X136652380Y-59864761D02*
X136652380Y-61293333D01*
X136557142Y-61579047D01*
X136366666Y-61769523D01*
X136080952Y-61864761D01*
X135890476Y-61864761D01*
X138557142Y-61864761D02*
X137604761Y-61864761D01*
X137604761Y-59864761D01*
X139223809Y-61864761D02*
X139223809Y-59864761D01*
X140176190Y-61864761D02*
X140176190Y-59864761D01*
X141319047Y-61864761D01*
X141319047Y-59864761D01*
X142271428Y-61864761D02*
X142271428Y-59864761D01*
X143414285Y-61864761D02*
X142557142Y-60721904D01*
X143414285Y-59864761D02*
X142271428Y-61007619D01*
D11*
X123206190Y-60412380D02*
X123206190Y-61126666D01*
X123158571Y-61269523D01*
X123063333Y-61364761D01*
X122920476Y-61412380D01*
X122825238Y-61412380D01*
X123539523Y-60412380D02*
X124110952Y-60412380D01*
X123825238Y-61412380D02*
X123825238Y-60412380D01*
X124396666Y-61126666D02*
X124872857Y-61126666D01*
X124301428Y-61412380D02*
X124634761Y-60412380D01*
X124968095Y-61412380D01*
X125825238Y-60460000D02*
X125730000Y-60412380D01*
X125587142Y-60412380D01*
X125444285Y-60460000D01*
X125349047Y-60555238D01*
X125301428Y-60650476D01*
X125253809Y-60840952D01*
X125253809Y-60983809D01*
X125301428Y-61174285D01*
X125349047Y-61269523D01*
X125444285Y-61364761D01*
X125587142Y-61412380D01*
X125682380Y-61412380D01*
X125825238Y-61364761D01*
X125872857Y-61317142D01*
X125872857Y-60983809D01*
X125682380Y-60983809D01*
X127063333Y-60888571D02*
X127396666Y-60888571D01*
X127539523Y-61412380D02*
X127063333Y-61412380D01*
X127063333Y-60412380D01*
X127539523Y-60412380D01*
X127968095Y-61412380D02*
X127968095Y-60412380D01*
X128539523Y-61412380D01*
X128539523Y-60412380D01*
X107188095Y-101100000D02*
X107092857Y-101052380D01*
X106950000Y-101052380D01*
X106807142Y-101100000D01*
X106711904Y-101195238D01*
X106664285Y-101290476D01*
X106616666Y-101480952D01*
X106616666Y-101623809D01*
X106664285Y-101814285D01*
X106711904Y-101909523D01*
X106807142Y-102004761D01*
X106950000Y-102052380D01*
X107045238Y-102052380D01*
X107188095Y-102004761D01*
X107235714Y-101957142D01*
X107235714Y-101623809D01*
X107045238Y-101623809D01*
X107664285Y-102052380D02*
X107664285Y-101052380D01*
X108235714Y-102052380D01*
X108235714Y-101052380D01*
X108711904Y-102052380D02*
X108711904Y-101052380D01*
X108950000Y-101052380D01*
X109092857Y-101100000D01*
X109188095Y-101195238D01*
X109235714Y-101290476D01*
X109283333Y-101480952D01*
X109283333Y-101623809D01*
X109235714Y-101814285D01*
X109188095Y-101909523D01*
X109092857Y-102004761D01*
X108950000Y-102052380D01*
X108711904Y-102052380D01*
X106711904Y-103592380D02*
X107330952Y-103592380D01*
X106997619Y-103973333D01*
X107140476Y-103973333D01*
X107235714Y-104020952D01*
X107283333Y-104068571D01*
X107330952Y-104163809D01*
X107330952Y-104401904D01*
X107283333Y-104497142D01*
X107235714Y-104544761D01*
X107140476Y-104592380D01*
X106854761Y-104592380D01*
X106759523Y-104544761D01*
X106711904Y-104497142D01*
X107616666Y-103592380D02*
X107950000Y-104592380D01*
X108283333Y-103592380D01*
X108521428Y-103592380D02*
X109140476Y-103592380D01*
X108807142Y-103973333D01*
X108950000Y-103973333D01*
X109045238Y-104020952D01*
X109092857Y-104068571D01*
X109140476Y-104163809D01*
X109140476Y-104401904D01*
X109092857Y-104497142D01*
X109045238Y-104544761D01*
X108950000Y-104592380D01*
X108664285Y-104592380D01*
X108569047Y-104544761D01*
X108521428Y-104497142D01*
X107783333Y-107037142D02*
X107735714Y-107084761D01*
X107592857Y-107132380D01*
X107497619Y-107132380D01*
X107354761Y-107084761D01*
X107259523Y-106989523D01*
X107211904Y-106894285D01*
X107164285Y-106703809D01*
X107164285Y-106560952D01*
X107211904Y-106370476D01*
X107259523Y-106275238D01*
X107354761Y-106180000D01*
X107497619Y-106132380D01*
X107592857Y-106132380D01*
X107735714Y-106180000D01*
X107783333Y-106227619D01*
X108164285Y-107084761D02*
X108307142Y-107132380D01*
X108545238Y-107132380D01*
X108640476Y-107084761D01*
X108688095Y-107037142D01*
X108735714Y-106941904D01*
X108735714Y-106846666D01*
X108688095Y-106751428D01*
X108640476Y-106703809D01*
X108545238Y-106656190D01*
X108354761Y-106608571D01*
X108259523Y-106560952D01*
X108211904Y-106513333D01*
X108164285Y-106418095D01*
X108164285Y-106322857D01*
X108211904Y-106227619D01*
X108259523Y-106180000D01*
X108354761Y-106132380D01*
X108592857Y-106132380D01*
X108735714Y-106180000D01*
X107354761Y-109577142D02*
X107307142Y-109624761D01*
X107164285Y-109672380D01*
X107069047Y-109672380D01*
X106926190Y-109624761D01*
X106830952Y-109529523D01*
X106783333Y-109434285D01*
X106735714Y-109243809D01*
X106735714Y-109100952D01*
X106783333Y-108910476D01*
X106830952Y-108815238D01*
X106926190Y-108720000D01*
X107069047Y-108672380D01*
X107164285Y-108672380D01*
X107307142Y-108720000D01*
X107354761Y-108767619D01*
X108259523Y-109672380D02*
X107783333Y-109672380D01*
X107783333Y-108672380D01*
X108592857Y-109672380D02*
X108592857Y-108672380D01*
X109164285Y-109672380D02*
X108735714Y-109100952D01*
X109164285Y-108672380D02*
X108592857Y-109243809D01*
X106378571Y-112212380D02*
X106378571Y-111212380D01*
X106711904Y-111926666D01*
X107045238Y-111212380D01*
X107045238Y-112212380D01*
X107521428Y-112212380D02*
X107521428Y-111212380D01*
X107950000Y-112164761D02*
X108092857Y-112212380D01*
X108330952Y-112212380D01*
X108426190Y-112164761D01*
X108473809Y-112117142D01*
X108521428Y-112021904D01*
X108521428Y-111926666D01*
X108473809Y-111831428D01*
X108426190Y-111783809D01*
X108330952Y-111736190D01*
X108140476Y-111688571D01*
X108045238Y-111640952D01*
X107997619Y-111593333D01*
X107950000Y-111498095D01*
X107950000Y-111402857D01*
X107997619Y-111307619D01*
X108045238Y-111260000D01*
X108140476Y-111212380D01*
X108378571Y-111212380D01*
X108521428Y-111260000D01*
X109140476Y-111212380D02*
X109330952Y-111212380D01*
X109426190Y-111260000D01*
X109521428Y-111355238D01*
X109569047Y-111545714D01*
X109569047Y-111879047D01*
X109521428Y-112069523D01*
X109426190Y-112164761D01*
X109330952Y-112212380D01*
X109140476Y-112212380D01*
X109045238Y-112164761D01*
X108950000Y-112069523D01*
X108902380Y-111879047D01*
X108902380Y-111545714D01*
X108950000Y-111355238D01*
X109045238Y-111260000D01*
X109140476Y-111212380D01*
X106378571Y-114752380D02*
X106378571Y-113752380D01*
X106711904Y-114466666D01*
X107045238Y-113752380D01*
X107045238Y-114752380D01*
X107711904Y-113752380D02*
X107902380Y-113752380D01*
X107997619Y-113800000D01*
X108092857Y-113895238D01*
X108140476Y-114085714D01*
X108140476Y-114419047D01*
X108092857Y-114609523D01*
X107997619Y-114704761D01*
X107902380Y-114752380D01*
X107711904Y-114752380D01*
X107616666Y-114704761D01*
X107521428Y-114609523D01*
X107473809Y-114419047D01*
X107473809Y-114085714D01*
X107521428Y-113895238D01*
X107616666Y-113800000D01*
X107711904Y-113752380D01*
X108521428Y-114704761D02*
X108664285Y-114752380D01*
X108902380Y-114752380D01*
X108997619Y-114704761D01*
X109045238Y-114657142D01*
X109092857Y-114561904D01*
X109092857Y-114466666D01*
X109045238Y-114371428D01*
X108997619Y-114323809D01*
X108902380Y-114276190D01*
X108711904Y-114228571D01*
X108616666Y-114180952D01*
X108569047Y-114133333D01*
X108521428Y-114038095D01*
X108521428Y-113942857D01*
X108569047Y-113847619D01*
X108616666Y-113800000D01*
X108711904Y-113752380D01*
X108950000Y-113752380D01*
X109092857Y-113800000D01*
X109521428Y-114752380D02*
X109521428Y-113752380D01*
X102108095Y-106180000D02*
X102012857Y-106132380D01*
X101870000Y-106132380D01*
X101727142Y-106180000D01*
X101631904Y-106275238D01*
X101584285Y-106370476D01*
X101536666Y-106560952D01*
X101536666Y-106703809D01*
X101584285Y-106894285D01*
X101631904Y-106989523D01*
X101727142Y-107084761D01*
X101870000Y-107132380D01*
X101965238Y-107132380D01*
X102108095Y-107084761D01*
X102155714Y-107037142D01*
X102155714Y-106703809D01*
X101965238Y-106703809D01*
X102584285Y-107132380D02*
X102584285Y-106132380D01*
X103155714Y-107132380D01*
X103155714Y-106132380D01*
X103631904Y-107132380D02*
X103631904Y-106132380D01*
X103870000Y-106132380D01*
X104012857Y-106180000D01*
X104108095Y-106275238D01*
X104155714Y-106370476D01*
X104203333Y-106560952D01*
X104203333Y-106703809D01*
X104155714Y-106894285D01*
X104108095Y-106989523D01*
X104012857Y-107084761D01*
X103870000Y-107132380D01*
X103631904Y-107132380D01*
X101631904Y-108672380D02*
X102250952Y-108672380D01*
X101917619Y-109053333D01*
X102060476Y-109053333D01*
X102155714Y-109100952D01*
X102203333Y-109148571D01*
X102250952Y-109243809D01*
X102250952Y-109481904D01*
X102203333Y-109577142D01*
X102155714Y-109624761D01*
X102060476Y-109672380D01*
X101774761Y-109672380D01*
X101679523Y-109624761D01*
X101631904Y-109577142D01*
X102536666Y-108672380D02*
X102870000Y-109672380D01*
X103203333Y-108672380D01*
X103441428Y-108672380D02*
X104060476Y-108672380D01*
X103727142Y-109053333D01*
X103870000Y-109053333D01*
X103965238Y-109100952D01*
X104012857Y-109148571D01*
X104060476Y-109243809D01*
X104060476Y-109481904D01*
X104012857Y-109577142D01*
X103965238Y-109624761D01*
X103870000Y-109672380D01*
X103584285Y-109672380D01*
X103489047Y-109624761D01*
X103441428Y-109577142D01*
X101679523Y-112164761D02*
X101822380Y-112212380D01*
X102060476Y-112212380D01*
X102155714Y-112164761D01*
X102203333Y-112117142D01*
X102250952Y-112021904D01*
X102250952Y-111926666D01*
X102203333Y-111831428D01*
X102155714Y-111783809D01*
X102060476Y-111736190D01*
X101870000Y-111688571D01*
X101774761Y-111640952D01*
X101727142Y-111593333D01*
X101679523Y-111498095D01*
X101679523Y-111402857D01*
X101727142Y-111307619D01*
X101774761Y-111260000D01*
X101870000Y-111212380D01*
X102108095Y-111212380D01*
X102250952Y-111260000D01*
X103250952Y-112117142D02*
X103203333Y-112164761D01*
X103060476Y-112212380D01*
X102965238Y-112212380D01*
X102822380Y-112164761D01*
X102727142Y-112069523D01*
X102679523Y-111974285D01*
X102631904Y-111783809D01*
X102631904Y-111640952D01*
X102679523Y-111450476D01*
X102727142Y-111355238D01*
X102822380Y-111260000D01*
X102965238Y-111212380D01*
X103060476Y-111212380D01*
X103203333Y-111260000D01*
X103250952Y-111307619D01*
X104155714Y-112212380D02*
X103679523Y-112212380D01*
X103679523Y-111212380D01*
X101655714Y-114704761D02*
X101798571Y-114752380D01*
X102036666Y-114752380D01*
X102131904Y-114704761D01*
X102179523Y-114657142D01*
X102227142Y-114561904D01*
X102227142Y-114466666D01*
X102179523Y-114371428D01*
X102131904Y-114323809D01*
X102036666Y-114276190D01*
X101846190Y-114228571D01*
X101750952Y-114180952D01*
X101703333Y-114133333D01*
X101655714Y-114038095D01*
X101655714Y-113942857D01*
X101703333Y-113847619D01*
X101750952Y-113800000D01*
X101846190Y-113752380D01*
X102084285Y-113752380D01*
X102227142Y-113800000D01*
X102655714Y-114752380D02*
X102655714Y-113752380D01*
X102893809Y-113752380D01*
X103036666Y-113800000D01*
X103131904Y-113895238D01*
X103179523Y-113990476D01*
X103227142Y-114180952D01*
X103227142Y-114323809D01*
X103179523Y-114514285D01*
X103131904Y-114609523D01*
X103036666Y-114704761D01*
X102893809Y-114752380D01*
X102655714Y-114752380D01*
X103608095Y-114466666D02*
X104084285Y-114466666D01*
X103512857Y-114752380D02*
X103846190Y-113752380D01*
X104179523Y-114752380D01*
D10*
X99964761Y-102282380D02*
X97964761Y-102282380D01*
X98155238Y-101425238D02*
X98060000Y-101330000D01*
X97964761Y-101139523D01*
X97964761Y-100663333D01*
X98060000Y-100472857D01*
X98155238Y-100377619D01*
X98345714Y-100282380D01*
X98536190Y-100282380D01*
X98821904Y-100377619D01*
X99964761Y-101520476D01*
X99964761Y-100282380D01*
X99774285Y-98282380D02*
X99869523Y-98377619D01*
X99964761Y-98663333D01*
X99964761Y-98853809D01*
X99869523Y-99139523D01*
X99679047Y-99330000D01*
X99488571Y-99425238D01*
X99107619Y-99520476D01*
X98821904Y-99520476D01*
X98440952Y-99425238D01*
X98250476Y-99330000D01*
X98060000Y-99139523D01*
X97964761Y-98853809D01*
X97964761Y-98663333D01*
X98060000Y-98377619D01*
X98155238Y-98282380D01*
X112569523Y-97297619D02*
X112664761Y-97011904D01*
X112664761Y-96535714D01*
X112569523Y-96345238D01*
X112474285Y-96250000D01*
X112283809Y-96154761D01*
X112093333Y-96154761D01*
X111902857Y-96250000D01*
X111807619Y-96345238D01*
X111712380Y-96535714D01*
X111617142Y-96916666D01*
X111521904Y-97107142D01*
X111426666Y-97202380D01*
X111236190Y-97297619D01*
X111045714Y-97297619D01*
X110855238Y-97202380D01*
X110760000Y-97107142D01*
X110664761Y-96916666D01*
X110664761Y-96440476D01*
X110760000Y-96154761D01*
X112664761Y-95297619D02*
X110664761Y-95297619D01*
X110664761Y-94535714D01*
X110760000Y-94345238D01*
X110855238Y-94250000D01*
X111045714Y-94154761D01*
X111331428Y-94154761D01*
X111521904Y-94250000D01*
X111617142Y-94345238D01*
X111712380Y-94535714D01*
X111712380Y-95297619D01*
X112664761Y-93297619D02*
X110664761Y-93297619D01*
D12*
X152161904Y-73850476D02*
X152066666Y-74040952D01*
X151971428Y-74136190D01*
X151780952Y-74231428D01*
X151685714Y-74231428D01*
X151495238Y-74136190D01*
X151400000Y-74040952D01*
X151304761Y-73850476D01*
X151304761Y-73469523D01*
X151400000Y-73279047D01*
X151495238Y-73183809D01*
X151685714Y-73088571D01*
X151780952Y-73088571D01*
X151971428Y-73183809D01*
X152066666Y-73279047D01*
X152161904Y-73469523D01*
X152161904Y-73850476D01*
X152257142Y-74040952D01*
X152352380Y-74136190D01*
X152542857Y-74231428D01*
X152923809Y-74231428D01*
X153114285Y-74136190D01*
X153209523Y-74040952D01*
X153304761Y-73850476D01*
X153304761Y-73469523D01*
X153209523Y-73279047D01*
X153114285Y-73183809D01*
X152923809Y-73088571D01*
X152542857Y-73088571D01*
X152352380Y-73183809D01*
X152257142Y-73279047D01*
X152161904Y-73469523D01*
X151304761Y-87026666D02*
X151304761Y-85693333D01*
X153304761Y-86550476D01*
X151304761Y-98679047D02*
X151304761Y-99060000D01*
X151400000Y-99250476D01*
X151495238Y-99345714D01*
X151780952Y-99536190D01*
X152161904Y-99631428D01*
X152923809Y-99631428D01*
X153114285Y-99536190D01*
X153209523Y-99440952D01*
X153304761Y-99250476D01*
X153304761Y-98869523D01*
X153209523Y-98679047D01*
X153114285Y-98583809D01*
X152923809Y-98488571D01*
X152447619Y-98488571D01*
X152257142Y-98583809D01*
X152161904Y-98679047D01*
X152066666Y-98869523D01*
X152066666Y-99250476D01*
X152161904Y-99440952D01*
X152257142Y-99536190D01*
X152447619Y-99631428D01*
X151304761Y-111283809D02*
X151304761Y-112236190D01*
X152257142Y-112331428D01*
X152161904Y-112236190D01*
X152066666Y-112045714D01*
X152066666Y-111569523D01*
X152161904Y-111379047D01*
X152257142Y-111283809D01*
X152447619Y-111188571D01*
X152923809Y-111188571D01*
X153114285Y-111283809D01*
X153209523Y-111379047D01*
X153304761Y-111569523D01*
X153304761Y-112045714D01*
X153209523Y-112236190D01*
X153114285Y-112331428D01*
X150240952Y-121491428D02*
X150240952Y-122824761D01*
X149764761Y-120729523D02*
X149288571Y-122158095D01*
X150526666Y-122158095D01*
X136493333Y-120824761D02*
X137731428Y-120824761D01*
X137064761Y-121586666D01*
X137350476Y-121586666D01*
X137540952Y-121681904D01*
X137636190Y-121777142D01*
X137731428Y-121967619D01*
X137731428Y-122443809D01*
X137636190Y-122634285D01*
X137540952Y-122729523D01*
X137350476Y-122824761D01*
X136779047Y-122824761D01*
X136588571Y-122729523D01*
X136493333Y-122634285D01*
X123888571Y-121015238D02*
X123983809Y-120920000D01*
X124174285Y-120824761D01*
X124650476Y-120824761D01*
X124840952Y-120920000D01*
X124936190Y-121015238D01*
X125031428Y-121205714D01*
X125031428Y-121396190D01*
X124936190Y-121681904D01*
X123793333Y-122824761D01*
X125031428Y-122824761D01*
X112331428Y-122824761D02*
X111188571Y-122824761D01*
X111760000Y-122824761D02*
X111760000Y-120824761D01*
X111569523Y-121110476D01*
X111379047Y-121300952D01*
X111188571Y-121396190D01*
D11*
X94067619Y-69477380D02*
X93591428Y-69477380D01*
X93591428Y-68477380D01*
X94400952Y-68953571D02*
X94734285Y-68953571D01*
X94877142Y-69477380D02*
X94400952Y-69477380D01*
X94400952Y-68477380D01*
X94877142Y-68477380D01*
X95305714Y-69477380D02*
X95305714Y-68477380D01*
X95543809Y-68477380D01*
X95686666Y-68525000D01*
X95781904Y-68620238D01*
X95829523Y-68715476D01*
X95877142Y-68905952D01*
X95877142Y-69048809D01*
X95829523Y-69239285D01*
X95781904Y-69334523D01*
X95686666Y-69429761D01*
X95543809Y-69477380D01*
X95305714Y-69477380D01*
X97639047Y-69477380D02*
X97305714Y-69001190D01*
X97067619Y-69477380D02*
X97067619Y-68477380D01*
X97448571Y-68477380D01*
X97543809Y-68525000D01*
X97591428Y-68572619D01*
X97639047Y-68667857D01*
X97639047Y-68810714D01*
X97591428Y-68905952D01*
X97543809Y-68953571D01*
X97448571Y-69001190D01*
X97067619Y-69001190D01*
X98067619Y-68953571D02*
X98400952Y-68953571D01*
X98543809Y-69477380D02*
X98067619Y-69477380D01*
X98067619Y-68477380D01*
X98543809Y-68477380D01*
X98924761Y-69429761D02*
X99067619Y-69477380D01*
X99305714Y-69477380D01*
X99400952Y-69429761D01*
X99448571Y-69382142D01*
X99496190Y-69286904D01*
X99496190Y-69191666D01*
X99448571Y-69096428D01*
X99400952Y-69048809D01*
X99305714Y-69001190D01*
X99115238Y-68953571D01*
X99020000Y-68905952D01*
X98972380Y-68858333D01*
X98924761Y-68763095D01*
X98924761Y-68667857D01*
X98972380Y-68572619D01*
X99020000Y-68525000D01*
X99115238Y-68477380D01*
X99353333Y-68477380D01*
X99496190Y-68525000D01*
X95520000Y-70175000D02*
X95424761Y-70127380D01*
X95281904Y-70127380D01*
X95139047Y-70175000D01*
X95043809Y-70270238D01*
X94996190Y-70365476D01*
X94948571Y-70555952D01*
X94948571Y-70698809D01*
X94996190Y-70889285D01*
X95043809Y-70984523D01*
X95139047Y-71079761D01*
X95281904Y-71127380D01*
X95377142Y-71127380D01*
X95520000Y-71079761D01*
X95567619Y-71032142D01*
X95567619Y-70698809D01*
X95377142Y-70698809D01*
X95996190Y-71127380D02*
X95996190Y-70127380D01*
X96377142Y-70127380D01*
X96472380Y-70175000D01*
X96520000Y-70222619D01*
X96567619Y-70317857D01*
X96567619Y-70460714D01*
X96520000Y-70555952D01*
X96472380Y-70603571D01*
X96377142Y-70651190D01*
X95996190Y-70651190D01*
X96996190Y-71127380D02*
X96996190Y-70127380D01*
X97662857Y-70127380D02*
X97853333Y-70127380D01*
X97948571Y-70175000D01*
X98043809Y-70270238D01*
X98091428Y-70460714D01*
X98091428Y-70794047D01*
X98043809Y-70984523D01*
X97948571Y-71079761D01*
X97853333Y-71127380D01*
X97662857Y-71127380D01*
X97567619Y-71079761D01*
X97472380Y-70984523D01*
X97424761Y-70794047D01*
X97424761Y-70460714D01*
X97472380Y-70270238D01*
X97567619Y-70175000D01*
X97662857Y-70127380D01*
X95877142Y-64397380D02*
X95400952Y-64397380D01*
X95400952Y-63397380D01*
X96210476Y-63873571D02*
X96543809Y-63873571D01*
X96686666Y-64397380D02*
X96210476Y-64397380D01*
X96210476Y-63397380D01*
X96686666Y-63397380D01*
X97115238Y-64397380D02*
X97115238Y-63397380D01*
X97353333Y-63397380D01*
X97496190Y-63445000D01*
X97591428Y-63540238D01*
X97639047Y-63635476D01*
X97686666Y-63825952D01*
X97686666Y-63968809D01*
X97639047Y-64159285D01*
X97591428Y-64254523D01*
X97496190Y-64349761D01*
X97353333Y-64397380D01*
X97115238Y-64397380D01*
X95115238Y-66047380D02*
X94781904Y-65571190D01*
X94543809Y-66047380D02*
X94543809Y-65047380D01*
X94924761Y-65047380D01*
X95020000Y-65095000D01*
X95067619Y-65142619D01*
X95115238Y-65237857D01*
X95115238Y-65380714D01*
X95067619Y-65475952D01*
X95020000Y-65523571D01*
X94924761Y-65571190D01*
X94543809Y-65571190D01*
X95543809Y-65523571D02*
X95877142Y-65523571D01*
X96020000Y-66047380D02*
X95543809Y-66047380D01*
X95543809Y-65047380D01*
X96020000Y-65047380D01*
X96400952Y-65999761D02*
X96543809Y-66047380D01*
X96781904Y-66047380D01*
X96877142Y-65999761D01*
X96924761Y-65952142D01*
X96972380Y-65856904D01*
X96972380Y-65761666D01*
X96924761Y-65666428D01*
X96877142Y-65618809D01*
X96781904Y-65571190D01*
X96591428Y-65523571D01*
X96496190Y-65475952D01*
X96448571Y-65428333D01*
X96400952Y-65333095D01*
X96400952Y-65237857D01*
X96448571Y-65142619D01*
X96496190Y-65095000D01*
X96591428Y-65047380D01*
X96829523Y-65047380D01*
X96972380Y-65095000D01*
X97162857Y-66142619D02*
X97924761Y-66142619D01*
X98639047Y-66047380D02*
X98162857Y-66047380D01*
X98162857Y-65047380D01*
X108966190Y-55808571D02*
X109299523Y-55808571D01*
X109442380Y-56332380D02*
X108966190Y-56332380D01*
X108966190Y-55332380D01*
X109442380Y-55332380D01*
X109870952Y-56332380D02*
X109870952Y-55332380D01*
X110442380Y-56332380D01*
X110442380Y-55332380D01*
X110680476Y-56427619D02*
X111442380Y-56427619D01*
X112156666Y-56332380D02*
X111680476Y-56332380D01*
X111680476Y-55332380D01*
X108847142Y-59618571D02*
X109180476Y-59618571D01*
X109323333Y-60142380D02*
X108847142Y-60142380D01*
X108847142Y-59142380D01*
X109323333Y-59142380D01*
X109751904Y-60142380D02*
X109751904Y-59142380D01*
X110323333Y-60142380D01*
X110323333Y-59142380D01*
X110561428Y-60237619D02*
X111323333Y-60237619D01*
X111561428Y-60142380D02*
X111561428Y-59142380D01*
X111561428Y-59618571D02*
X112132857Y-59618571D01*
X112132857Y-60142380D02*
X112132857Y-59142380D01*
D10*
X158575238Y-56086666D02*
X157146666Y-56086666D01*
X156860952Y-55991428D01*
X156670476Y-55800952D01*
X156575238Y-55515238D01*
X156575238Y-55324761D01*
X158575238Y-56753333D02*
X158575238Y-57896190D01*
X156575238Y-57324761D02*
X158575238Y-57324761D01*
X157146666Y-58467619D02*
X157146666Y-59420000D01*
X156575238Y-58277142D02*
X158575238Y-58943809D01*
X156575238Y-59610476D01*
X158480000Y-61324761D02*
X158575238Y-61134285D01*
X158575238Y-60848571D01*
X158480000Y-60562857D01*
X158289523Y-60372380D01*
X158099047Y-60277142D01*
X157718095Y-60181904D01*
X157432380Y-60181904D01*
X157051428Y-60277142D01*
X156860952Y-60372380D01*
X156670476Y-60562857D01*
X156575238Y-60848571D01*
X156575238Y-61039047D01*
X156670476Y-61324761D01*
X156765714Y-61420000D01*
X157432380Y-61420000D01*
X157432380Y-61039047D01*
D13*
%TO.C,R3*%
X105247221Y-56390000D02*
X105572779Y-56390000D01*
X105247221Y-55370000D02*
X105572779Y-55370000D01*
%TO.C,R2*%
X105247221Y-60200000D02*
X105572779Y-60200000D01*
X105247221Y-59180000D02*
X105572779Y-59180000D01*
%TO.C,E1*%
X147380000Y-73600000D02*
X144720000Y-73600000D01*
X147380000Y-109220000D02*
X147380000Y-73600000D01*
X144720000Y-109220000D02*
X144720000Y-73600000D01*
X147380000Y-109220000D02*
X144720000Y-109220000D01*
X147380000Y-110490000D02*
X147380000Y-111820000D01*
X147380000Y-111820000D02*
X146050000Y-111820000D01*
X121380000Y-111820000D02*
X120050000Y-111820000D01*
X121380000Y-110490000D02*
X121380000Y-111820000D01*
X121380000Y-73600000D02*
X118720000Y-73600000D01*
X118720000Y-109220000D02*
X118720000Y-73600000D01*
X121380000Y-109220000D02*
X118720000Y-109220000D01*
X121380000Y-109220000D02*
X121380000Y-73600000D01*
X149550000Y-117990000D02*
X116550000Y-117990000D01*
X116550000Y-117990000D02*
X116550000Y-63290000D01*
X116550000Y-63290000D02*
X149550000Y-63290000D01*
X149550000Y-117990000D02*
X149550000Y-63290000D01*
X136850000Y-63290000D02*
X136850000Y-67790000D01*
X136850000Y-67790000D02*
X128350000Y-67790000D01*
X128350000Y-67790000D02*
X128350000Y-63290000D01*
%TO.C,J13*%
X165190000Y-86400000D02*
X165190000Y-91460000D01*
X165190000Y-91460000D02*
X153470000Y-91460000D01*
X153470000Y-91460000D02*
X153470000Y-90040000D01*
X153470000Y-90040000D02*
X157970000Y-90040000D01*
X165190000Y-86400000D02*
X165190000Y-81340000D01*
X165190000Y-81340000D02*
X153470000Y-81340000D01*
X153470000Y-81340000D02*
X153470000Y-82760000D01*
X153470000Y-82760000D02*
X157970000Y-82760000D01*
X159080000Y-89150000D02*
X164580000Y-89150000D01*
X164580000Y-89150000D02*
X164580000Y-88650000D01*
X164580000Y-88650000D02*
X159080000Y-88650000D01*
X159080000Y-88650000D02*
X159080000Y-89150000D01*
X159080000Y-86650000D02*
X164580000Y-86650000D01*
X164580000Y-86650000D02*
X164580000Y-86150000D01*
X164580000Y-86150000D02*
X159080000Y-86150000D01*
X159080000Y-86150000D02*
X159080000Y-86650000D01*
X159080000Y-84150000D02*
X164580000Y-84150000D01*
X164580000Y-84150000D02*
X164580000Y-83650000D01*
X164580000Y-83650000D02*
X159080000Y-83650000D01*
X159080000Y-83650000D02*
X159080000Y-84150000D01*
X155980000Y-88900000D02*
X155380000Y-89200000D01*
X155380000Y-89200000D02*
X155380000Y-88600000D01*
X155380000Y-88600000D02*
X155980000Y-88900000D01*
%TO.C,J12*%
X137120000Y-135980000D02*
X132060000Y-135980000D01*
X132060000Y-135980000D02*
X132060000Y-124260000D01*
X132060000Y-124260000D02*
X133480000Y-124260000D01*
X133480000Y-124260000D02*
X133480000Y-128760000D01*
X137120000Y-135980000D02*
X142180000Y-135980000D01*
X142180000Y-135980000D02*
X142180000Y-124260000D01*
X142180000Y-124260000D02*
X140760000Y-124260000D01*
X140760000Y-124260000D02*
X140760000Y-128760000D01*
X134370000Y-129870000D02*
X134370000Y-135370000D01*
X134370000Y-135370000D02*
X134870000Y-135370000D01*
X134870000Y-135370000D02*
X134870000Y-129870000D01*
X134870000Y-129870000D02*
X134370000Y-129870000D01*
X136870000Y-129870000D02*
X136870000Y-135370000D01*
X136870000Y-135370000D02*
X137370000Y-135370000D01*
X137370000Y-135370000D02*
X137370000Y-129870000D01*
X137370000Y-129870000D02*
X136870000Y-129870000D01*
X139370000Y-129870000D02*
X139370000Y-135370000D01*
X139370000Y-135370000D02*
X139870000Y-135370000D01*
X139870000Y-135370000D02*
X139870000Y-129870000D01*
X139870000Y-129870000D02*
X139370000Y-129870000D01*
X134620000Y-126770000D02*
X134320000Y-126170000D01*
X134320000Y-126170000D02*
X134920000Y-126170000D01*
X134920000Y-126170000D02*
X134620000Y-126770000D01*
%TO.C,J11*%
X165190000Y-73700000D02*
X165190000Y-78760000D01*
X165190000Y-78760000D02*
X153470000Y-78760000D01*
X153470000Y-78760000D02*
X153470000Y-77340000D01*
X153470000Y-77340000D02*
X157970000Y-77340000D01*
X165190000Y-73700000D02*
X165190000Y-68640000D01*
X165190000Y-68640000D02*
X153470000Y-68640000D01*
X153470000Y-68640000D02*
X153470000Y-70060000D01*
X153470000Y-70060000D02*
X157970000Y-70060000D01*
X159080000Y-76450000D02*
X164580000Y-76450000D01*
X164580000Y-76450000D02*
X164580000Y-75950000D01*
X164580000Y-75950000D02*
X159080000Y-75950000D01*
X159080000Y-75950000D02*
X159080000Y-76450000D01*
X159080000Y-73950000D02*
X164580000Y-73950000D01*
X164580000Y-73950000D02*
X164580000Y-73450000D01*
X164580000Y-73450000D02*
X159080000Y-73450000D01*
X159080000Y-73450000D02*
X159080000Y-73950000D01*
X159080000Y-71450000D02*
X164580000Y-71450000D01*
X164580000Y-71450000D02*
X164580000Y-70950000D01*
X164580000Y-70950000D02*
X159080000Y-70950000D01*
X159080000Y-70950000D02*
X159080000Y-71450000D01*
X155980000Y-76200000D02*
X155380000Y-76500000D01*
X155380000Y-76500000D02*
X155380000Y-75900000D01*
X155380000Y-75900000D02*
X155980000Y-76200000D01*
%TO.C,J10*%
X111720000Y-135980000D02*
X106660000Y-135980000D01*
X106660000Y-135980000D02*
X106660000Y-124260000D01*
X106660000Y-124260000D02*
X108080000Y-124260000D01*
X108080000Y-124260000D02*
X108080000Y-128760000D01*
X111720000Y-135980000D02*
X116780000Y-135980000D01*
X116780000Y-135980000D02*
X116780000Y-124260000D01*
X116780000Y-124260000D02*
X115360000Y-124260000D01*
X115360000Y-124260000D02*
X115360000Y-128760000D01*
X108970000Y-129870000D02*
X108970000Y-135370000D01*
X108970000Y-135370000D02*
X109470000Y-135370000D01*
X109470000Y-135370000D02*
X109470000Y-129870000D01*
X109470000Y-129870000D02*
X108970000Y-129870000D01*
X111470000Y-129870000D02*
X111470000Y-135370000D01*
X111470000Y-135370000D02*
X111970000Y-135370000D01*
X111970000Y-135370000D02*
X111970000Y-129870000D01*
X111970000Y-129870000D02*
X111470000Y-129870000D01*
X113970000Y-129870000D02*
X113970000Y-135370000D01*
X113970000Y-135370000D02*
X114470000Y-135370000D01*
X114470000Y-135370000D02*
X114470000Y-129870000D01*
X114470000Y-129870000D02*
X113970000Y-129870000D01*
X109220000Y-126770000D02*
X108920000Y-126170000D01*
X108920000Y-126170000D02*
X109520000Y-126170000D01*
X109520000Y-126170000D02*
X109220000Y-126770000D01*
%TO.C,J9*%
X124420000Y-135980000D02*
X119360000Y-135980000D01*
X119360000Y-135980000D02*
X119360000Y-124260000D01*
X119360000Y-124260000D02*
X120780000Y-124260000D01*
X120780000Y-124260000D02*
X120780000Y-128760000D01*
X124420000Y-135980000D02*
X129480000Y-135980000D01*
X129480000Y-135980000D02*
X129480000Y-124260000D01*
X129480000Y-124260000D02*
X128060000Y-124260000D01*
X128060000Y-124260000D02*
X128060000Y-128760000D01*
X121670000Y-129870000D02*
X121670000Y-135370000D01*
X121670000Y-135370000D02*
X122170000Y-135370000D01*
X122170000Y-135370000D02*
X122170000Y-129870000D01*
X122170000Y-129870000D02*
X121670000Y-129870000D01*
X124170000Y-129870000D02*
X124170000Y-135370000D01*
X124170000Y-135370000D02*
X124670000Y-135370000D01*
X124670000Y-135370000D02*
X124670000Y-129870000D01*
X124670000Y-129870000D02*
X124170000Y-129870000D01*
X126670000Y-129870000D02*
X126670000Y-135370000D01*
X126670000Y-135370000D02*
X127170000Y-135370000D01*
X127170000Y-135370000D02*
X127170000Y-129870000D01*
X127170000Y-129870000D02*
X126670000Y-129870000D01*
X121920000Y-126770000D02*
X121620000Y-126170000D01*
X121620000Y-126170000D02*
X122220000Y-126170000D01*
X122220000Y-126170000D02*
X121920000Y-126770000D01*
%TO.C,J8*%
X149820000Y-135980000D02*
X144760000Y-135980000D01*
X144760000Y-135980000D02*
X144760000Y-124260000D01*
X144760000Y-124260000D02*
X146180000Y-124260000D01*
X146180000Y-124260000D02*
X146180000Y-128760000D01*
X149820000Y-135980000D02*
X154880000Y-135980000D01*
X154880000Y-135980000D02*
X154880000Y-124260000D01*
X154880000Y-124260000D02*
X153460000Y-124260000D01*
X153460000Y-124260000D02*
X153460000Y-128760000D01*
X147070000Y-129870000D02*
X147070000Y-135370000D01*
X147070000Y-135370000D02*
X147570000Y-135370000D01*
X147570000Y-135370000D02*
X147570000Y-129870000D01*
X147570000Y-129870000D02*
X147070000Y-129870000D01*
X149570000Y-129870000D02*
X149570000Y-135370000D01*
X149570000Y-135370000D02*
X150070000Y-135370000D01*
X150070000Y-135370000D02*
X150070000Y-129870000D01*
X150070000Y-129870000D02*
X149570000Y-129870000D01*
X152070000Y-129870000D02*
X152070000Y-135370000D01*
X152070000Y-135370000D02*
X152570000Y-135370000D01*
X152570000Y-135370000D02*
X152570000Y-129870000D01*
X152570000Y-129870000D02*
X152070000Y-129870000D01*
X147320000Y-126770000D02*
X147020000Y-126170000D01*
X147020000Y-126170000D02*
X147620000Y-126170000D01*
X147620000Y-126170000D02*
X147320000Y-126770000D01*
%TO.C,J7*%
X165190000Y-99100000D02*
X165190000Y-104160000D01*
X165190000Y-104160000D02*
X153470000Y-104160000D01*
X153470000Y-104160000D02*
X153470000Y-102740000D01*
X153470000Y-102740000D02*
X157970000Y-102740000D01*
X165190000Y-99100000D02*
X165190000Y-94040000D01*
X165190000Y-94040000D02*
X153470000Y-94040000D01*
X153470000Y-94040000D02*
X153470000Y-95460000D01*
X153470000Y-95460000D02*
X157970000Y-95460000D01*
X159080000Y-101850000D02*
X164580000Y-101850000D01*
X164580000Y-101850000D02*
X164580000Y-101350000D01*
X164580000Y-101350000D02*
X159080000Y-101350000D01*
X159080000Y-101350000D02*
X159080000Y-101850000D01*
X159080000Y-99350000D02*
X164580000Y-99350000D01*
X164580000Y-99350000D02*
X164580000Y-98850000D01*
X164580000Y-98850000D02*
X159080000Y-98850000D01*
X159080000Y-98850000D02*
X159080000Y-99350000D01*
X159080000Y-96850000D02*
X164580000Y-96850000D01*
X164580000Y-96850000D02*
X164580000Y-96350000D01*
X164580000Y-96350000D02*
X159080000Y-96350000D01*
X159080000Y-96350000D02*
X159080000Y-96850000D01*
X155980000Y-101600000D02*
X155380000Y-101900000D01*
X155380000Y-101900000D02*
X155380000Y-101300000D01*
X155380000Y-101300000D02*
X155980000Y-101600000D01*
%TO.C,J6*%
X165190000Y-111800000D02*
X165190000Y-116860000D01*
X165190000Y-116860000D02*
X153470000Y-116860000D01*
X153470000Y-116860000D02*
X153470000Y-115440000D01*
X153470000Y-115440000D02*
X157970000Y-115440000D01*
X165190000Y-111800000D02*
X165190000Y-106740000D01*
X165190000Y-106740000D02*
X153470000Y-106740000D01*
X153470000Y-106740000D02*
X153470000Y-108160000D01*
X153470000Y-108160000D02*
X157970000Y-108160000D01*
X159080000Y-114550000D02*
X164580000Y-114550000D01*
X164580000Y-114550000D02*
X164580000Y-114050000D01*
X164580000Y-114050000D02*
X159080000Y-114050000D01*
X159080000Y-114050000D02*
X159080000Y-114550000D01*
X159080000Y-112050000D02*
X164580000Y-112050000D01*
X164580000Y-112050000D02*
X164580000Y-111550000D01*
X164580000Y-111550000D02*
X159080000Y-111550000D01*
X159080000Y-111550000D02*
X159080000Y-112050000D01*
X159080000Y-109550000D02*
X164580000Y-109550000D01*
X164580000Y-109550000D02*
X164580000Y-109050000D01*
X164580000Y-109050000D02*
X159080000Y-109050000D01*
X159080000Y-109050000D02*
X159080000Y-109550000D01*
X155980000Y-114300000D02*
X155380000Y-114600000D01*
X155380000Y-114600000D02*
X155380000Y-114000000D01*
X155380000Y-114000000D02*
X155980000Y-114300000D01*
%TO.C,R1*%
X101437221Y-62990000D02*
X101762779Y-62990000D01*
X101437221Y-64010000D02*
X101762779Y-64010000D01*
%TO.C,JP5*%
X100200000Y-66340000D02*
X100200000Y-65740000D01*
X102300000Y-67040000D02*
X100900000Y-67040000D01*
X103000000Y-65740000D02*
X103000000Y-66340000D01*
X100900000Y-65040000D02*
X102300000Y-65040000D01*
X100200000Y-65740000D02*
G75*
G02*
X100900000Y-65040000I700000J0D01*
G01*
X100900000Y-67040000D02*
G75*
G02*
X100200000Y-66340000I0J700000D01*
G01*
X103000000Y-66340000D02*
G75*
G02*
X102300000Y-67040000I-700000J0D01*
G01*
X102300000Y-65040000D02*
G75*
G02*
X103000000Y-65740000I0J-700000D01*
G01*
%TO.C,JP4*%
X103000000Y-69550000D02*
X103000000Y-70150000D01*
X100900000Y-68850000D02*
X102300000Y-68850000D01*
X100200000Y-70150000D02*
X100200000Y-69550000D01*
X102300000Y-70850000D02*
X100900000Y-70850000D01*
X103000000Y-70150000D02*
G75*
G02*
X102300000Y-70850000I-700000J0D01*
G01*
X102300000Y-68850000D02*
G75*
G02*
X103000000Y-69550000I0J-700000D01*
G01*
X100200000Y-69550000D02*
G75*
G02*
X100900000Y-68850000I700000J0D01*
G01*
X100900000Y-70850000D02*
G75*
G02*
X100200000Y-70150000I0J700000D01*
G01*
%TO.C,JP3*%
X121430000Y-60660000D02*
X121430000Y-61260000D01*
X119330000Y-59960000D02*
X120730000Y-59960000D01*
X118630000Y-61260000D02*
X118630000Y-60660000D01*
X120730000Y-61960000D02*
X119330000Y-61960000D01*
X121430000Y-61260000D02*
G75*
G02*
X120730000Y-61960000I-700000J0D01*
G01*
X120730000Y-59960000D02*
G75*
G02*
X121430000Y-60660000I0J-700000D01*
G01*
X118630000Y-60660000D02*
G75*
G02*
X119330000Y-59960000I700000J0D01*
G01*
X119330000Y-61960000D02*
G75*
G02*
X118630000Y-61260000I0J700000D01*
G01*
%TO.C,JP2*%
X103000000Y-55580000D02*
X103000000Y-56180000D01*
X100900000Y-54880000D02*
X102300000Y-54880000D01*
X100200000Y-56180000D02*
X100200000Y-55580000D01*
X102300000Y-56880000D02*
X100900000Y-56880000D01*
X103000000Y-56180000D02*
G75*
G02*
X102300000Y-56880000I-700000J0D01*
G01*
X102300000Y-54880000D02*
G75*
G02*
X103000000Y-55580000I0J-700000D01*
G01*
X100200000Y-55580000D02*
G75*
G02*
X100900000Y-54880000I700000J0D01*
G01*
X100900000Y-56880000D02*
G75*
G02*
X100200000Y-56180000I0J700000D01*
G01*
%TO.C,JP1*%
X103000000Y-59390000D02*
X103000000Y-59990000D01*
X100900000Y-58690000D02*
X102300000Y-58690000D01*
X100200000Y-59990000D02*
X100200000Y-59390000D01*
X102300000Y-60690000D02*
X100900000Y-60690000D01*
X103000000Y-59990000D02*
G75*
G02*
X102300000Y-60690000I-700000J0D01*
G01*
X102300000Y-58690000D02*
G75*
G02*
X103000000Y-59390000I0J-700000D01*
G01*
X100200000Y-59390000D02*
G75*
G02*
X100900000Y-58690000I700000J0D01*
G01*
X100900000Y-60690000D02*
G75*
G02*
X100200000Y-59990000I0J700000D01*
G01*
%TO.C,J5*%
X104200000Y-74870000D02*
X101540000Y-74870000D01*
X104200000Y-92710000D02*
X104200000Y-74870000D01*
X101540000Y-92710000D02*
X101540000Y-74870000D01*
X104200000Y-92710000D02*
X101540000Y-92710000D01*
X104200000Y-93980000D02*
X104200000Y-95310000D01*
X104200000Y-95310000D02*
X102870000Y-95310000D01*
%TO.C,J4*%
X100390000Y-105350000D02*
X97730000Y-105350000D01*
X100390000Y-113030000D02*
X100390000Y-105350000D01*
X97730000Y-113030000D02*
X97730000Y-105350000D01*
X100390000Y-113030000D02*
X97730000Y-113030000D01*
X100390000Y-114300000D02*
X100390000Y-115630000D01*
X100390000Y-115630000D02*
X99060000Y-115630000D01*
%TO.C,J3*%
X113090000Y-100270000D02*
X110430000Y-100270000D01*
X113090000Y-113030000D02*
X113090000Y-100270000D01*
X110430000Y-113030000D02*
X110430000Y-100270000D01*
X113090000Y-113030000D02*
X110430000Y-113030000D01*
X113090000Y-114300000D02*
X113090000Y-115630000D01*
X113090000Y-115630000D02*
X111760000Y-115630000D01*
%TO.C,J1*%
X154800000Y-55185000D02*
X153977530Y-55185000D01*
X152092470Y-55185000D02*
X151270000Y-55185000D01*
X153362470Y-55185000D02*
X152707530Y-55185000D01*
X154800000Y-60200000D02*
X154800000Y-55185000D01*
X151270000Y-61655000D02*
X151270000Y-55185000D01*
X154800000Y-60200000D02*
X154233471Y-60200000D01*
X153106529Y-60200000D02*
X152963471Y-60200000D01*
X152910000Y-60253471D02*
X152910000Y-60396529D01*
X152910000Y-61523471D02*
X152910000Y-61655000D01*
X152910000Y-61655000D02*
X152707530Y-61655000D01*
X152092470Y-61655000D02*
X151270000Y-61655000D01*
X154800000Y-60960000D02*
X154800000Y-61720000D01*
X154800000Y-61720000D02*
X153670000Y-61720000D01*
%TO.C,E1*%
D11*
X132578571Y-102375714D02*
X132578571Y-102042380D01*
X133102380Y-101899523D02*
X133102380Y-102375714D01*
X132102380Y-102375714D01*
X132102380Y-101899523D01*
X133054761Y-101518571D02*
X133102380Y-101375714D01*
X133102380Y-101137619D01*
X133054761Y-101042380D01*
X133007142Y-100994761D01*
X132911904Y-100947142D01*
X132816666Y-100947142D01*
X132721428Y-100994761D01*
X132673809Y-101042380D01*
X132626190Y-101137619D01*
X132578571Y-101328095D01*
X132530952Y-101423333D01*
X132483333Y-101470952D01*
X132388095Y-101518571D01*
X132292857Y-101518571D01*
X132197619Y-101470952D01*
X132150000Y-101423333D01*
X132102380Y-101328095D01*
X132102380Y-101090000D01*
X132150000Y-100947142D01*
X133102380Y-100518571D02*
X132102380Y-100518571D01*
X132102380Y-100137619D01*
X132150000Y-100042380D01*
X132197619Y-99994761D01*
X132292857Y-99947142D01*
X132435714Y-99947142D01*
X132530952Y-99994761D01*
X132578571Y-100042380D01*
X132626190Y-100137619D01*
X132626190Y-100518571D01*
X132102380Y-99613809D02*
X132102380Y-98994761D01*
X132483333Y-99328095D01*
X132483333Y-99185238D01*
X132530952Y-99090000D01*
X132578571Y-99042380D01*
X132673809Y-98994761D01*
X132911904Y-98994761D01*
X133007142Y-99042380D01*
X133054761Y-99090000D01*
X133102380Y-99185238D01*
X133102380Y-99470952D01*
X133054761Y-99566190D01*
X133007142Y-99613809D01*
X132197619Y-98613809D02*
X132150000Y-98566190D01*
X132102380Y-98470952D01*
X132102380Y-98232857D01*
X132150000Y-98137619D01*
X132197619Y-98090000D01*
X132292857Y-98042380D01*
X132388095Y-98042380D01*
X132530952Y-98090000D01*
X133102380Y-98661428D01*
X133102380Y-98042380D01*
X132721428Y-97613809D02*
X132721428Y-96851904D01*
X132102380Y-96470952D02*
X133102380Y-96232857D01*
X132388095Y-96042380D01*
X133102380Y-95851904D01*
X132102380Y-95613809D01*
X133102380Y-94661428D02*
X132626190Y-94994761D01*
X133102380Y-95232857D02*
X132102380Y-95232857D01*
X132102380Y-94851904D01*
X132150000Y-94756666D01*
X132197619Y-94709047D01*
X132292857Y-94661428D01*
X132435714Y-94661428D01*
X132530952Y-94709047D01*
X132578571Y-94756666D01*
X132626190Y-94851904D01*
X132626190Y-95232857D01*
X132102380Y-94042380D02*
X132102380Y-93851904D01*
X132150000Y-93756666D01*
X132245238Y-93661428D01*
X132435714Y-93613809D01*
X132769047Y-93613809D01*
X132959523Y-93661428D01*
X133054761Y-93756666D01*
X133102380Y-93851904D01*
X133102380Y-94042380D01*
X133054761Y-94137619D01*
X132959523Y-94232857D01*
X132769047Y-94280476D01*
X132435714Y-94280476D01*
X132245238Y-94232857D01*
X132150000Y-94137619D01*
X132102380Y-94042380D01*
X132102380Y-92994761D02*
X132102380Y-92804285D01*
X132150000Y-92709047D01*
X132245238Y-92613809D01*
X132435714Y-92566190D01*
X132769047Y-92566190D01*
X132959523Y-92613809D01*
X133054761Y-92709047D01*
X133102380Y-92804285D01*
X133102380Y-92994761D01*
X133054761Y-93090000D01*
X132959523Y-93185238D01*
X132769047Y-93232857D01*
X132435714Y-93232857D01*
X132245238Y-93185238D01*
X132150000Y-93090000D01*
X132102380Y-92994761D01*
X133102380Y-92137619D02*
X132102380Y-92137619D01*
X132816666Y-91804285D01*
X132102380Y-91470952D01*
X133102380Y-91470952D01*
X133102380Y-90232857D02*
X132102380Y-90232857D01*
X133102380Y-89661428D01*
X132102380Y-89661428D01*
X133102380Y-89042380D02*
X133054761Y-89137619D01*
X133007142Y-89185238D01*
X132911904Y-89232857D01*
X132626190Y-89232857D01*
X132530952Y-89185238D01*
X132483333Y-89137619D01*
X132435714Y-89042380D01*
X132435714Y-88899523D01*
X132483333Y-88804285D01*
X132530952Y-88756666D01*
X132626190Y-88709047D01*
X132911904Y-88709047D01*
X133007142Y-88756666D01*
X133054761Y-88804285D01*
X133102380Y-88899523D01*
X133102380Y-89042380D01*
X133102380Y-87851904D02*
X132102380Y-87851904D01*
X133054761Y-87851904D02*
X133102380Y-87947142D01*
X133102380Y-88137619D01*
X133054761Y-88232857D01*
X133007142Y-88280476D01*
X132911904Y-88328095D01*
X132626190Y-88328095D01*
X132530952Y-88280476D01*
X132483333Y-88232857D01*
X132435714Y-88137619D01*
X132435714Y-87947142D01*
X132483333Y-87851904D01*
X133054761Y-86994761D02*
X133102380Y-87090000D01*
X133102380Y-87280476D01*
X133054761Y-87375714D01*
X132959523Y-87423333D01*
X132578571Y-87423333D01*
X132483333Y-87375714D01*
X132435714Y-87280476D01*
X132435714Y-87090000D01*
X132483333Y-86994761D01*
X132578571Y-86947142D01*
X132673809Y-86947142D01*
X132769047Y-87423333D01*
X133102380Y-86518571D02*
X132102380Y-86518571D01*
X132816666Y-86185238D01*
X132102380Y-85851904D01*
X133102380Y-85851904D01*
X133007142Y-84804285D02*
X133054761Y-84851904D01*
X133102380Y-84994761D01*
X133102380Y-85090000D01*
X133054761Y-85232857D01*
X132959523Y-85328095D01*
X132864285Y-85375714D01*
X132673809Y-85423333D01*
X132530952Y-85423333D01*
X132340476Y-85375714D01*
X132245238Y-85328095D01*
X132150000Y-85232857D01*
X132102380Y-85090000D01*
X132102380Y-84994761D01*
X132150000Y-84851904D01*
X132197619Y-84804285D01*
X132102380Y-84375714D02*
X132911904Y-84375714D01*
X133007142Y-84328095D01*
X133054761Y-84280476D01*
X133102380Y-84185238D01*
X133102380Y-83994761D01*
X133054761Y-83899523D01*
X133007142Y-83851904D01*
X132911904Y-83804285D01*
X132102380Y-83804285D01*
%TD*%
M02*
