%TF.GenerationSoftware,KiCad,Pcbnew,5.1.6*%
%TF.CreationDate,2020-08-26T17:45:01+02:00*%
%TF.ProjectId,PAF_controller,5041465f-636f-46e7-9472-6f6c6c65722e,rev?*%
%TF.SameCoordinates,Original*%
%TF.FileFunction,Copper,L2,Bot*%
%TF.FilePolarity,Positive*%
%FSLAX46Y46*%
G04 Gerber Fmt 4.6, Leading zero omitted, Abs format (unit mm)*
G04 Created by KiCad (PCBNEW 5.1.6) date 2020-08-26 17:45:01*
%MOMM*%
%LPD*%
G01*
G04 APERTURE LIST*
%TA.AperFunction,ComponentPad*%
%ADD10O,1.700000X1.700000*%
%TD*%
%TA.AperFunction,ComponentPad*%
%ADD11C,1.700000*%
%TD*%
%TA.AperFunction,ComponentPad*%
%ADD12R,1.700000X1.700000*%
%TD*%
%TA.AperFunction,ComponentPad*%
%ADD13O,1.950000X1.700000*%
%TD*%
%TA.AperFunction,ComponentPad*%
%ADD14O,1.700000X1.950000*%
%TD*%
%TA.AperFunction,ComponentPad*%
%ADD15O,1.000000X1.000000*%
%TD*%
%TA.AperFunction,ComponentPad*%
%ADD16R,1.000000X1.000000*%
%TD*%
%TA.AperFunction,ViaPad*%
%ADD17C,0.800000*%
%TD*%
%TA.AperFunction,Conductor*%
%ADD18C,0.500000*%
%TD*%
%TA.AperFunction,Conductor*%
%ADD19C,0.300000*%
%TD*%
%TA.AperFunction,Conductor*%
%ADD20C,0.254000*%
%TD*%
G04 APERTURE END LIST*
D10*
%TO.P,E1,25*%
%TO.N,SPI_MISO*%
X120050000Y-97790000D03*
%TO.P,E1,27*%
%TO.N,Net-(E1-Pad27)*%
X120050000Y-102870000D03*
%TO.P,E1,21*%
%TO.N,SCREEN_RESET*%
X120050000Y-87630000D03*
%TO.P,E1,17*%
%TO.N,GND*%
X120050000Y-77470000D03*
%TO.P,E1,19*%
%TO.N,Net-(E1-Pad19)*%
X120050000Y-82550000D03*
%TO.P,E1,26*%
%TO.N,I2C_SDA*%
X120050000Y-100330000D03*
%TO.P,E1,18*%
%TO.N,Debug_TDO*%
X120050000Y-80010000D03*
%TO.P,E1,28*%
%TO.N,Net-(E1-Pad28)*%
X120050000Y-105410000D03*
D11*
%TO.P,E1,30*%
%TO.N,SPI_MOSI*%
X120050000Y-110490000D03*
D10*
%TO.P,E1,22*%
%TO.N,Net-(E1-Pad22)*%
X120050000Y-90170000D03*
%TO.P,E1,23*%
%TO.N,SPI_CS*%
X120050000Y-92710000D03*
%TO.P,E1,20*%
%TO.N,Net-(E1-Pad20)*%
X120050000Y-85090000D03*
%TO.P,E1,24*%
%TO.N,SPI_CLK*%
X120050000Y-95250000D03*
%TO.P,E1,29*%
%TO.N,I2C_SCL*%
X120050000Y-107950000D03*
%TO.P,E1,16*%
%TO.N,LED_PORT_PWR*%
X120050000Y-74930000D03*
D12*
%TO.P,E1,1*%
%TO.N,Net-(E1-Pad1)*%
X146050000Y-110490000D03*
D10*
%TO.P,E1,2*%
%TO.N,LED_PWM_4*%
X146050000Y-107950000D03*
%TO.P,E1,3*%
%TO.N,LED_PWM_3*%
X146050000Y-105410000D03*
%TO.P,E1,4*%
%TO.N,LED_PWM_2*%
X146050000Y-102870000D03*
%TO.P,E1,5*%
%TO.N,LED_PWM_1*%
X146050000Y-100330000D03*
%TO.P,E1,6*%
%TO.N,LED_PWM_5*%
X146050000Y-97790000D03*
%TO.P,E1,7*%
%TO.N,LED_PWM_6*%
X146050000Y-95250000D03*
%TO.P,E1,8*%
%TO.N,Net-(E1-Pad8)*%
X146050000Y-92710000D03*
%TO.P,E1,9*%
%TO.N,LED_PWM_7*%
X146050000Y-90170000D03*
%TO.P,E1,10*%
%TO.N,LED_PWM_8*%
X146050000Y-87630000D03*
%TO.P,E1,11*%
%TO.N,Debug_TMS*%
X146050000Y-85090000D03*
%TO.P,E1,12*%
%TO.N,Debug_TDI*%
X146050000Y-82550000D03*
%TO.P,E1,13*%
%TO.N,Debug_TCK*%
X146050000Y-80010000D03*
%TO.P,E1,14*%
%TO.N,GND*%
X146050000Y-77470000D03*
%TO.P,E1,15*%
%TO.N,Net-(E1-Pad15)*%
X146050000Y-74930000D03*
%TD*%
D13*
%TO.P,J13,3*%
%TO.N,LED_PWM_7*%
X157480000Y-83900000D03*
%TO.P,J13,2*%
%TO.N,LED_PORT_PWR*%
X157480000Y-86400000D03*
%TO.P,J13,1*%
%TO.N,GND*%
%TA.AperFunction,ComponentPad*%
G36*
G01*
X158205000Y-89750000D02*
X156755000Y-89750000D01*
G75*
G02*
X156505000Y-89500000I0J250000D01*
G01*
X156505000Y-88300000D01*
G75*
G02*
X156755000Y-88050000I250000J0D01*
G01*
X158205000Y-88050000D01*
G75*
G02*
X158455000Y-88300000I0J-250000D01*
G01*
X158455000Y-89500000D01*
G75*
G02*
X158205000Y-89750000I-250000J0D01*
G01*
G37*
%TD.AperFunction*%
%TD*%
D14*
%TO.P,J12,3*%
%TO.N,LED_PWM_3*%
X139620000Y-128270000D03*
%TO.P,J12,2*%
%TO.N,LED_PORT_PWR*%
X137120000Y-128270000D03*
%TO.P,J12,1*%
%TO.N,GND*%
%TA.AperFunction,ComponentPad*%
G36*
G01*
X133770000Y-128995000D02*
X133770000Y-127545000D01*
G75*
G02*
X134020000Y-127295000I250000J0D01*
G01*
X135220000Y-127295000D01*
G75*
G02*
X135470000Y-127545000I0J-250000D01*
G01*
X135470000Y-128995000D01*
G75*
G02*
X135220000Y-129245000I-250000J0D01*
G01*
X134020000Y-129245000D01*
G75*
G02*
X133770000Y-128995000I0J250000D01*
G01*
G37*
%TD.AperFunction*%
%TD*%
D13*
%TO.P,J11,3*%
%TO.N,LED_PWM_8*%
X157480000Y-71200000D03*
%TO.P,J11,2*%
%TO.N,LED_PORT_PWR*%
X157480000Y-73700000D03*
%TO.P,J11,1*%
%TO.N,GND*%
%TA.AperFunction,ComponentPad*%
G36*
G01*
X158205000Y-77050000D02*
X156755000Y-77050000D01*
G75*
G02*
X156505000Y-76800000I0J250000D01*
G01*
X156505000Y-75600000D01*
G75*
G02*
X156755000Y-75350000I250000J0D01*
G01*
X158205000Y-75350000D01*
G75*
G02*
X158455000Y-75600000I0J-250000D01*
G01*
X158455000Y-76800000D01*
G75*
G02*
X158205000Y-77050000I-250000J0D01*
G01*
G37*
%TD.AperFunction*%
%TD*%
D14*
%TO.P,J10,3*%
%TO.N,LED_PWM_1*%
X114220000Y-128270000D03*
%TO.P,J10,2*%
%TO.N,LED_PORT_PWR*%
X111720000Y-128270000D03*
%TO.P,J10,1*%
%TO.N,GND*%
%TA.AperFunction,ComponentPad*%
G36*
G01*
X108370000Y-128995000D02*
X108370000Y-127545000D01*
G75*
G02*
X108620000Y-127295000I250000J0D01*
G01*
X109820000Y-127295000D01*
G75*
G02*
X110070000Y-127545000I0J-250000D01*
G01*
X110070000Y-128995000D01*
G75*
G02*
X109820000Y-129245000I-250000J0D01*
G01*
X108620000Y-129245000D01*
G75*
G02*
X108370000Y-128995000I0J250000D01*
G01*
G37*
%TD.AperFunction*%
%TD*%
%TO.P,J9,3*%
%TO.N,LED_PWM_2*%
X126920000Y-128270000D03*
%TO.P,J9,2*%
%TO.N,LED_PORT_PWR*%
X124420000Y-128270000D03*
%TO.P,J9,1*%
%TO.N,GND*%
%TA.AperFunction,ComponentPad*%
G36*
G01*
X121070000Y-128995000D02*
X121070000Y-127545000D01*
G75*
G02*
X121320000Y-127295000I250000J0D01*
G01*
X122520000Y-127295000D01*
G75*
G02*
X122770000Y-127545000I0J-250000D01*
G01*
X122770000Y-128995000D01*
G75*
G02*
X122520000Y-129245000I-250000J0D01*
G01*
X121320000Y-129245000D01*
G75*
G02*
X121070000Y-128995000I0J250000D01*
G01*
G37*
%TD.AperFunction*%
%TD*%
%TO.P,J8,3*%
%TO.N,LED_PWM_4*%
X152320000Y-128270000D03*
%TO.P,J8,2*%
%TO.N,LED_PORT_PWR*%
X149820000Y-128270000D03*
%TO.P,J8,1*%
%TO.N,GND*%
%TA.AperFunction,ComponentPad*%
G36*
G01*
X146470000Y-128995000D02*
X146470000Y-127545000D01*
G75*
G02*
X146720000Y-127295000I250000J0D01*
G01*
X147920000Y-127295000D01*
G75*
G02*
X148170000Y-127545000I0J-250000D01*
G01*
X148170000Y-128995000D01*
G75*
G02*
X147920000Y-129245000I-250000J0D01*
G01*
X146720000Y-129245000D01*
G75*
G02*
X146470000Y-128995000I0J250000D01*
G01*
G37*
%TD.AperFunction*%
%TD*%
D13*
%TO.P,J7,3*%
%TO.N,LED_PWM_6*%
X157480000Y-96600000D03*
%TO.P,J7,2*%
%TO.N,LED_PORT_PWR*%
X157480000Y-99100000D03*
%TO.P,J7,1*%
%TO.N,GND*%
%TA.AperFunction,ComponentPad*%
G36*
G01*
X158205000Y-102450000D02*
X156755000Y-102450000D01*
G75*
G02*
X156505000Y-102200000I0J250000D01*
G01*
X156505000Y-101000000D01*
G75*
G02*
X156755000Y-100750000I250000J0D01*
G01*
X158205000Y-100750000D01*
G75*
G02*
X158455000Y-101000000I0J-250000D01*
G01*
X158455000Y-102200000D01*
G75*
G02*
X158205000Y-102450000I-250000J0D01*
G01*
G37*
%TD.AperFunction*%
%TD*%
%TO.P,J6,3*%
%TO.N,LED_PWM_5*%
X157480000Y-109300000D03*
%TO.P,J6,2*%
%TO.N,LED_PORT_PWR*%
X157480000Y-111800000D03*
%TO.P,J6,1*%
%TO.N,GND*%
%TA.AperFunction,ComponentPad*%
G36*
G01*
X158205000Y-115150000D02*
X156755000Y-115150000D01*
G75*
G02*
X156505000Y-114900000I0J250000D01*
G01*
X156505000Y-113700000D01*
G75*
G02*
X156755000Y-113450000I250000J0D01*
G01*
X158205000Y-113450000D01*
G75*
G02*
X158455000Y-113700000I0J-250000D01*
G01*
X158455000Y-114900000D01*
G75*
G02*
X158205000Y-115150000I-250000J0D01*
G01*
G37*
%TD.AperFunction*%
%TD*%
D10*
%TO.P,J5,8*%
%TO.N,OLED_RES*%
X102870000Y-76200000D03*
%TO.P,J5,7*%
%TO.N,Net-(J5-Pad7)*%
X102870000Y-78740000D03*
%TO.P,J5,6*%
%TO.N,Net-(J5-Pad6)*%
X102870000Y-81280000D03*
%TO.P,J5,5*%
%TO.N,I2C_SCL*%
X102870000Y-83820000D03*
%TO.P,J5,4*%
%TO.N,I2C_SDA*%
X102870000Y-86360000D03*
%TO.P,J5,3*%
%TO.N,Net-(J5-Pad3)*%
X102870000Y-88900000D03*
%TO.P,J5,2*%
%TO.N,GND*%
X102870000Y-91440000D03*
D12*
%TO.P,J5,1*%
%TO.N,LED_PORT_PWR*%
X102870000Y-93980000D03*
%TD*%
D10*
%TO.P,J4,4*%
%TO.N,GND*%
X99060000Y-106680000D03*
%TO.P,J4,3*%
%TO.N,LED_PORT_PWR*%
X99060000Y-109220000D03*
%TO.P,J4,2*%
%TO.N,I2C_SCL*%
X99060000Y-111760000D03*
D12*
%TO.P,J4,1*%
%TO.N,I2C_SDA*%
X99060000Y-114300000D03*
%TD*%
D10*
%TO.P,J3,6*%
%TO.N,GND*%
X111760000Y-101600000D03*
%TO.P,J3,5*%
%TO.N,LED_PORT_PWR*%
X111760000Y-104140000D03*
%TO.P,J3,4*%
%TO.N,SPI_CS*%
X111760000Y-106680000D03*
%TO.P,J3,3*%
%TO.N,SPI_CLK*%
X111760000Y-109220000D03*
%TO.P,J3,2*%
%TO.N,SPI_MISO*%
X111760000Y-111760000D03*
D12*
%TO.P,J3,1*%
%TO.N,SPI_MOSI*%
X111760000Y-114300000D03*
%TD*%
D10*
%TO.P,J2,20*%
%TO.N,GND*%
X119380000Y-54610000D03*
%TO.P,J2,19*%
%TO.N,Net-(J2-Pad19)*%
X119380000Y-57150000D03*
%TO.P,J2,18*%
%TO.N,GND*%
X121920000Y-54610000D03*
%TO.P,J2,17*%
%TO.N,Net-(J2-Pad17)*%
X121920000Y-57150000D03*
%TO.P,J2,16*%
%TO.N,GND*%
X124460000Y-54610000D03*
%TO.P,J2,15*%
%TO.N,RF_EN*%
X124460000Y-57150000D03*
%TO.P,J2,14*%
%TO.N,GND*%
X127000000Y-54610000D03*
%TO.P,J2,13*%
%TO.N,Debug_TDO*%
X127000000Y-57150000D03*
%TO.P,J2,12*%
%TO.N,GND*%
X129540000Y-54610000D03*
%TO.P,J2,11*%
%TO.N,Net-(J2-Pad11)*%
X129540000Y-57150000D03*
%TO.P,J2,10*%
%TO.N,GND*%
X132080000Y-54610000D03*
%TO.P,J2,9*%
%TO.N,Debug_TCK*%
X132080000Y-57150000D03*
%TO.P,J2,8*%
%TO.N,GND*%
X134620000Y-54610000D03*
%TO.P,J2,7*%
%TO.N,Debug_TMS*%
X134620000Y-57150000D03*
%TO.P,J2,6*%
%TO.N,GND*%
X137160000Y-54610000D03*
%TO.P,J2,5*%
%TO.N,Debug_TDI*%
X137160000Y-57150000D03*
%TO.P,J2,4*%
%TO.N,GND*%
X139700000Y-54610000D03*
%TO.P,J2,3*%
%TO.N,Net-(J2-Pad3)*%
X139700000Y-57150000D03*
%TO.P,J2,2*%
%TO.N,Net-(J2-Pad2)*%
X142240000Y-54610000D03*
D12*
%TO.P,J2,1*%
%TO.N,LED_PORT_PWR*%
X142240000Y-57150000D03*
%TD*%
D15*
%TO.P,J1,10*%
%TO.N,RF_EN*%
X152400000Y-55880000D03*
%TO.P,J1,9*%
%TO.N,GND*%
X153670000Y-55880000D03*
%TO.P,J1,8*%
%TO.N,Debug_TDI*%
X152400000Y-57150000D03*
%TO.P,J1,7*%
%TO.N,Net-(J1-Pad7)*%
X153670000Y-57150000D03*
%TO.P,J1,6*%
%TO.N,Debug_TDO*%
X152400000Y-58420000D03*
%TO.P,J1,5*%
%TO.N,GND*%
X153670000Y-58420000D03*
%TO.P,J1,4*%
%TO.N,Debug_TCK*%
X152400000Y-59690000D03*
%TO.P,J1,3*%
%TO.N,GND*%
X153670000Y-59690000D03*
%TO.P,J1,2*%
%TO.N,Debug_TMS*%
X152400000Y-60960000D03*
D16*
%TO.P,J1,1*%
%TO.N,LED_PORT_PWR*%
X153670000Y-60960000D03*
%TD*%
D17*
%TO.N,SCREEN_RESET*%
X111760000Y-81280000D03*
%TO.N,GND*%
X106680000Y-55880000D03*
X102870000Y-63500000D03*
%TO.N,I2C_SCL*%
X100330000Y-95250000D03*
%TO.N,Net-(E1-Pad1)*%
X125730000Y-72390000D03*
X127000000Y-76200000D03*
%TO.N,Debug_TCK*%
X149860000Y-62230000D03*
X139700000Y-66040000D03*
%TO.N,RF_EN*%
X148590000Y-67310000D03*
%TD*%
D18*
%TO.N,SCREEN_RESET*%
X118110000Y-87630000D02*
X120050000Y-87630000D01*
X111760000Y-81280000D02*
X118110000Y-87630000D01*
%TO.N,I2C_SDA*%
X123190000Y-115570000D02*
X123190000Y-103470000D01*
X121920000Y-116840000D02*
X123190000Y-115570000D01*
X101600000Y-116840000D02*
X121920000Y-116840000D01*
X123190000Y-103470000D02*
X120050000Y-100330000D01*
X99060000Y-114300000D02*
X101600000Y-116840000D01*
X97759999Y-91470001D02*
X102870000Y-86360000D01*
X97759999Y-112999999D02*
X97759999Y-91470001D01*
X99060000Y-114300000D02*
X97759999Y-112999999D01*
D19*
%TO.N,Debug_TDO*%
X136640001Y-66790001D02*
X127000000Y-57150000D01*
X143211997Y-66790001D02*
X136640001Y-66790001D01*
X151581998Y-58420000D02*
X143211997Y-66790001D01*
X152400000Y-58420000D02*
X151581998Y-58420000D01*
D18*
%TO.N,I2C_SCL*%
X120050000Y-108520002D02*
X120050000Y-107950000D01*
X112970001Y-115600001D02*
X120050000Y-108520002D01*
X102900001Y-115600001D02*
X112970001Y-115600001D01*
X99060000Y-111760000D02*
X102900001Y-115600001D01*
X100360001Y-95280001D02*
X100330000Y-95250000D01*
X100360001Y-110459999D02*
X100360001Y-95280001D01*
X99060000Y-111760000D02*
X100360001Y-110459999D01*
%TO.N,Net-(E1-Pad1)*%
X125730000Y-74930000D02*
X127000000Y-76200000D01*
X125730000Y-72390000D02*
X125730000Y-74930000D01*
D19*
%TO.N,Debug_TCK*%
X152400000Y-59690000D02*
X149860000Y-62230000D01*
D18*
X132080000Y-58420000D02*
X139700000Y-66040000D01*
X132080000Y-57150000D02*
X132080000Y-58420000D01*
D19*
%TO.N,RF_EN*%
X124460000Y-57150000D02*
X137160000Y-69850000D01*
X146050000Y-69850000D02*
X148590000Y-67310000D01*
X137160000Y-69850000D02*
X146050000Y-69850000D01*
D18*
%TO.N,LED_PWM_2*%
X126920000Y-122000000D02*
X126920000Y-128270000D01*
X146050000Y-102870000D02*
X126920000Y-122000000D01*
%TO.N,LED_PWM_1*%
X118110000Y-128270000D02*
X146050000Y-100330000D01*
X114220000Y-128270000D02*
X118110000Y-128270000D01*
%TO.N,LED_PWM_4*%
X152320000Y-114220000D02*
X146050000Y-107950000D01*
X152320000Y-128270000D02*
X152320000Y-114220000D01*
%TO.N,LED_PWM_3*%
X146050000Y-106025998D02*
X146050000Y-105410000D01*
X139620000Y-112455998D02*
X146050000Y-106025998D01*
X139620000Y-128270000D02*
X139620000Y-112455998D01*
%TO.N,LED_PWM_6*%
X147400000Y-96600000D02*
X146050000Y-95250000D01*
X157480000Y-96600000D02*
X147400000Y-96600000D01*
%TO.N,LED_PWM_5*%
X157480000Y-109220000D02*
X146050000Y-97790000D01*
X157480000Y-109300000D02*
X157480000Y-109220000D01*
%TO.N,LED_PWM_8*%
X156054990Y-72625010D02*
X156054990Y-77625010D01*
X156054990Y-77625010D02*
X146050000Y-87630000D01*
X157480000Y-71200000D02*
X156054990Y-72625010D01*
%TO.N,LED_PWM_7*%
X152320000Y-83900000D02*
X146050000Y-90170000D01*
X157480000Y-83900000D02*
X152320000Y-83900000D01*
%TD*%
D20*
%TO.N,GND*%
G36*
X164441222Y-52793096D02*
G01*
X165029164Y-52970606D01*
X165571436Y-53258937D01*
X166047364Y-53647094D01*
X166438845Y-54120314D01*
X166730951Y-54660552D01*
X166912563Y-55247244D01*
X166980000Y-55888879D01*
X166980001Y-134587711D01*
X166916904Y-135231221D01*
X166739394Y-135819164D01*
X166451063Y-136361436D01*
X166062906Y-136837364D01*
X165589686Y-137228845D01*
X165049449Y-137520950D01*
X164462756Y-137702563D01*
X163821130Y-137770000D01*
X96552279Y-137770000D01*
X95908779Y-137706904D01*
X95320836Y-137529394D01*
X94778564Y-137241063D01*
X94302636Y-136852906D01*
X93911155Y-136379686D01*
X93619050Y-135839449D01*
X93437437Y-135252756D01*
X93370000Y-134611130D01*
X93370000Y-134385098D01*
X94135000Y-134385098D01*
X94135000Y-134854902D01*
X94226654Y-135315679D01*
X94406440Y-135749721D01*
X94667450Y-136140349D01*
X94999651Y-136472550D01*
X95390279Y-136733560D01*
X95824321Y-136913346D01*
X96285098Y-137005000D01*
X96754902Y-137005000D01*
X97215679Y-136913346D01*
X97649721Y-136733560D01*
X98040349Y-136472550D01*
X98372550Y-136140349D01*
X98633560Y-135749721D01*
X98813346Y-135315679D01*
X98905000Y-134854902D01*
X98905000Y-134385098D01*
X161445000Y-134385098D01*
X161445000Y-134854902D01*
X161536654Y-135315679D01*
X161716440Y-135749721D01*
X161977450Y-136140349D01*
X162309651Y-136472550D01*
X162700279Y-136733560D01*
X163134321Y-136913346D01*
X163595098Y-137005000D01*
X164064902Y-137005000D01*
X164525679Y-136913346D01*
X164959721Y-136733560D01*
X165350349Y-136472550D01*
X165682550Y-136140349D01*
X165943560Y-135749721D01*
X166123346Y-135315679D01*
X166215000Y-134854902D01*
X166215000Y-134385098D01*
X166123346Y-133924321D01*
X165943560Y-133490279D01*
X165682550Y-133099651D01*
X165350349Y-132767450D01*
X164959721Y-132506440D01*
X164525679Y-132326654D01*
X164064902Y-132235000D01*
X163595098Y-132235000D01*
X163134321Y-132326654D01*
X162700279Y-132506440D01*
X162309651Y-132767450D01*
X161977450Y-133099651D01*
X161716440Y-133490279D01*
X161536654Y-133924321D01*
X161445000Y-134385098D01*
X98905000Y-134385098D01*
X98813346Y-133924321D01*
X98633560Y-133490279D01*
X98372550Y-133099651D01*
X98040349Y-132767450D01*
X97649721Y-132506440D01*
X97215679Y-132326654D01*
X96754902Y-132235000D01*
X96285098Y-132235000D01*
X95824321Y-132326654D01*
X95390279Y-132506440D01*
X94999651Y-132767450D01*
X94667450Y-133099651D01*
X94406440Y-133490279D01*
X94226654Y-133924321D01*
X94135000Y-134385098D01*
X93370000Y-134385098D01*
X93370000Y-129245000D01*
X107731928Y-129245000D01*
X107744188Y-129369482D01*
X107780498Y-129489180D01*
X107839463Y-129599494D01*
X107918815Y-129696185D01*
X108015506Y-129775537D01*
X108125820Y-129834502D01*
X108245518Y-129870812D01*
X108370000Y-129883072D01*
X108934250Y-129880000D01*
X109093000Y-129721250D01*
X109093000Y-128397000D01*
X107893750Y-128397000D01*
X107735000Y-128555750D01*
X107731928Y-129245000D01*
X93370000Y-129245000D01*
X93370000Y-127295000D01*
X107731928Y-127295000D01*
X107735000Y-127984250D01*
X107893750Y-128143000D01*
X109093000Y-128143000D01*
X109093000Y-126818750D01*
X109347000Y-126818750D01*
X109347000Y-128143000D01*
X109367000Y-128143000D01*
X109367000Y-128397000D01*
X109347000Y-128397000D01*
X109347000Y-129721250D01*
X109505750Y-129880000D01*
X110070000Y-129883072D01*
X110194482Y-129870812D01*
X110314180Y-129834502D01*
X110424494Y-129775537D01*
X110521185Y-129696185D01*
X110600537Y-129599494D01*
X110659502Y-129489180D01*
X110670055Y-129454392D01*
X110890987Y-129635706D01*
X111148967Y-129773599D01*
X111428890Y-129858513D01*
X111720000Y-129887185D01*
X112011111Y-129858513D01*
X112291034Y-129773599D01*
X112549014Y-129635706D01*
X112775134Y-129450134D01*
X112960706Y-129224014D01*
X112970000Y-129206626D01*
X112979294Y-129224014D01*
X113164866Y-129450134D01*
X113390987Y-129635706D01*
X113648967Y-129773599D01*
X113928890Y-129858513D01*
X114220000Y-129887185D01*
X114511111Y-129858513D01*
X114791034Y-129773599D01*
X115049014Y-129635706D01*
X115275134Y-129450134D01*
X115443483Y-129245000D01*
X120431928Y-129245000D01*
X120444188Y-129369482D01*
X120480498Y-129489180D01*
X120539463Y-129599494D01*
X120618815Y-129696185D01*
X120715506Y-129775537D01*
X120825820Y-129834502D01*
X120945518Y-129870812D01*
X121070000Y-129883072D01*
X121634250Y-129880000D01*
X121793000Y-129721250D01*
X121793000Y-128397000D01*
X120593750Y-128397000D01*
X120435000Y-128555750D01*
X120431928Y-129245000D01*
X115443483Y-129245000D01*
X115460706Y-129224014D01*
X115497595Y-129155000D01*
X118066531Y-129155000D01*
X118110000Y-129159281D01*
X118153469Y-129155000D01*
X118153477Y-129155000D01*
X118283490Y-129142195D01*
X118450313Y-129091589D01*
X118604059Y-129009411D01*
X118738817Y-128898817D01*
X118766534Y-128865044D01*
X120442345Y-127189233D01*
X120431928Y-127295000D01*
X120435000Y-127984250D01*
X120593750Y-128143000D01*
X121793000Y-128143000D01*
X121793000Y-126818750D01*
X121634250Y-126660000D01*
X121070000Y-126656928D01*
X120964233Y-126667345D01*
X144573349Y-103058230D01*
X144579461Y-103088960D01*
X126324956Y-121343466D01*
X126291183Y-121371183D01*
X126180589Y-121505942D01*
X126098411Y-121659688D01*
X126047805Y-121826511D01*
X126035000Y-121956524D01*
X126035000Y-121956531D01*
X126030719Y-122000000D01*
X126035000Y-122043469D01*
X126035001Y-126950240D01*
X125864866Y-127089866D01*
X125679294Y-127315987D01*
X125670000Y-127333374D01*
X125660706Y-127315986D01*
X125475134Y-127089866D01*
X125249013Y-126904294D01*
X124991033Y-126766401D01*
X124711110Y-126681487D01*
X124420000Y-126652815D01*
X124128889Y-126681487D01*
X123848966Y-126766401D01*
X123590986Y-126904294D01*
X123370055Y-127085608D01*
X123359502Y-127050820D01*
X123300537Y-126940506D01*
X123221185Y-126843815D01*
X123124494Y-126764463D01*
X123014180Y-126705498D01*
X122894482Y-126669188D01*
X122770000Y-126656928D01*
X122205750Y-126660000D01*
X122047000Y-126818750D01*
X122047000Y-128143000D01*
X122067000Y-128143000D01*
X122067000Y-128397000D01*
X122047000Y-128397000D01*
X122047000Y-129721250D01*
X122205750Y-129880000D01*
X122770000Y-129883072D01*
X122894482Y-129870812D01*
X123014180Y-129834502D01*
X123124494Y-129775537D01*
X123221185Y-129696185D01*
X123300537Y-129599494D01*
X123359502Y-129489180D01*
X123370055Y-129454392D01*
X123590987Y-129635706D01*
X123848967Y-129773599D01*
X124128890Y-129858513D01*
X124420000Y-129887185D01*
X124711111Y-129858513D01*
X124991034Y-129773599D01*
X125249014Y-129635706D01*
X125475134Y-129450134D01*
X125660706Y-129224014D01*
X125670000Y-129206626D01*
X125679294Y-129224014D01*
X125864866Y-129450134D01*
X126090987Y-129635706D01*
X126348967Y-129773599D01*
X126628890Y-129858513D01*
X126920000Y-129887185D01*
X127211111Y-129858513D01*
X127491034Y-129773599D01*
X127749014Y-129635706D01*
X127975134Y-129450134D01*
X128143483Y-129245000D01*
X133131928Y-129245000D01*
X133144188Y-129369482D01*
X133180498Y-129489180D01*
X133239463Y-129599494D01*
X133318815Y-129696185D01*
X133415506Y-129775537D01*
X133525820Y-129834502D01*
X133645518Y-129870812D01*
X133770000Y-129883072D01*
X134334250Y-129880000D01*
X134493000Y-129721250D01*
X134493000Y-128397000D01*
X133293750Y-128397000D01*
X133135000Y-128555750D01*
X133131928Y-129245000D01*
X128143483Y-129245000D01*
X128160706Y-129224014D01*
X128298599Y-128966033D01*
X128383513Y-128686110D01*
X128405000Y-128467949D01*
X128405000Y-128072050D01*
X128383513Y-127853889D01*
X128298599Y-127573966D01*
X128160706Y-127315986D01*
X128143484Y-127295000D01*
X133131928Y-127295000D01*
X133135000Y-127984250D01*
X133293750Y-128143000D01*
X134493000Y-128143000D01*
X134493000Y-126818750D01*
X134334250Y-126660000D01*
X133770000Y-126656928D01*
X133645518Y-126669188D01*
X133525820Y-126705498D01*
X133415506Y-126764463D01*
X133318815Y-126843815D01*
X133239463Y-126940506D01*
X133180498Y-127050820D01*
X133144188Y-127170518D01*
X133131928Y-127295000D01*
X128143484Y-127295000D01*
X127975134Y-127089866D01*
X127805000Y-126950241D01*
X127805000Y-122366578D01*
X144573348Y-105598230D01*
X144622068Y-105843158D01*
X144727273Y-106097146D01*
X139024952Y-111799468D01*
X138991184Y-111827181D01*
X138963471Y-111860949D01*
X138963468Y-111860952D01*
X138880590Y-111961939D01*
X138798412Y-112115685D01*
X138747805Y-112282508D01*
X138730719Y-112455998D01*
X138735001Y-112499477D01*
X138735000Y-126950240D01*
X138564866Y-127089866D01*
X138379294Y-127315987D01*
X138370000Y-127333374D01*
X138360706Y-127315986D01*
X138175134Y-127089866D01*
X137949013Y-126904294D01*
X137691033Y-126766401D01*
X137411110Y-126681487D01*
X137120000Y-126652815D01*
X136828889Y-126681487D01*
X136548966Y-126766401D01*
X136290986Y-126904294D01*
X136070055Y-127085608D01*
X136059502Y-127050820D01*
X136000537Y-126940506D01*
X135921185Y-126843815D01*
X135824494Y-126764463D01*
X135714180Y-126705498D01*
X135594482Y-126669188D01*
X135470000Y-126656928D01*
X134905750Y-126660000D01*
X134747000Y-126818750D01*
X134747000Y-128143000D01*
X134767000Y-128143000D01*
X134767000Y-128397000D01*
X134747000Y-128397000D01*
X134747000Y-129721250D01*
X134905750Y-129880000D01*
X135470000Y-129883072D01*
X135594482Y-129870812D01*
X135714180Y-129834502D01*
X135824494Y-129775537D01*
X135921185Y-129696185D01*
X136000537Y-129599494D01*
X136059502Y-129489180D01*
X136070055Y-129454392D01*
X136290987Y-129635706D01*
X136548967Y-129773599D01*
X136828890Y-129858513D01*
X137120000Y-129887185D01*
X137411111Y-129858513D01*
X137691034Y-129773599D01*
X137949014Y-129635706D01*
X138175134Y-129450134D01*
X138360706Y-129224014D01*
X138370000Y-129206626D01*
X138379294Y-129224014D01*
X138564866Y-129450134D01*
X138790987Y-129635706D01*
X139048967Y-129773599D01*
X139328890Y-129858513D01*
X139620000Y-129887185D01*
X139911111Y-129858513D01*
X140191034Y-129773599D01*
X140449014Y-129635706D01*
X140675134Y-129450134D01*
X140843483Y-129245000D01*
X145831928Y-129245000D01*
X145844188Y-129369482D01*
X145880498Y-129489180D01*
X145939463Y-129599494D01*
X146018815Y-129696185D01*
X146115506Y-129775537D01*
X146225820Y-129834502D01*
X146345518Y-129870812D01*
X146470000Y-129883072D01*
X147034250Y-129880000D01*
X147193000Y-129721250D01*
X147193000Y-128397000D01*
X145993750Y-128397000D01*
X145835000Y-128555750D01*
X145831928Y-129245000D01*
X140843483Y-129245000D01*
X140860706Y-129224014D01*
X140998599Y-128966033D01*
X141083513Y-128686110D01*
X141105000Y-128467949D01*
X141105000Y-128072050D01*
X141083513Y-127853889D01*
X140998599Y-127573966D01*
X140860706Y-127315986D01*
X140843484Y-127295000D01*
X145831928Y-127295000D01*
X145835000Y-127984250D01*
X145993750Y-128143000D01*
X147193000Y-128143000D01*
X147193000Y-126818750D01*
X147034250Y-126660000D01*
X146470000Y-126656928D01*
X146345518Y-126669188D01*
X146225820Y-126705498D01*
X146115506Y-126764463D01*
X146018815Y-126843815D01*
X145939463Y-126940506D01*
X145880498Y-127050820D01*
X145844188Y-127170518D01*
X145831928Y-127295000D01*
X140843484Y-127295000D01*
X140675134Y-127089866D01*
X140505000Y-126950241D01*
X140505000Y-112822576D01*
X144716482Y-108611095D01*
X144734010Y-108653411D01*
X144896525Y-108896632D01*
X145028380Y-109028487D01*
X144955820Y-109050498D01*
X144845506Y-109109463D01*
X144748815Y-109188815D01*
X144669463Y-109285506D01*
X144610498Y-109395820D01*
X144574188Y-109515518D01*
X144561928Y-109640000D01*
X144561928Y-111340000D01*
X144574188Y-111464482D01*
X144610498Y-111584180D01*
X144669463Y-111694494D01*
X144748815Y-111791185D01*
X144845506Y-111870537D01*
X144904116Y-111901865D01*
X144727244Y-111937047D01*
X144338698Y-112097988D01*
X143989017Y-112331637D01*
X143691637Y-112629017D01*
X143457988Y-112978698D01*
X143297047Y-113367244D01*
X143215000Y-113779721D01*
X143215000Y-114200279D01*
X143297047Y-114612756D01*
X143457988Y-115001302D01*
X143691637Y-115350983D01*
X143989017Y-115648363D01*
X144338698Y-115882012D01*
X144727244Y-116042953D01*
X145139721Y-116125000D01*
X145560279Y-116125000D01*
X145972756Y-116042953D01*
X146361302Y-115882012D01*
X146710983Y-115648363D01*
X147008363Y-115350983D01*
X147242012Y-115001302D01*
X147402953Y-114612756D01*
X147485000Y-114200279D01*
X147485000Y-113779721D01*
X147402953Y-113367244D01*
X147242012Y-112978698D01*
X147008363Y-112629017D01*
X146710983Y-112331637D01*
X146361302Y-112097988D01*
X146071799Y-111978072D01*
X146900000Y-111978072D01*
X147024482Y-111965812D01*
X147144180Y-111929502D01*
X147254494Y-111870537D01*
X147351185Y-111791185D01*
X147430537Y-111694494D01*
X147489502Y-111584180D01*
X147525812Y-111464482D01*
X147538072Y-111340000D01*
X147538072Y-110689650D01*
X151435001Y-114586580D01*
X151435000Y-126950240D01*
X151264866Y-127089866D01*
X151079294Y-127315987D01*
X151070000Y-127333374D01*
X151060706Y-127315986D01*
X150875134Y-127089866D01*
X150649013Y-126904294D01*
X150391033Y-126766401D01*
X150111110Y-126681487D01*
X149820000Y-126652815D01*
X149528889Y-126681487D01*
X149248966Y-126766401D01*
X148990986Y-126904294D01*
X148770055Y-127085608D01*
X148759502Y-127050820D01*
X148700537Y-126940506D01*
X148621185Y-126843815D01*
X148524494Y-126764463D01*
X148414180Y-126705498D01*
X148294482Y-126669188D01*
X148170000Y-126656928D01*
X147605750Y-126660000D01*
X147447000Y-126818750D01*
X147447000Y-128143000D01*
X147467000Y-128143000D01*
X147467000Y-128397000D01*
X147447000Y-128397000D01*
X147447000Y-129721250D01*
X147605750Y-129880000D01*
X148170000Y-129883072D01*
X148294482Y-129870812D01*
X148414180Y-129834502D01*
X148524494Y-129775537D01*
X148621185Y-129696185D01*
X148700537Y-129599494D01*
X148759502Y-129489180D01*
X148770055Y-129454392D01*
X148990987Y-129635706D01*
X149248967Y-129773599D01*
X149528890Y-129858513D01*
X149820000Y-129887185D01*
X150111111Y-129858513D01*
X150391034Y-129773599D01*
X150649014Y-129635706D01*
X150875134Y-129450134D01*
X151060706Y-129224014D01*
X151070000Y-129206626D01*
X151079294Y-129224014D01*
X151264866Y-129450134D01*
X151490987Y-129635706D01*
X151748967Y-129773599D01*
X152028890Y-129858513D01*
X152320000Y-129887185D01*
X152611111Y-129858513D01*
X152891034Y-129773599D01*
X153149014Y-129635706D01*
X153375134Y-129450134D01*
X153560706Y-129224014D01*
X153698599Y-128966033D01*
X153783513Y-128686110D01*
X153805000Y-128467949D01*
X153805000Y-128072050D01*
X153783513Y-127853889D01*
X153698599Y-127573966D01*
X153560706Y-127315986D01*
X153375134Y-127089866D01*
X153205000Y-126950241D01*
X153205000Y-115150000D01*
X155866928Y-115150000D01*
X155879188Y-115274482D01*
X155915498Y-115394180D01*
X155974463Y-115504494D01*
X156053815Y-115601185D01*
X156150506Y-115680537D01*
X156260820Y-115739502D01*
X156380518Y-115775812D01*
X156505000Y-115788072D01*
X157194250Y-115785000D01*
X157353000Y-115626250D01*
X157353000Y-114427000D01*
X157607000Y-114427000D01*
X157607000Y-115626250D01*
X157765750Y-115785000D01*
X158455000Y-115788072D01*
X158579482Y-115775812D01*
X158699180Y-115739502D01*
X158809494Y-115680537D01*
X158906185Y-115601185D01*
X158985537Y-115504494D01*
X159044502Y-115394180D01*
X159080812Y-115274482D01*
X159093072Y-115150000D01*
X159090000Y-114585750D01*
X158931250Y-114427000D01*
X157607000Y-114427000D01*
X157353000Y-114427000D01*
X156028750Y-114427000D01*
X155870000Y-114585750D01*
X155866928Y-115150000D01*
X153205000Y-115150000D01*
X153205000Y-114263466D01*
X153209281Y-114219999D01*
X153205000Y-114176533D01*
X153205000Y-114176523D01*
X153192195Y-114046510D01*
X153141589Y-113879687D01*
X153059411Y-113725941D01*
X152948817Y-113591183D01*
X152915049Y-113563470D01*
X147520539Y-108168961D01*
X147535000Y-108096260D01*
X147535000Y-107803740D01*
X147477932Y-107516842D01*
X147365990Y-107246589D01*
X147203475Y-107003368D01*
X146996632Y-106796525D01*
X146822240Y-106680000D01*
X146996632Y-106563475D01*
X147203475Y-106356632D01*
X147365990Y-106113411D01*
X147477932Y-105843158D01*
X147535000Y-105556260D01*
X147535000Y-105263740D01*
X147477932Y-104976842D01*
X147365990Y-104706589D01*
X147203475Y-104463368D01*
X146996632Y-104256525D01*
X146822240Y-104140000D01*
X146996632Y-104023475D01*
X147203475Y-103816632D01*
X147365990Y-103573411D01*
X147477932Y-103303158D01*
X147535000Y-103016260D01*
X147535000Y-102723740D01*
X147477932Y-102436842D01*
X147365990Y-102166589D01*
X147203475Y-101923368D01*
X146996632Y-101716525D01*
X146822240Y-101600000D01*
X146996632Y-101483475D01*
X147203475Y-101276632D01*
X147365990Y-101033411D01*
X147477932Y-100763158D01*
X147526652Y-100518230D01*
X155920772Y-108912351D01*
X155891487Y-109008889D01*
X155862815Y-109300000D01*
X155891487Y-109591111D01*
X155976401Y-109871034D01*
X156114294Y-110129014D01*
X156299866Y-110355134D01*
X156525986Y-110540706D01*
X156543374Y-110550000D01*
X156525986Y-110559294D01*
X156299866Y-110744866D01*
X156114294Y-110970986D01*
X155976401Y-111228966D01*
X155891487Y-111508889D01*
X155862815Y-111800000D01*
X155891487Y-112091111D01*
X155976401Y-112371034D01*
X156114294Y-112629014D01*
X156295608Y-112849945D01*
X156260820Y-112860498D01*
X156150506Y-112919463D01*
X156053815Y-112998815D01*
X155974463Y-113095506D01*
X155915498Y-113205820D01*
X155879188Y-113325518D01*
X155866928Y-113450000D01*
X155870000Y-114014250D01*
X156028750Y-114173000D01*
X157353000Y-114173000D01*
X157353000Y-114153000D01*
X157607000Y-114153000D01*
X157607000Y-114173000D01*
X158931250Y-114173000D01*
X159090000Y-114014250D01*
X159093072Y-113450000D01*
X159080812Y-113325518D01*
X159044502Y-113205820D01*
X158985537Y-113095506D01*
X158906185Y-112998815D01*
X158809494Y-112919463D01*
X158699180Y-112860498D01*
X158664392Y-112849945D01*
X158845706Y-112629014D01*
X158983599Y-112371034D01*
X159068513Y-112091111D01*
X159097185Y-111800000D01*
X159068513Y-111508889D01*
X158983599Y-111228966D01*
X158845706Y-110970986D01*
X158660134Y-110744866D01*
X158434014Y-110559294D01*
X158416626Y-110550000D01*
X158434014Y-110540706D01*
X158660134Y-110355134D01*
X158845706Y-110129014D01*
X158983599Y-109871034D01*
X159068513Y-109591111D01*
X159097185Y-109300000D01*
X159068513Y-109008889D01*
X158983599Y-108728966D01*
X158845706Y-108470986D01*
X158660134Y-108244866D01*
X158434014Y-108059294D01*
X158176034Y-107921401D01*
X157896111Y-107836487D01*
X157677950Y-107815000D01*
X157326579Y-107815000D01*
X151961579Y-102450000D01*
X155866928Y-102450000D01*
X155879188Y-102574482D01*
X155915498Y-102694180D01*
X155974463Y-102804494D01*
X156053815Y-102901185D01*
X156150506Y-102980537D01*
X156260820Y-103039502D01*
X156380518Y-103075812D01*
X156505000Y-103088072D01*
X157194250Y-103085000D01*
X157353000Y-102926250D01*
X157353000Y-101727000D01*
X157607000Y-101727000D01*
X157607000Y-102926250D01*
X157765750Y-103085000D01*
X158455000Y-103088072D01*
X158579482Y-103075812D01*
X158699180Y-103039502D01*
X158809494Y-102980537D01*
X158906185Y-102901185D01*
X158985537Y-102804494D01*
X159044502Y-102694180D01*
X159080812Y-102574482D01*
X159093072Y-102450000D01*
X159090000Y-101885750D01*
X158931250Y-101727000D01*
X157607000Y-101727000D01*
X157353000Y-101727000D01*
X156028750Y-101727000D01*
X155870000Y-101885750D01*
X155866928Y-102450000D01*
X151961579Y-102450000D01*
X147520539Y-98008961D01*
X147535000Y-97936260D01*
X147535000Y-97643740D01*
X147503424Y-97485000D01*
X156160241Y-97485000D01*
X156299866Y-97655134D01*
X156525986Y-97840706D01*
X156543374Y-97850000D01*
X156525986Y-97859294D01*
X156299866Y-98044866D01*
X156114294Y-98270986D01*
X155976401Y-98528966D01*
X155891487Y-98808889D01*
X155862815Y-99100000D01*
X155891487Y-99391111D01*
X155976401Y-99671034D01*
X156114294Y-99929014D01*
X156295608Y-100149945D01*
X156260820Y-100160498D01*
X156150506Y-100219463D01*
X156053815Y-100298815D01*
X155974463Y-100395506D01*
X155915498Y-100505820D01*
X155879188Y-100625518D01*
X155866928Y-100750000D01*
X155870000Y-101314250D01*
X156028750Y-101473000D01*
X157353000Y-101473000D01*
X157353000Y-101453000D01*
X157607000Y-101453000D01*
X157607000Y-101473000D01*
X158931250Y-101473000D01*
X159090000Y-101314250D01*
X159093072Y-100750000D01*
X159080812Y-100625518D01*
X159044502Y-100505820D01*
X158985537Y-100395506D01*
X158906185Y-100298815D01*
X158809494Y-100219463D01*
X158699180Y-100160498D01*
X158664392Y-100149945D01*
X158845706Y-99929014D01*
X158983599Y-99671034D01*
X159068513Y-99391111D01*
X159097185Y-99100000D01*
X159068513Y-98808889D01*
X158983599Y-98528966D01*
X158845706Y-98270986D01*
X158660134Y-98044866D01*
X158434014Y-97859294D01*
X158416626Y-97850000D01*
X158434014Y-97840706D01*
X158660134Y-97655134D01*
X158845706Y-97429014D01*
X158983599Y-97171034D01*
X159068513Y-96891111D01*
X159097185Y-96600000D01*
X159068513Y-96308889D01*
X158983599Y-96028966D01*
X158845706Y-95770986D01*
X158660134Y-95544866D01*
X158434014Y-95359294D01*
X158176034Y-95221401D01*
X157896111Y-95136487D01*
X157677950Y-95115000D01*
X157282050Y-95115000D01*
X157063889Y-95136487D01*
X156783966Y-95221401D01*
X156525986Y-95359294D01*
X156299866Y-95544866D01*
X156160241Y-95715000D01*
X147766579Y-95715000D01*
X147520539Y-95468960D01*
X147535000Y-95396260D01*
X147535000Y-95103740D01*
X147477932Y-94816842D01*
X147365990Y-94546589D01*
X147203475Y-94303368D01*
X146996632Y-94096525D01*
X146822240Y-93980000D01*
X146996632Y-93863475D01*
X147203475Y-93656632D01*
X147365990Y-93413411D01*
X147477932Y-93143158D01*
X147535000Y-92856260D01*
X147535000Y-92563740D01*
X147477932Y-92276842D01*
X147365990Y-92006589D01*
X147203475Y-91763368D01*
X146996632Y-91556525D01*
X146822240Y-91440000D01*
X146996632Y-91323475D01*
X147203475Y-91116632D01*
X147365990Y-90873411D01*
X147477932Y-90603158D01*
X147535000Y-90316260D01*
X147535000Y-90023740D01*
X147520539Y-89951039D01*
X147721578Y-89750000D01*
X155866928Y-89750000D01*
X155879188Y-89874482D01*
X155915498Y-89994180D01*
X155974463Y-90104494D01*
X156053815Y-90201185D01*
X156150506Y-90280537D01*
X156260820Y-90339502D01*
X156380518Y-90375812D01*
X156505000Y-90388072D01*
X157194250Y-90385000D01*
X157353000Y-90226250D01*
X157353000Y-89027000D01*
X157607000Y-89027000D01*
X157607000Y-90226250D01*
X157765750Y-90385000D01*
X158455000Y-90388072D01*
X158579482Y-90375812D01*
X158699180Y-90339502D01*
X158809494Y-90280537D01*
X158906185Y-90201185D01*
X158985537Y-90104494D01*
X159044502Y-89994180D01*
X159080812Y-89874482D01*
X159093072Y-89750000D01*
X159090000Y-89185750D01*
X158931250Y-89027000D01*
X157607000Y-89027000D01*
X157353000Y-89027000D01*
X156028750Y-89027000D01*
X155870000Y-89185750D01*
X155866928Y-89750000D01*
X147721578Y-89750000D01*
X152686579Y-84785000D01*
X156160241Y-84785000D01*
X156299866Y-84955134D01*
X156525986Y-85140706D01*
X156543374Y-85150000D01*
X156525986Y-85159294D01*
X156299866Y-85344866D01*
X156114294Y-85570986D01*
X155976401Y-85828966D01*
X155891487Y-86108889D01*
X155862815Y-86400000D01*
X155891487Y-86691111D01*
X155976401Y-86971034D01*
X156114294Y-87229014D01*
X156295608Y-87449945D01*
X156260820Y-87460498D01*
X156150506Y-87519463D01*
X156053815Y-87598815D01*
X155974463Y-87695506D01*
X155915498Y-87805820D01*
X155879188Y-87925518D01*
X155866928Y-88050000D01*
X155870000Y-88614250D01*
X156028750Y-88773000D01*
X157353000Y-88773000D01*
X157353000Y-88753000D01*
X157607000Y-88753000D01*
X157607000Y-88773000D01*
X158931250Y-88773000D01*
X159090000Y-88614250D01*
X159093072Y-88050000D01*
X159080812Y-87925518D01*
X159044502Y-87805820D01*
X158985537Y-87695506D01*
X158906185Y-87598815D01*
X158809494Y-87519463D01*
X158699180Y-87460498D01*
X158664392Y-87449945D01*
X158845706Y-87229014D01*
X158983599Y-86971034D01*
X159068513Y-86691111D01*
X159097185Y-86400000D01*
X159068513Y-86108889D01*
X158983599Y-85828966D01*
X158845706Y-85570986D01*
X158660134Y-85344866D01*
X158434014Y-85159294D01*
X158416626Y-85150000D01*
X158434014Y-85140706D01*
X158660134Y-84955134D01*
X158845706Y-84729014D01*
X158983599Y-84471034D01*
X159068513Y-84191111D01*
X159097185Y-83900000D01*
X159068513Y-83608889D01*
X158983599Y-83328966D01*
X158845706Y-83070986D01*
X158660134Y-82844866D01*
X158434014Y-82659294D01*
X158176034Y-82521401D01*
X157896111Y-82436487D01*
X157677950Y-82415000D01*
X157282050Y-82415000D01*
X157063889Y-82436487D01*
X156783966Y-82521401D01*
X156525986Y-82659294D01*
X156299866Y-82844866D01*
X156160241Y-83015000D01*
X152363466Y-83015000D01*
X152319999Y-83010719D01*
X152276533Y-83015000D01*
X152276523Y-83015000D01*
X152146510Y-83027805D01*
X151979687Y-83078411D01*
X151825941Y-83160589D01*
X151825939Y-83160590D01*
X151825940Y-83160590D01*
X151724953Y-83243468D01*
X151724951Y-83243470D01*
X151691183Y-83271183D01*
X151663470Y-83304951D01*
X147526652Y-87441770D01*
X147520539Y-87411039D01*
X156650039Y-78281540D01*
X156683807Y-78253827D01*
X156794401Y-78119069D01*
X156838487Y-78036589D01*
X156876579Y-77965324D01*
X156927185Y-77798500D01*
X156927690Y-77793368D01*
X156938251Y-77686141D01*
X157194250Y-77685000D01*
X157353000Y-77526250D01*
X157353000Y-76327000D01*
X157607000Y-76327000D01*
X157607000Y-77526250D01*
X157765750Y-77685000D01*
X158455000Y-77688072D01*
X158579482Y-77675812D01*
X158699180Y-77639502D01*
X158809494Y-77580537D01*
X158906185Y-77501185D01*
X158985537Y-77404494D01*
X159044502Y-77294180D01*
X159080812Y-77174482D01*
X159093072Y-77050000D01*
X159090000Y-76485750D01*
X158931250Y-76327000D01*
X157607000Y-76327000D01*
X157353000Y-76327000D01*
X157333000Y-76327000D01*
X157333000Y-76073000D01*
X157353000Y-76073000D01*
X157353000Y-76053000D01*
X157607000Y-76053000D01*
X157607000Y-76073000D01*
X158931250Y-76073000D01*
X159090000Y-75914250D01*
X159093072Y-75350000D01*
X159080812Y-75225518D01*
X159044502Y-75105820D01*
X158985537Y-74995506D01*
X158906185Y-74898815D01*
X158809494Y-74819463D01*
X158699180Y-74760498D01*
X158664392Y-74749945D01*
X158845706Y-74529014D01*
X158983599Y-74271034D01*
X159068513Y-73991111D01*
X159097185Y-73700000D01*
X159068513Y-73408889D01*
X158983599Y-73128966D01*
X158845706Y-72870986D01*
X158660134Y-72644866D01*
X158434014Y-72459294D01*
X158416626Y-72450000D01*
X158434014Y-72440706D01*
X158660134Y-72255134D01*
X158845706Y-72029014D01*
X158983599Y-71771034D01*
X159068513Y-71491111D01*
X159097185Y-71200000D01*
X159068513Y-70908889D01*
X158983599Y-70628966D01*
X158845706Y-70370986D01*
X158660134Y-70144866D01*
X158434014Y-69959294D01*
X158176034Y-69821401D01*
X157896111Y-69736487D01*
X157677950Y-69715000D01*
X157282050Y-69715000D01*
X157063889Y-69736487D01*
X156783966Y-69821401D01*
X156525986Y-69959294D01*
X156299866Y-70144866D01*
X156114294Y-70370986D01*
X155976401Y-70628966D01*
X155891487Y-70908889D01*
X155862815Y-71200000D01*
X155891487Y-71491111D01*
X155902152Y-71526269D01*
X155459946Y-71968476D01*
X155426173Y-71996193D01*
X155315579Y-72130952D01*
X155233401Y-72284698D01*
X155182795Y-72451521D01*
X155169990Y-72581534D01*
X155169990Y-72581541D01*
X155165709Y-72625010D01*
X155169990Y-72668479D01*
X155169991Y-77258430D01*
X147526652Y-84901770D01*
X147477932Y-84656842D01*
X147365990Y-84386589D01*
X147203475Y-84143368D01*
X146996632Y-83936525D01*
X146822240Y-83820000D01*
X146996632Y-83703475D01*
X147203475Y-83496632D01*
X147365990Y-83253411D01*
X147477932Y-82983158D01*
X147535000Y-82696260D01*
X147535000Y-82403740D01*
X147477932Y-82116842D01*
X147365990Y-81846589D01*
X147203475Y-81603368D01*
X146996632Y-81396525D01*
X146822240Y-81280000D01*
X146996632Y-81163475D01*
X147203475Y-80956632D01*
X147365990Y-80713411D01*
X147477932Y-80443158D01*
X147535000Y-80156260D01*
X147535000Y-79863740D01*
X147477932Y-79576842D01*
X147365990Y-79306589D01*
X147203475Y-79063368D01*
X146996632Y-78856525D01*
X146814466Y-78734805D01*
X146931355Y-78665178D01*
X147147588Y-78470269D01*
X147321641Y-78236920D01*
X147446825Y-77974099D01*
X147491476Y-77826890D01*
X147370155Y-77597000D01*
X146177000Y-77597000D01*
X146177000Y-77617000D01*
X145923000Y-77617000D01*
X145923000Y-77597000D01*
X144729845Y-77597000D01*
X144608524Y-77826890D01*
X144653175Y-77974099D01*
X144778359Y-78236920D01*
X144952412Y-78470269D01*
X145168645Y-78665178D01*
X145285534Y-78734805D01*
X145103368Y-78856525D01*
X144896525Y-79063368D01*
X144734010Y-79306589D01*
X144622068Y-79576842D01*
X144565000Y-79863740D01*
X144565000Y-80156260D01*
X144622068Y-80443158D01*
X144734010Y-80713411D01*
X144896525Y-80956632D01*
X145103368Y-81163475D01*
X145277760Y-81280000D01*
X145103368Y-81396525D01*
X144896525Y-81603368D01*
X144734010Y-81846589D01*
X144622068Y-82116842D01*
X144565000Y-82403740D01*
X144565000Y-82696260D01*
X144622068Y-82983158D01*
X144734010Y-83253411D01*
X144896525Y-83496632D01*
X145103368Y-83703475D01*
X145277760Y-83820000D01*
X145103368Y-83936525D01*
X144896525Y-84143368D01*
X144734010Y-84386589D01*
X144622068Y-84656842D01*
X144565000Y-84943740D01*
X144565000Y-85236260D01*
X144622068Y-85523158D01*
X144734010Y-85793411D01*
X144896525Y-86036632D01*
X145103368Y-86243475D01*
X145277760Y-86360000D01*
X145103368Y-86476525D01*
X144896525Y-86683368D01*
X144734010Y-86926589D01*
X144622068Y-87196842D01*
X144565000Y-87483740D01*
X144565000Y-87776260D01*
X144622068Y-88063158D01*
X144734010Y-88333411D01*
X144896525Y-88576632D01*
X145103368Y-88783475D01*
X145277760Y-88900000D01*
X145103368Y-89016525D01*
X144896525Y-89223368D01*
X144734010Y-89466589D01*
X144622068Y-89736842D01*
X144565000Y-90023740D01*
X144565000Y-90316260D01*
X144622068Y-90603158D01*
X144734010Y-90873411D01*
X144896525Y-91116632D01*
X145103368Y-91323475D01*
X145277760Y-91440000D01*
X145103368Y-91556525D01*
X144896525Y-91763368D01*
X144734010Y-92006589D01*
X144622068Y-92276842D01*
X144565000Y-92563740D01*
X144565000Y-92856260D01*
X144622068Y-93143158D01*
X144734010Y-93413411D01*
X144896525Y-93656632D01*
X145103368Y-93863475D01*
X145277760Y-93980000D01*
X145103368Y-94096525D01*
X144896525Y-94303368D01*
X144734010Y-94546589D01*
X144622068Y-94816842D01*
X144565000Y-95103740D01*
X144565000Y-95396260D01*
X144622068Y-95683158D01*
X144734010Y-95953411D01*
X144896525Y-96196632D01*
X145103368Y-96403475D01*
X145277760Y-96520000D01*
X145103368Y-96636525D01*
X144896525Y-96843368D01*
X144734010Y-97086589D01*
X144622068Y-97356842D01*
X144565000Y-97643740D01*
X144565000Y-97936260D01*
X144622068Y-98223158D01*
X144734010Y-98493411D01*
X144896525Y-98736632D01*
X145103368Y-98943475D01*
X145277760Y-99060000D01*
X145103368Y-99176525D01*
X144896525Y-99383368D01*
X144734010Y-99626589D01*
X144622068Y-99896842D01*
X144565000Y-100183740D01*
X144565000Y-100476260D01*
X144579461Y-100548960D01*
X117743422Y-127385000D01*
X115497595Y-127385000D01*
X115460706Y-127315986D01*
X115275134Y-127089866D01*
X115049013Y-126904294D01*
X114791033Y-126766401D01*
X114511110Y-126681487D01*
X114220000Y-126652815D01*
X113928889Y-126681487D01*
X113648966Y-126766401D01*
X113390986Y-126904294D01*
X113164866Y-127089866D01*
X112979294Y-127315987D01*
X112970000Y-127333374D01*
X112960706Y-127315986D01*
X112775134Y-127089866D01*
X112549013Y-126904294D01*
X112291033Y-126766401D01*
X112011110Y-126681487D01*
X111720000Y-126652815D01*
X111428889Y-126681487D01*
X111148966Y-126766401D01*
X110890986Y-126904294D01*
X110670055Y-127085608D01*
X110659502Y-127050820D01*
X110600537Y-126940506D01*
X110521185Y-126843815D01*
X110424494Y-126764463D01*
X110314180Y-126705498D01*
X110194482Y-126669188D01*
X110070000Y-126656928D01*
X109505750Y-126660000D01*
X109347000Y-126818750D01*
X109093000Y-126818750D01*
X108934250Y-126660000D01*
X108370000Y-126656928D01*
X108245518Y-126669188D01*
X108125820Y-126705498D01*
X108015506Y-126764463D01*
X107918815Y-126843815D01*
X107839463Y-126940506D01*
X107780498Y-127050820D01*
X107744188Y-127170518D01*
X107731928Y-127295000D01*
X93370000Y-127295000D01*
X93370000Y-91470001D01*
X96870718Y-91470001D01*
X96875000Y-91513480D01*
X96874999Y-112956530D01*
X96870718Y-112999999D01*
X96874999Y-113043468D01*
X96874999Y-113043475D01*
X96886211Y-113157313D01*
X96887804Y-113173489D01*
X96894453Y-113195408D01*
X96938410Y-113340311D01*
X97020588Y-113494057D01*
X97131182Y-113628816D01*
X97164955Y-113656533D01*
X97571928Y-114063506D01*
X97571928Y-115150000D01*
X97584188Y-115274482D01*
X97620498Y-115394180D01*
X97679463Y-115504494D01*
X97758815Y-115601185D01*
X97855506Y-115680537D01*
X97965820Y-115739502D01*
X98085518Y-115775812D01*
X98210000Y-115788072D01*
X99296494Y-115788072D01*
X100943470Y-117435049D01*
X100971183Y-117468817D01*
X101004951Y-117496530D01*
X101004953Y-117496532D01*
X101076452Y-117555210D01*
X101105941Y-117579411D01*
X101259687Y-117661589D01*
X101426510Y-117712195D01*
X101556523Y-117725000D01*
X101556533Y-117725000D01*
X101599999Y-117729281D01*
X101643465Y-117725000D01*
X121876531Y-117725000D01*
X121920000Y-117729281D01*
X121963469Y-117725000D01*
X121963477Y-117725000D01*
X122093490Y-117712195D01*
X122260313Y-117661589D01*
X122414059Y-117579411D01*
X122548817Y-117468817D01*
X122576534Y-117435044D01*
X123785050Y-116226529D01*
X123818817Y-116198817D01*
X123929411Y-116064059D01*
X124011589Y-115910313D01*
X124062195Y-115743490D01*
X124075000Y-115613477D01*
X124075000Y-115613467D01*
X124079281Y-115570001D01*
X124075000Y-115526535D01*
X124075000Y-103513469D01*
X124079281Y-103470000D01*
X124075000Y-103426531D01*
X124075000Y-103426523D01*
X124062195Y-103296510D01*
X124011589Y-103129687D01*
X124011589Y-103129686D01*
X123929411Y-102975941D01*
X123846532Y-102874953D01*
X123846530Y-102874951D01*
X123818817Y-102841183D01*
X123785049Y-102813470D01*
X121520539Y-100548961D01*
X121535000Y-100476260D01*
X121535000Y-100183740D01*
X121477932Y-99896842D01*
X121365990Y-99626589D01*
X121203475Y-99383368D01*
X120996632Y-99176525D01*
X120822240Y-99060000D01*
X120996632Y-98943475D01*
X121203475Y-98736632D01*
X121365990Y-98493411D01*
X121477932Y-98223158D01*
X121535000Y-97936260D01*
X121535000Y-97643740D01*
X121477932Y-97356842D01*
X121365990Y-97086589D01*
X121203475Y-96843368D01*
X120996632Y-96636525D01*
X120822240Y-96520000D01*
X120996632Y-96403475D01*
X121203475Y-96196632D01*
X121365990Y-95953411D01*
X121477932Y-95683158D01*
X121535000Y-95396260D01*
X121535000Y-95103740D01*
X121477932Y-94816842D01*
X121365990Y-94546589D01*
X121203475Y-94303368D01*
X120996632Y-94096525D01*
X120822240Y-93980000D01*
X120996632Y-93863475D01*
X121203475Y-93656632D01*
X121365990Y-93413411D01*
X121477932Y-93143158D01*
X121535000Y-92856260D01*
X121535000Y-92563740D01*
X121477932Y-92276842D01*
X121365990Y-92006589D01*
X121203475Y-91763368D01*
X120996632Y-91556525D01*
X120822240Y-91440000D01*
X120996632Y-91323475D01*
X121203475Y-91116632D01*
X121365990Y-90873411D01*
X121477932Y-90603158D01*
X121535000Y-90316260D01*
X121535000Y-90023740D01*
X121477932Y-89736842D01*
X121365990Y-89466589D01*
X121203475Y-89223368D01*
X120996632Y-89016525D01*
X120822240Y-88900000D01*
X120996632Y-88783475D01*
X121203475Y-88576632D01*
X121365990Y-88333411D01*
X121477932Y-88063158D01*
X121535000Y-87776260D01*
X121535000Y-87483740D01*
X121477932Y-87196842D01*
X121365990Y-86926589D01*
X121203475Y-86683368D01*
X120996632Y-86476525D01*
X120822240Y-86360000D01*
X120996632Y-86243475D01*
X121203475Y-86036632D01*
X121365990Y-85793411D01*
X121477932Y-85523158D01*
X121535000Y-85236260D01*
X121535000Y-84943740D01*
X121477932Y-84656842D01*
X121365990Y-84386589D01*
X121203475Y-84143368D01*
X120996632Y-83936525D01*
X120822240Y-83820000D01*
X120996632Y-83703475D01*
X121203475Y-83496632D01*
X121365990Y-83253411D01*
X121477932Y-82983158D01*
X121535000Y-82696260D01*
X121535000Y-82403740D01*
X121477932Y-82116842D01*
X121365990Y-81846589D01*
X121203475Y-81603368D01*
X120996632Y-81396525D01*
X120822240Y-81280000D01*
X120996632Y-81163475D01*
X121203475Y-80956632D01*
X121365990Y-80713411D01*
X121477932Y-80443158D01*
X121535000Y-80156260D01*
X121535000Y-79863740D01*
X121477932Y-79576842D01*
X121365990Y-79306589D01*
X121203475Y-79063368D01*
X120996632Y-78856525D01*
X120814466Y-78734805D01*
X120931355Y-78665178D01*
X121147588Y-78470269D01*
X121321641Y-78236920D01*
X121446825Y-77974099D01*
X121491476Y-77826890D01*
X121370155Y-77597000D01*
X120177000Y-77597000D01*
X120177000Y-77617000D01*
X119923000Y-77617000D01*
X119923000Y-77597000D01*
X118729845Y-77597000D01*
X118608524Y-77826890D01*
X118653175Y-77974099D01*
X118778359Y-78236920D01*
X118952412Y-78470269D01*
X119168645Y-78665178D01*
X119285534Y-78734805D01*
X119103368Y-78856525D01*
X118896525Y-79063368D01*
X118734010Y-79306589D01*
X118622068Y-79576842D01*
X118565000Y-79863740D01*
X118565000Y-80156260D01*
X118622068Y-80443158D01*
X118734010Y-80713411D01*
X118896525Y-80956632D01*
X119103368Y-81163475D01*
X119277760Y-81280000D01*
X119103368Y-81396525D01*
X118896525Y-81603368D01*
X118734010Y-81846589D01*
X118622068Y-82116842D01*
X118565000Y-82403740D01*
X118565000Y-82696260D01*
X118622068Y-82983158D01*
X118734010Y-83253411D01*
X118896525Y-83496632D01*
X119103368Y-83703475D01*
X119277760Y-83820000D01*
X119103368Y-83936525D01*
X118896525Y-84143368D01*
X118734010Y-84386589D01*
X118622068Y-84656842D01*
X118565000Y-84943740D01*
X118565000Y-85236260D01*
X118622068Y-85523158D01*
X118734010Y-85793411D01*
X118896525Y-86036632D01*
X119103368Y-86243475D01*
X119277760Y-86360000D01*
X119103368Y-86476525D01*
X118896525Y-86683368D01*
X118855344Y-86745000D01*
X118476579Y-86745000D01*
X112766535Y-81034957D01*
X112755226Y-80978102D01*
X112677205Y-80789744D01*
X112563937Y-80620226D01*
X112419774Y-80476063D01*
X112250256Y-80362795D01*
X112061898Y-80284774D01*
X111861939Y-80245000D01*
X111658061Y-80245000D01*
X111458102Y-80284774D01*
X111269744Y-80362795D01*
X111100226Y-80476063D01*
X110956063Y-80620226D01*
X110842795Y-80789744D01*
X110764774Y-80978102D01*
X110725000Y-81178061D01*
X110725000Y-81381939D01*
X110764774Y-81581898D01*
X110842795Y-81770256D01*
X110956063Y-81939774D01*
X111100226Y-82083937D01*
X111269744Y-82197205D01*
X111458102Y-82275226D01*
X111514957Y-82286535D01*
X117453470Y-88225049D01*
X117481183Y-88258817D01*
X117514951Y-88286530D01*
X117514953Y-88286532D01*
X117572075Y-88333411D01*
X117615941Y-88369411D01*
X117769687Y-88451589D01*
X117936510Y-88502195D01*
X118066523Y-88515000D01*
X118066533Y-88515000D01*
X118109999Y-88519281D01*
X118153465Y-88515000D01*
X118855344Y-88515000D01*
X118896525Y-88576632D01*
X119103368Y-88783475D01*
X119277760Y-88900000D01*
X119103368Y-89016525D01*
X118896525Y-89223368D01*
X118734010Y-89466589D01*
X118622068Y-89736842D01*
X118565000Y-90023740D01*
X118565000Y-90316260D01*
X118622068Y-90603158D01*
X118734010Y-90873411D01*
X118896525Y-91116632D01*
X119103368Y-91323475D01*
X119277760Y-91440000D01*
X119103368Y-91556525D01*
X118896525Y-91763368D01*
X118734010Y-92006589D01*
X118622068Y-92276842D01*
X118565000Y-92563740D01*
X118565000Y-92856260D01*
X118622068Y-93143158D01*
X118734010Y-93413411D01*
X118896525Y-93656632D01*
X119103368Y-93863475D01*
X119277760Y-93980000D01*
X119103368Y-94096525D01*
X118896525Y-94303368D01*
X118734010Y-94546589D01*
X118622068Y-94816842D01*
X118565000Y-95103740D01*
X118565000Y-95396260D01*
X118622068Y-95683158D01*
X118734010Y-95953411D01*
X118896525Y-96196632D01*
X119103368Y-96403475D01*
X119277760Y-96520000D01*
X119103368Y-96636525D01*
X118896525Y-96843368D01*
X118734010Y-97086589D01*
X118622068Y-97356842D01*
X118565000Y-97643740D01*
X118565000Y-97936260D01*
X118622068Y-98223158D01*
X118734010Y-98493411D01*
X118896525Y-98736632D01*
X119103368Y-98943475D01*
X119277760Y-99060000D01*
X119103368Y-99176525D01*
X118896525Y-99383368D01*
X118734010Y-99626589D01*
X118622068Y-99896842D01*
X118565000Y-100183740D01*
X118565000Y-100476260D01*
X118622068Y-100763158D01*
X118734010Y-101033411D01*
X118896525Y-101276632D01*
X119103368Y-101483475D01*
X119277760Y-101600000D01*
X119103368Y-101716525D01*
X118896525Y-101923368D01*
X118734010Y-102166589D01*
X118622068Y-102436842D01*
X118565000Y-102723740D01*
X118565000Y-103016260D01*
X118622068Y-103303158D01*
X118734010Y-103573411D01*
X118896525Y-103816632D01*
X119103368Y-104023475D01*
X119277760Y-104140000D01*
X119103368Y-104256525D01*
X118896525Y-104463368D01*
X118734010Y-104706589D01*
X118622068Y-104976842D01*
X118565000Y-105263740D01*
X118565000Y-105556260D01*
X118622068Y-105843158D01*
X118734010Y-106113411D01*
X118896525Y-106356632D01*
X119103368Y-106563475D01*
X119277760Y-106680000D01*
X119103368Y-106796525D01*
X118896525Y-107003368D01*
X118734010Y-107246589D01*
X118622068Y-107516842D01*
X118565000Y-107803740D01*
X118565000Y-108096260D01*
X118622068Y-108383158D01*
X118713801Y-108604622D01*
X113248072Y-114070352D01*
X113248072Y-113450000D01*
X113235812Y-113325518D01*
X113199502Y-113205820D01*
X113140537Y-113095506D01*
X113061185Y-112998815D01*
X112964494Y-112919463D01*
X112854180Y-112860498D01*
X112781620Y-112838487D01*
X112913475Y-112706632D01*
X113075990Y-112463411D01*
X113187932Y-112193158D01*
X113245000Y-111906260D01*
X113245000Y-111613740D01*
X113187932Y-111326842D01*
X113075990Y-111056589D01*
X112913475Y-110813368D01*
X112706632Y-110606525D01*
X112532240Y-110490000D01*
X112706632Y-110373475D01*
X112913475Y-110166632D01*
X113075990Y-109923411D01*
X113187932Y-109653158D01*
X113245000Y-109366260D01*
X113245000Y-109073740D01*
X113187932Y-108786842D01*
X113075990Y-108516589D01*
X112913475Y-108273368D01*
X112706632Y-108066525D01*
X112532240Y-107950000D01*
X112706632Y-107833475D01*
X112913475Y-107626632D01*
X113075990Y-107383411D01*
X113187932Y-107113158D01*
X113245000Y-106826260D01*
X113245000Y-106533740D01*
X113187932Y-106246842D01*
X113075990Y-105976589D01*
X112913475Y-105733368D01*
X112706632Y-105526525D01*
X112532240Y-105410000D01*
X112706632Y-105293475D01*
X112913475Y-105086632D01*
X113075990Y-104843411D01*
X113187932Y-104573158D01*
X113245000Y-104286260D01*
X113245000Y-103993740D01*
X113187932Y-103706842D01*
X113075990Y-103436589D01*
X112913475Y-103193368D01*
X112706632Y-102986525D01*
X112524466Y-102864805D01*
X112641355Y-102795178D01*
X112857588Y-102600269D01*
X113031641Y-102366920D01*
X113156825Y-102104099D01*
X113201476Y-101956890D01*
X113080155Y-101727000D01*
X111887000Y-101727000D01*
X111887000Y-101747000D01*
X111633000Y-101747000D01*
X111633000Y-101727000D01*
X110439845Y-101727000D01*
X110318524Y-101956890D01*
X110363175Y-102104099D01*
X110488359Y-102366920D01*
X110662412Y-102600269D01*
X110878645Y-102795178D01*
X110995534Y-102864805D01*
X110813368Y-102986525D01*
X110606525Y-103193368D01*
X110444010Y-103436589D01*
X110332068Y-103706842D01*
X110275000Y-103993740D01*
X110275000Y-104286260D01*
X110332068Y-104573158D01*
X110444010Y-104843411D01*
X110606525Y-105086632D01*
X110813368Y-105293475D01*
X110987760Y-105410000D01*
X110813368Y-105526525D01*
X110606525Y-105733368D01*
X110444010Y-105976589D01*
X110332068Y-106246842D01*
X110275000Y-106533740D01*
X110275000Y-106826260D01*
X110332068Y-107113158D01*
X110444010Y-107383411D01*
X110606525Y-107626632D01*
X110813368Y-107833475D01*
X110987760Y-107950000D01*
X110813368Y-108066525D01*
X110606525Y-108273368D01*
X110444010Y-108516589D01*
X110332068Y-108786842D01*
X110275000Y-109073740D01*
X110275000Y-109366260D01*
X110332068Y-109653158D01*
X110444010Y-109923411D01*
X110606525Y-110166632D01*
X110813368Y-110373475D01*
X110987760Y-110490000D01*
X110813368Y-110606525D01*
X110606525Y-110813368D01*
X110444010Y-111056589D01*
X110332068Y-111326842D01*
X110275000Y-111613740D01*
X110275000Y-111906260D01*
X110332068Y-112193158D01*
X110444010Y-112463411D01*
X110606525Y-112706632D01*
X110738380Y-112838487D01*
X110665820Y-112860498D01*
X110555506Y-112919463D01*
X110458815Y-112998815D01*
X110379463Y-113095506D01*
X110320498Y-113205820D01*
X110284188Y-113325518D01*
X110271928Y-113450000D01*
X110271928Y-114715001D01*
X103266580Y-114715001D01*
X100530539Y-111978961D01*
X100545000Y-111906260D01*
X100545000Y-111613740D01*
X100530539Y-111541040D01*
X100955051Y-111116528D01*
X100988818Y-111088816D01*
X101099412Y-110954058D01*
X101181590Y-110800312D01*
X101232196Y-110633489D01*
X101245001Y-110503476D01*
X101245001Y-110503466D01*
X101249282Y-110460000D01*
X101245001Y-110416533D01*
X101245001Y-101243110D01*
X110318524Y-101243110D01*
X110439845Y-101473000D01*
X111633000Y-101473000D01*
X111633000Y-100279186D01*
X111887000Y-100279186D01*
X111887000Y-101473000D01*
X113080155Y-101473000D01*
X113201476Y-101243110D01*
X113156825Y-101095901D01*
X113031641Y-100833080D01*
X112857588Y-100599731D01*
X112641355Y-100404822D01*
X112391252Y-100255843D01*
X112116891Y-100158519D01*
X111887000Y-100279186D01*
X111633000Y-100279186D01*
X111403109Y-100158519D01*
X111128748Y-100255843D01*
X110878645Y-100404822D01*
X110662412Y-100599731D01*
X110488359Y-100833080D01*
X110363175Y-101095901D01*
X110318524Y-101243110D01*
X101245001Y-101243110D01*
X101245001Y-95743555D01*
X101247205Y-95740256D01*
X101325226Y-95551898D01*
X101365000Y-95351939D01*
X101365000Y-95148061D01*
X101325226Y-94948102D01*
X101247205Y-94759744D01*
X101133937Y-94590226D01*
X100989774Y-94446063D01*
X100820256Y-94332795D01*
X100631898Y-94254774D01*
X100431939Y-94215000D01*
X100228061Y-94215000D01*
X100028102Y-94254774D01*
X99839744Y-94332795D01*
X99670226Y-94446063D01*
X99526063Y-94590226D01*
X99412795Y-94759744D01*
X99334774Y-94948102D01*
X99295000Y-95148061D01*
X99295000Y-95351939D01*
X99334774Y-95551898D01*
X99412795Y-95740256D01*
X99475002Y-95833356D01*
X99475001Y-105259132D01*
X99416891Y-105238519D01*
X99187000Y-105359186D01*
X99187000Y-106553000D01*
X99207000Y-106553000D01*
X99207000Y-106807000D01*
X99187000Y-106807000D01*
X99187000Y-106827000D01*
X98933000Y-106827000D01*
X98933000Y-106807000D01*
X98913000Y-106807000D01*
X98913000Y-106553000D01*
X98933000Y-106553000D01*
X98933000Y-105359186D01*
X98703109Y-105238519D01*
X98644999Y-105259132D01*
X98644999Y-93130000D01*
X101381928Y-93130000D01*
X101381928Y-94830000D01*
X101394188Y-94954482D01*
X101430498Y-95074180D01*
X101489463Y-95184494D01*
X101568815Y-95281185D01*
X101665506Y-95360537D01*
X101775820Y-95419502D01*
X101895518Y-95455812D01*
X102020000Y-95468072D01*
X103720000Y-95468072D01*
X103844482Y-95455812D01*
X103964180Y-95419502D01*
X104074494Y-95360537D01*
X104171185Y-95281185D01*
X104250537Y-95184494D01*
X104309502Y-95074180D01*
X104345812Y-94954482D01*
X104358072Y-94830000D01*
X104358072Y-93130000D01*
X104345812Y-93005518D01*
X104309502Y-92885820D01*
X104250537Y-92775506D01*
X104171185Y-92678815D01*
X104074494Y-92599463D01*
X103964180Y-92540498D01*
X103883534Y-92516034D01*
X103967588Y-92440269D01*
X104141641Y-92206920D01*
X104266825Y-91944099D01*
X104311476Y-91796890D01*
X104190155Y-91567000D01*
X102997000Y-91567000D01*
X102997000Y-91587000D01*
X102743000Y-91587000D01*
X102743000Y-91567000D01*
X101549845Y-91567000D01*
X101428524Y-91796890D01*
X101473175Y-91944099D01*
X101598359Y-92206920D01*
X101772412Y-92440269D01*
X101856466Y-92516034D01*
X101775820Y-92540498D01*
X101665506Y-92599463D01*
X101568815Y-92678815D01*
X101489463Y-92775506D01*
X101430498Y-92885820D01*
X101394188Y-93005518D01*
X101381928Y-93130000D01*
X98644999Y-93130000D01*
X98644999Y-91836579D01*
X101393348Y-89088230D01*
X101442068Y-89333158D01*
X101554010Y-89603411D01*
X101716525Y-89846632D01*
X101923368Y-90053475D01*
X102105534Y-90175195D01*
X101988645Y-90244822D01*
X101772412Y-90439731D01*
X101598359Y-90673080D01*
X101473175Y-90935901D01*
X101428524Y-91083110D01*
X101549845Y-91313000D01*
X102743000Y-91313000D01*
X102743000Y-91293000D01*
X102997000Y-91293000D01*
X102997000Y-91313000D01*
X104190155Y-91313000D01*
X104311476Y-91083110D01*
X104266825Y-90935901D01*
X104141641Y-90673080D01*
X103967588Y-90439731D01*
X103751355Y-90244822D01*
X103634466Y-90175195D01*
X103816632Y-90053475D01*
X104023475Y-89846632D01*
X104185990Y-89603411D01*
X104297932Y-89333158D01*
X104355000Y-89046260D01*
X104355000Y-88753740D01*
X104297932Y-88466842D01*
X104185990Y-88196589D01*
X104023475Y-87953368D01*
X103816632Y-87746525D01*
X103642240Y-87630000D01*
X103816632Y-87513475D01*
X104023475Y-87306632D01*
X104185990Y-87063411D01*
X104297932Y-86793158D01*
X104355000Y-86506260D01*
X104355000Y-86213740D01*
X104297932Y-85926842D01*
X104185990Y-85656589D01*
X104023475Y-85413368D01*
X103816632Y-85206525D01*
X103642240Y-85090000D01*
X103816632Y-84973475D01*
X104023475Y-84766632D01*
X104185990Y-84523411D01*
X104297932Y-84253158D01*
X104355000Y-83966260D01*
X104355000Y-83673740D01*
X104297932Y-83386842D01*
X104185990Y-83116589D01*
X104023475Y-82873368D01*
X103816632Y-82666525D01*
X103642240Y-82550000D01*
X103816632Y-82433475D01*
X104023475Y-82226632D01*
X104185990Y-81983411D01*
X104297932Y-81713158D01*
X104355000Y-81426260D01*
X104355000Y-81133740D01*
X104297932Y-80846842D01*
X104185990Y-80576589D01*
X104023475Y-80333368D01*
X103816632Y-80126525D01*
X103642240Y-80010000D01*
X103816632Y-79893475D01*
X104023475Y-79686632D01*
X104185990Y-79443411D01*
X104297932Y-79173158D01*
X104355000Y-78886260D01*
X104355000Y-78593740D01*
X104297932Y-78306842D01*
X104185990Y-78036589D01*
X104023475Y-77793368D01*
X103816632Y-77586525D01*
X103642240Y-77470000D01*
X103816632Y-77353475D01*
X104023475Y-77146632D01*
X104185990Y-76903411D01*
X104297932Y-76633158D01*
X104355000Y-76346260D01*
X104355000Y-76053740D01*
X104297932Y-75766842D01*
X104185990Y-75496589D01*
X104023475Y-75253368D01*
X103816632Y-75046525D01*
X103573411Y-74884010D01*
X103331337Y-74783740D01*
X118565000Y-74783740D01*
X118565000Y-75076260D01*
X118622068Y-75363158D01*
X118734010Y-75633411D01*
X118896525Y-75876632D01*
X119103368Y-76083475D01*
X119285534Y-76205195D01*
X119168645Y-76274822D01*
X118952412Y-76469731D01*
X118778359Y-76703080D01*
X118653175Y-76965901D01*
X118608524Y-77113110D01*
X118729845Y-77343000D01*
X119923000Y-77343000D01*
X119923000Y-77323000D01*
X120177000Y-77323000D01*
X120177000Y-77343000D01*
X121370155Y-77343000D01*
X121491476Y-77113110D01*
X121446825Y-76965901D01*
X121321641Y-76703080D01*
X121147588Y-76469731D01*
X120931355Y-76274822D01*
X120814466Y-76205195D01*
X120996632Y-76083475D01*
X121203475Y-75876632D01*
X121365990Y-75633411D01*
X121477932Y-75363158D01*
X121535000Y-75076260D01*
X121535000Y-74783740D01*
X121477932Y-74496842D01*
X121365990Y-74226589D01*
X121203475Y-73983368D01*
X120996632Y-73776525D01*
X120753411Y-73614010D01*
X120483158Y-73502068D01*
X120196260Y-73445000D01*
X119903740Y-73445000D01*
X119616842Y-73502068D01*
X119346589Y-73614010D01*
X119103368Y-73776525D01*
X118896525Y-73983368D01*
X118734010Y-74226589D01*
X118622068Y-74496842D01*
X118565000Y-74783740D01*
X103331337Y-74783740D01*
X103303158Y-74772068D01*
X103016260Y-74715000D01*
X102723740Y-74715000D01*
X102436842Y-74772068D01*
X102166589Y-74884010D01*
X101923368Y-75046525D01*
X101716525Y-75253368D01*
X101554010Y-75496589D01*
X101442068Y-75766842D01*
X101385000Y-76053740D01*
X101385000Y-76346260D01*
X101442068Y-76633158D01*
X101554010Y-76903411D01*
X101716525Y-77146632D01*
X101923368Y-77353475D01*
X102097760Y-77470000D01*
X101923368Y-77586525D01*
X101716525Y-77793368D01*
X101554010Y-78036589D01*
X101442068Y-78306842D01*
X101385000Y-78593740D01*
X101385000Y-78886260D01*
X101442068Y-79173158D01*
X101554010Y-79443411D01*
X101716525Y-79686632D01*
X101923368Y-79893475D01*
X102097760Y-80010000D01*
X101923368Y-80126525D01*
X101716525Y-80333368D01*
X101554010Y-80576589D01*
X101442068Y-80846842D01*
X101385000Y-81133740D01*
X101385000Y-81426260D01*
X101442068Y-81713158D01*
X101554010Y-81983411D01*
X101716525Y-82226632D01*
X101923368Y-82433475D01*
X102097760Y-82550000D01*
X101923368Y-82666525D01*
X101716525Y-82873368D01*
X101554010Y-83116589D01*
X101442068Y-83386842D01*
X101385000Y-83673740D01*
X101385000Y-83966260D01*
X101442068Y-84253158D01*
X101554010Y-84523411D01*
X101716525Y-84766632D01*
X101923368Y-84973475D01*
X102097760Y-85090000D01*
X101923368Y-85206525D01*
X101716525Y-85413368D01*
X101554010Y-85656589D01*
X101442068Y-85926842D01*
X101385000Y-86213740D01*
X101385000Y-86506260D01*
X101399461Y-86578960D01*
X97164951Y-90813471D01*
X97131183Y-90841184D01*
X97103470Y-90874952D01*
X97103467Y-90874955D01*
X97020589Y-90975942D01*
X96938411Y-91129688D01*
X96887804Y-91296511D01*
X96870718Y-91470001D01*
X93370000Y-91470001D01*
X93370000Y-72288061D01*
X124695000Y-72288061D01*
X124695000Y-72491939D01*
X124734774Y-72691898D01*
X124812795Y-72880256D01*
X124845000Y-72928455D01*
X124845001Y-74886521D01*
X124840719Y-74930000D01*
X124857805Y-75103490D01*
X124908412Y-75270313D01*
X124990590Y-75424059D01*
X125073468Y-75525046D01*
X125073471Y-75525049D01*
X125101184Y-75558817D01*
X125134951Y-75586529D01*
X125993465Y-76445044D01*
X126004774Y-76501898D01*
X126082795Y-76690256D01*
X126196063Y-76859774D01*
X126340226Y-77003937D01*
X126509744Y-77117205D01*
X126698102Y-77195226D01*
X126898061Y-77235000D01*
X127101939Y-77235000D01*
X127301898Y-77195226D01*
X127490256Y-77117205D01*
X127659774Y-77003937D01*
X127803937Y-76859774D01*
X127917205Y-76690256D01*
X127995226Y-76501898D01*
X128035000Y-76301939D01*
X128035000Y-76098061D01*
X127995226Y-75898102D01*
X127917205Y-75709744D01*
X127803937Y-75540226D01*
X127659774Y-75396063D01*
X127490256Y-75282795D01*
X127301898Y-75204774D01*
X127245044Y-75193465D01*
X126835319Y-74783740D01*
X144565000Y-74783740D01*
X144565000Y-75076260D01*
X144622068Y-75363158D01*
X144734010Y-75633411D01*
X144896525Y-75876632D01*
X145103368Y-76083475D01*
X145285534Y-76205195D01*
X145168645Y-76274822D01*
X144952412Y-76469731D01*
X144778359Y-76703080D01*
X144653175Y-76965901D01*
X144608524Y-77113110D01*
X144729845Y-77343000D01*
X145923000Y-77343000D01*
X145923000Y-77323000D01*
X146177000Y-77323000D01*
X146177000Y-77343000D01*
X147370155Y-77343000D01*
X147491476Y-77113110D01*
X147446825Y-76965901D01*
X147321641Y-76703080D01*
X147147588Y-76469731D01*
X146931355Y-76274822D01*
X146814466Y-76205195D01*
X146996632Y-76083475D01*
X147203475Y-75876632D01*
X147365990Y-75633411D01*
X147477932Y-75363158D01*
X147535000Y-75076260D01*
X147535000Y-74783740D01*
X147477932Y-74496842D01*
X147365990Y-74226589D01*
X147203475Y-73983368D01*
X146996632Y-73776525D01*
X146753411Y-73614010D01*
X146483158Y-73502068D01*
X146196260Y-73445000D01*
X145903740Y-73445000D01*
X145616842Y-73502068D01*
X145346589Y-73614010D01*
X145103368Y-73776525D01*
X144896525Y-73983368D01*
X144734010Y-74226589D01*
X144622068Y-74496842D01*
X144565000Y-74783740D01*
X126835319Y-74783740D01*
X126615000Y-74563422D01*
X126615000Y-72928454D01*
X126647205Y-72880256D01*
X126725226Y-72691898D01*
X126765000Y-72491939D01*
X126765000Y-72288061D01*
X126725226Y-72088102D01*
X126647205Y-71899744D01*
X126533937Y-71730226D01*
X126389774Y-71586063D01*
X126220256Y-71472795D01*
X126031898Y-71394774D01*
X125831939Y-71355000D01*
X125628061Y-71355000D01*
X125428102Y-71394774D01*
X125239744Y-71472795D01*
X125070226Y-71586063D01*
X124926063Y-71730226D01*
X124812795Y-71899744D01*
X124734774Y-72088102D01*
X124695000Y-72288061D01*
X93370000Y-72288061D01*
X93370000Y-67179721D01*
X118615000Y-67179721D01*
X118615000Y-67600279D01*
X118697047Y-68012756D01*
X118857988Y-68401302D01*
X119091637Y-68750983D01*
X119389017Y-69048363D01*
X119738698Y-69282012D01*
X120127244Y-69442953D01*
X120539721Y-69525000D01*
X120960279Y-69525000D01*
X121372756Y-69442953D01*
X121761302Y-69282012D01*
X122110983Y-69048363D01*
X122408363Y-68750983D01*
X122642012Y-68401302D01*
X122802953Y-68012756D01*
X122885000Y-67600279D01*
X122885000Y-67179721D01*
X122802953Y-66767244D01*
X122642012Y-66378698D01*
X122408363Y-66029017D01*
X122110983Y-65731637D01*
X121761302Y-65497988D01*
X121372756Y-65337047D01*
X120960279Y-65255000D01*
X120539721Y-65255000D01*
X120127244Y-65337047D01*
X119738698Y-65497988D01*
X119389017Y-65731637D01*
X119091637Y-66029017D01*
X118857988Y-66378698D01*
X118697047Y-66767244D01*
X118615000Y-67179721D01*
X93370000Y-67179721D01*
X93370000Y-55912279D01*
X93396197Y-55645098D01*
X94135000Y-55645098D01*
X94135000Y-56114902D01*
X94226654Y-56575679D01*
X94406440Y-57009721D01*
X94667450Y-57400349D01*
X94999651Y-57732550D01*
X95390279Y-57993560D01*
X95824321Y-58173346D01*
X96285098Y-58265000D01*
X96754902Y-58265000D01*
X97215679Y-58173346D01*
X97649721Y-57993560D01*
X98040349Y-57732550D01*
X98372550Y-57400349D01*
X98633560Y-57009721D01*
X98636037Y-57003740D01*
X117895000Y-57003740D01*
X117895000Y-57296260D01*
X117952068Y-57583158D01*
X118064010Y-57853411D01*
X118226525Y-58096632D01*
X118433368Y-58303475D01*
X118676589Y-58465990D01*
X118946842Y-58577932D01*
X119233740Y-58635000D01*
X119526260Y-58635000D01*
X119813158Y-58577932D01*
X120083411Y-58465990D01*
X120326632Y-58303475D01*
X120533475Y-58096632D01*
X120650000Y-57922240D01*
X120766525Y-58096632D01*
X120973368Y-58303475D01*
X121216589Y-58465990D01*
X121486842Y-58577932D01*
X121773740Y-58635000D01*
X122066260Y-58635000D01*
X122353158Y-58577932D01*
X122623411Y-58465990D01*
X122866632Y-58303475D01*
X123073475Y-58096632D01*
X123190000Y-57922240D01*
X123306525Y-58096632D01*
X123513368Y-58303475D01*
X123756589Y-58465990D01*
X124026842Y-58577932D01*
X124313740Y-58635000D01*
X124606260Y-58635000D01*
X124796918Y-58597075D01*
X136577658Y-70377816D01*
X136602236Y-70407764D01*
X136632184Y-70432342D01*
X136632187Y-70432345D01*
X136661559Y-70456450D01*
X136721767Y-70505862D01*
X136858140Y-70578754D01*
X136971672Y-70613194D01*
X137006112Y-70623641D01*
X137020490Y-70625057D01*
X137121439Y-70635000D01*
X137121446Y-70635000D01*
X137159999Y-70638797D01*
X137198552Y-70635000D01*
X146011447Y-70635000D01*
X146050000Y-70638797D01*
X146088553Y-70635000D01*
X146088561Y-70635000D01*
X146203887Y-70623641D01*
X146351860Y-70578754D01*
X146488233Y-70505862D01*
X146607764Y-70407764D01*
X146632347Y-70377810D01*
X148665158Y-68345000D01*
X148691939Y-68345000D01*
X148891898Y-68305226D01*
X149080256Y-68227205D01*
X149249774Y-68113937D01*
X149393937Y-67969774D01*
X149507205Y-67800256D01*
X149585226Y-67611898D01*
X149625000Y-67411939D01*
X149625000Y-67208061D01*
X149585226Y-67008102D01*
X149507205Y-66819744D01*
X149393937Y-66650226D01*
X149249774Y-66506063D01*
X149080256Y-66392795D01*
X148891898Y-66314774D01*
X148691939Y-66275000D01*
X148488061Y-66275000D01*
X148288102Y-66314774D01*
X148099744Y-66392795D01*
X147930226Y-66506063D01*
X147786063Y-66650226D01*
X147672795Y-66819744D01*
X147594774Y-67008102D01*
X147555000Y-67208061D01*
X147555000Y-67234842D01*
X147485000Y-67304842D01*
X147485000Y-67179721D01*
X147402953Y-66767244D01*
X147242012Y-66378698D01*
X147008363Y-66029017D01*
X146710983Y-65731637D01*
X146361302Y-65497988D01*
X145972756Y-65337047D01*
X145807900Y-65304255D01*
X148825000Y-62287156D01*
X148825000Y-62331939D01*
X148864774Y-62531898D01*
X148942795Y-62720256D01*
X149056063Y-62889774D01*
X149200226Y-63033937D01*
X149369744Y-63147205D01*
X149558102Y-63225226D01*
X149758061Y-63265000D01*
X149961939Y-63265000D01*
X150161898Y-63225226D01*
X150350256Y-63147205D01*
X150519774Y-63033937D01*
X150663937Y-62889774D01*
X150777205Y-62720256D01*
X150855226Y-62531898D01*
X150895000Y-62331939D01*
X150895000Y-62305157D01*
X151517687Y-61682471D01*
X151518388Y-61683520D01*
X151676480Y-61841612D01*
X151862376Y-61965824D01*
X152068933Y-62051383D01*
X152288212Y-62095000D01*
X152511788Y-62095000D01*
X152731067Y-62051383D01*
X152842774Y-62005112D01*
X152925820Y-62049502D01*
X153045518Y-62085812D01*
X153170000Y-62098072D01*
X154170000Y-62098072D01*
X154294482Y-62085812D01*
X154414180Y-62049502D01*
X154524494Y-61990537D01*
X154621185Y-61911185D01*
X154700537Y-61814494D01*
X154759502Y-61704180D01*
X154795812Y-61584482D01*
X154808072Y-61460000D01*
X154808072Y-60460000D01*
X154795812Y-60335518D01*
X154759502Y-60215820D01*
X154711930Y-60126820D01*
X154747446Y-60046864D01*
X154764119Y-59991874D01*
X154637954Y-59817000D01*
X153797000Y-59817000D01*
X153797000Y-59821928D01*
X153543000Y-59821928D01*
X153543000Y-59817000D01*
X153531974Y-59817000D01*
X153535000Y-59801788D01*
X153535000Y-59578212D01*
X153531974Y-59563000D01*
X153543000Y-59563000D01*
X153543000Y-58547000D01*
X153797000Y-58547000D01*
X153797000Y-59563000D01*
X154637954Y-59563000D01*
X154764119Y-59388126D01*
X154747446Y-59333136D01*
X154657123Y-59129794D01*
X154604361Y-59055000D01*
X154657123Y-58980206D01*
X154747446Y-58776864D01*
X154764119Y-58721874D01*
X154637954Y-58547000D01*
X153797000Y-58547000D01*
X153543000Y-58547000D01*
X153531974Y-58547000D01*
X153535000Y-58531788D01*
X153535000Y-58308212D01*
X153531974Y-58293000D01*
X153543000Y-58293000D01*
X153543000Y-58281974D01*
X153558212Y-58285000D01*
X153781788Y-58285000D01*
X153797000Y-58281974D01*
X153797000Y-58293000D01*
X154637954Y-58293000D01*
X154764119Y-58118126D01*
X154747446Y-58063136D01*
X154657123Y-57859794D01*
X154607647Y-57789658D01*
X154675824Y-57687624D01*
X154761383Y-57481067D01*
X154805000Y-57261788D01*
X154805000Y-57038212D01*
X154761383Y-56818933D01*
X154675824Y-56612376D01*
X154607647Y-56510342D01*
X154657123Y-56440206D01*
X154747446Y-56236864D01*
X154764119Y-56181874D01*
X154637954Y-56007000D01*
X153797000Y-56007000D01*
X153797000Y-56018026D01*
X153781788Y-56015000D01*
X153558212Y-56015000D01*
X153543000Y-56018026D01*
X153543000Y-56007000D01*
X153531974Y-56007000D01*
X153535000Y-55991788D01*
X153535000Y-55768212D01*
X153531974Y-55753000D01*
X153543000Y-55753000D01*
X153543000Y-54910871D01*
X153797000Y-54910871D01*
X153797000Y-55753000D01*
X154637954Y-55753000D01*
X154715801Y-55645098D01*
X161445000Y-55645098D01*
X161445000Y-56114902D01*
X161536654Y-56575679D01*
X161716440Y-57009721D01*
X161977450Y-57400349D01*
X162309651Y-57732550D01*
X162700279Y-57993560D01*
X163134321Y-58173346D01*
X163595098Y-58265000D01*
X164064902Y-58265000D01*
X164525679Y-58173346D01*
X164959721Y-57993560D01*
X165350349Y-57732550D01*
X165682550Y-57400349D01*
X165943560Y-57009721D01*
X166123346Y-56575679D01*
X166215000Y-56114902D01*
X166215000Y-55645098D01*
X166123346Y-55184321D01*
X165943560Y-54750279D01*
X165682550Y-54359651D01*
X165350349Y-54027450D01*
X164959721Y-53766440D01*
X164525679Y-53586654D01*
X164064902Y-53495000D01*
X163595098Y-53495000D01*
X163134321Y-53586654D01*
X162700279Y-53766440D01*
X162309651Y-54027450D01*
X161977450Y-54359651D01*
X161716440Y-54750279D01*
X161536654Y-55184321D01*
X161445000Y-55645098D01*
X154715801Y-55645098D01*
X154764119Y-55578126D01*
X154747446Y-55523136D01*
X154657123Y-55319794D01*
X154528865Y-55137980D01*
X154367601Y-54984682D01*
X154179529Y-54865790D01*
X153971876Y-54785874D01*
X153797000Y-54910871D01*
X153543000Y-54910871D01*
X153368124Y-54785874D01*
X153160471Y-54865790D01*
X153039512Y-54942256D01*
X152937624Y-54874176D01*
X152731067Y-54788617D01*
X152511788Y-54745000D01*
X152288212Y-54745000D01*
X152068933Y-54788617D01*
X151862376Y-54874176D01*
X151676480Y-54998388D01*
X151518388Y-55156480D01*
X151394176Y-55342376D01*
X151308617Y-55548933D01*
X151265000Y-55768212D01*
X151265000Y-55991788D01*
X151308617Y-56211067D01*
X151394176Y-56417624D01*
X151459241Y-56515000D01*
X151394176Y-56612376D01*
X151308617Y-56818933D01*
X151265000Y-57038212D01*
X151265000Y-57261788D01*
X151308617Y-57481067D01*
X151382779Y-57660110D01*
X151292078Y-57687624D01*
X151280138Y-57691246D01*
X151143765Y-57764138D01*
X151083557Y-57813550D01*
X151054185Y-57837655D01*
X151054182Y-57837658D01*
X151024234Y-57862236D01*
X150999656Y-57892184D01*
X142886840Y-66005001D01*
X140735000Y-66005001D01*
X140735000Y-65938061D01*
X140695226Y-65738102D01*
X140617205Y-65549744D01*
X140503937Y-65380226D01*
X140359774Y-65236063D01*
X140190256Y-65122795D01*
X140001898Y-65044774D01*
X139945044Y-65033465D01*
X133120843Y-58209264D01*
X133233475Y-58096632D01*
X133350000Y-57922240D01*
X133466525Y-58096632D01*
X133673368Y-58303475D01*
X133916589Y-58465990D01*
X134186842Y-58577932D01*
X134473740Y-58635000D01*
X134766260Y-58635000D01*
X135053158Y-58577932D01*
X135323411Y-58465990D01*
X135566632Y-58303475D01*
X135773475Y-58096632D01*
X135890000Y-57922240D01*
X136006525Y-58096632D01*
X136213368Y-58303475D01*
X136456589Y-58465990D01*
X136726842Y-58577932D01*
X137013740Y-58635000D01*
X137306260Y-58635000D01*
X137593158Y-58577932D01*
X137863411Y-58465990D01*
X138106632Y-58303475D01*
X138313475Y-58096632D01*
X138430000Y-57922240D01*
X138546525Y-58096632D01*
X138753368Y-58303475D01*
X138996589Y-58465990D01*
X139266842Y-58577932D01*
X139553740Y-58635000D01*
X139846260Y-58635000D01*
X140133158Y-58577932D01*
X140403411Y-58465990D01*
X140646632Y-58303475D01*
X140778487Y-58171620D01*
X140800498Y-58244180D01*
X140859463Y-58354494D01*
X140938815Y-58451185D01*
X141035506Y-58530537D01*
X141145820Y-58589502D01*
X141265518Y-58625812D01*
X141390000Y-58638072D01*
X143090000Y-58638072D01*
X143214482Y-58625812D01*
X143334180Y-58589502D01*
X143444494Y-58530537D01*
X143541185Y-58451185D01*
X143620537Y-58354494D01*
X143679502Y-58244180D01*
X143715812Y-58124482D01*
X143728072Y-58000000D01*
X143728072Y-56300000D01*
X143715812Y-56175518D01*
X143679502Y-56055820D01*
X143620537Y-55945506D01*
X143541185Y-55848815D01*
X143444494Y-55769463D01*
X143334180Y-55710498D01*
X143261620Y-55688487D01*
X143393475Y-55556632D01*
X143555990Y-55313411D01*
X143667932Y-55043158D01*
X143725000Y-54756260D01*
X143725000Y-54463740D01*
X143667932Y-54176842D01*
X143555990Y-53906589D01*
X143393475Y-53663368D01*
X143186632Y-53456525D01*
X142943411Y-53294010D01*
X142673158Y-53182068D01*
X142386260Y-53125000D01*
X142093740Y-53125000D01*
X141806842Y-53182068D01*
X141536589Y-53294010D01*
X141293368Y-53456525D01*
X141086525Y-53663368D01*
X140964805Y-53845534D01*
X140895178Y-53728645D01*
X140700269Y-53512412D01*
X140466920Y-53338359D01*
X140204099Y-53213175D01*
X140056890Y-53168524D01*
X139827000Y-53289845D01*
X139827000Y-54483000D01*
X139847000Y-54483000D01*
X139847000Y-54737000D01*
X139827000Y-54737000D01*
X139827000Y-54757000D01*
X139573000Y-54757000D01*
X139573000Y-54737000D01*
X137287000Y-54737000D01*
X137287000Y-54757000D01*
X137033000Y-54757000D01*
X137033000Y-54737000D01*
X134747000Y-54737000D01*
X134747000Y-54757000D01*
X134493000Y-54757000D01*
X134493000Y-54737000D01*
X132207000Y-54737000D01*
X132207000Y-54757000D01*
X131953000Y-54757000D01*
X131953000Y-54737000D01*
X129667000Y-54737000D01*
X129667000Y-54757000D01*
X129413000Y-54757000D01*
X129413000Y-54737000D01*
X127127000Y-54737000D01*
X127127000Y-54757000D01*
X126873000Y-54757000D01*
X126873000Y-54737000D01*
X124587000Y-54737000D01*
X124587000Y-54757000D01*
X124333000Y-54757000D01*
X124333000Y-54737000D01*
X122047000Y-54737000D01*
X122047000Y-54757000D01*
X121793000Y-54757000D01*
X121793000Y-54737000D01*
X119507000Y-54737000D01*
X119507000Y-54757000D01*
X119253000Y-54757000D01*
X119253000Y-54737000D01*
X118059186Y-54737000D01*
X117938519Y-54966891D01*
X118035843Y-55241252D01*
X118184822Y-55491355D01*
X118379731Y-55707588D01*
X118609406Y-55878900D01*
X118433368Y-55996525D01*
X118226525Y-56203368D01*
X118064010Y-56446589D01*
X117952068Y-56716842D01*
X117895000Y-57003740D01*
X98636037Y-57003740D01*
X98813346Y-56575679D01*
X98905000Y-56114902D01*
X98905000Y-55645098D01*
X98813346Y-55184321D01*
X98633560Y-54750279D01*
X98372550Y-54359651D01*
X98266008Y-54253109D01*
X117938519Y-54253109D01*
X118059186Y-54483000D01*
X119253000Y-54483000D01*
X119253000Y-53289845D01*
X119507000Y-53289845D01*
X119507000Y-54483000D01*
X121793000Y-54483000D01*
X121793000Y-53289845D01*
X122047000Y-53289845D01*
X122047000Y-54483000D01*
X124333000Y-54483000D01*
X124333000Y-53289845D01*
X124587000Y-53289845D01*
X124587000Y-54483000D01*
X126873000Y-54483000D01*
X126873000Y-53289845D01*
X127127000Y-53289845D01*
X127127000Y-54483000D01*
X129413000Y-54483000D01*
X129413000Y-53289845D01*
X129667000Y-53289845D01*
X129667000Y-54483000D01*
X131953000Y-54483000D01*
X131953000Y-53289845D01*
X132207000Y-53289845D01*
X132207000Y-54483000D01*
X134493000Y-54483000D01*
X134493000Y-53289845D01*
X134747000Y-53289845D01*
X134747000Y-54483000D01*
X137033000Y-54483000D01*
X137033000Y-53289845D01*
X137287000Y-53289845D01*
X137287000Y-54483000D01*
X139573000Y-54483000D01*
X139573000Y-53289845D01*
X139343110Y-53168524D01*
X139195901Y-53213175D01*
X138933080Y-53338359D01*
X138699731Y-53512412D01*
X138504822Y-53728645D01*
X138430000Y-53854255D01*
X138355178Y-53728645D01*
X138160269Y-53512412D01*
X137926920Y-53338359D01*
X137664099Y-53213175D01*
X137516890Y-53168524D01*
X137287000Y-53289845D01*
X137033000Y-53289845D01*
X136803110Y-53168524D01*
X136655901Y-53213175D01*
X136393080Y-53338359D01*
X136159731Y-53512412D01*
X135964822Y-53728645D01*
X135890000Y-53854255D01*
X135815178Y-53728645D01*
X135620269Y-53512412D01*
X135386920Y-53338359D01*
X135124099Y-53213175D01*
X134976890Y-53168524D01*
X134747000Y-53289845D01*
X134493000Y-53289845D01*
X134263110Y-53168524D01*
X134115901Y-53213175D01*
X133853080Y-53338359D01*
X133619731Y-53512412D01*
X133424822Y-53728645D01*
X133350000Y-53854255D01*
X133275178Y-53728645D01*
X133080269Y-53512412D01*
X132846920Y-53338359D01*
X132584099Y-53213175D01*
X132436890Y-53168524D01*
X132207000Y-53289845D01*
X131953000Y-53289845D01*
X131723110Y-53168524D01*
X131575901Y-53213175D01*
X131313080Y-53338359D01*
X131079731Y-53512412D01*
X130884822Y-53728645D01*
X130810000Y-53854255D01*
X130735178Y-53728645D01*
X130540269Y-53512412D01*
X130306920Y-53338359D01*
X130044099Y-53213175D01*
X129896890Y-53168524D01*
X129667000Y-53289845D01*
X129413000Y-53289845D01*
X129183110Y-53168524D01*
X129035901Y-53213175D01*
X128773080Y-53338359D01*
X128539731Y-53512412D01*
X128344822Y-53728645D01*
X128270000Y-53854255D01*
X128195178Y-53728645D01*
X128000269Y-53512412D01*
X127766920Y-53338359D01*
X127504099Y-53213175D01*
X127356890Y-53168524D01*
X127127000Y-53289845D01*
X126873000Y-53289845D01*
X126643110Y-53168524D01*
X126495901Y-53213175D01*
X126233080Y-53338359D01*
X125999731Y-53512412D01*
X125804822Y-53728645D01*
X125730000Y-53854255D01*
X125655178Y-53728645D01*
X125460269Y-53512412D01*
X125226920Y-53338359D01*
X124964099Y-53213175D01*
X124816890Y-53168524D01*
X124587000Y-53289845D01*
X124333000Y-53289845D01*
X124103110Y-53168524D01*
X123955901Y-53213175D01*
X123693080Y-53338359D01*
X123459731Y-53512412D01*
X123264822Y-53728645D01*
X123190000Y-53854255D01*
X123115178Y-53728645D01*
X122920269Y-53512412D01*
X122686920Y-53338359D01*
X122424099Y-53213175D01*
X122276890Y-53168524D01*
X122047000Y-53289845D01*
X121793000Y-53289845D01*
X121563110Y-53168524D01*
X121415901Y-53213175D01*
X121153080Y-53338359D01*
X120919731Y-53512412D01*
X120724822Y-53728645D01*
X120650000Y-53854255D01*
X120575178Y-53728645D01*
X120380269Y-53512412D01*
X120146920Y-53338359D01*
X119884099Y-53213175D01*
X119736890Y-53168524D01*
X119507000Y-53289845D01*
X119253000Y-53289845D01*
X119023110Y-53168524D01*
X118875901Y-53213175D01*
X118613080Y-53338359D01*
X118379731Y-53512412D01*
X118184822Y-53728645D01*
X118035843Y-53978748D01*
X117938519Y-54253109D01*
X98266008Y-54253109D01*
X98040349Y-54027450D01*
X97649721Y-53766440D01*
X97215679Y-53586654D01*
X96754902Y-53495000D01*
X96285098Y-53495000D01*
X95824321Y-53586654D01*
X95390279Y-53766440D01*
X94999651Y-54027450D01*
X94667450Y-54359651D01*
X94406440Y-54750279D01*
X94226654Y-55184321D01*
X94135000Y-55645098D01*
X93396197Y-55645098D01*
X93433096Y-55268778D01*
X93610606Y-54680836D01*
X93898937Y-54138564D01*
X94287094Y-53662636D01*
X94760314Y-53271155D01*
X95300552Y-52979049D01*
X95887244Y-52797437D01*
X96528879Y-52730000D01*
X163797721Y-52730000D01*
X164441222Y-52793096D01*
G37*
X164441222Y-52793096D02*
X165029164Y-52970606D01*
X165571436Y-53258937D01*
X166047364Y-53647094D01*
X166438845Y-54120314D01*
X166730951Y-54660552D01*
X166912563Y-55247244D01*
X166980000Y-55888879D01*
X166980001Y-134587711D01*
X166916904Y-135231221D01*
X166739394Y-135819164D01*
X166451063Y-136361436D01*
X166062906Y-136837364D01*
X165589686Y-137228845D01*
X165049449Y-137520950D01*
X164462756Y-137702563D01*
X163821130Y-137770000D01*
X96552279Y-137770000D01*
X95908779Y-137706904D01*
X95320836Y-137529394D01*
X94778564Y-137241063D01*
X94302636Y-136852906D01*
X93911155Y-136379686D01*
X93619050Y-135839449D01*
X93437437Y-135252756D01*
X93370000Y-134611130D01*
X93370000Y-134385098D01*
X94135000Y-134385098D01*
X94135000Y-134854902D01*
X94226654Y-135315679D01*
X94406440Y-135749721D01*
X94667450Y-136140349D01*
X94999651Y-136472550D01*
X95390279Y-136733560D01*
X95824321Y-136913346D01*
X96285098Y-137005000D01*
X96754902Y-137005000D01*
X97215679Y-136913346D01*
X97649721Y-136733560D01*
X98040349Y-136472550D01*
X98372550Y-136140349D01*
X98633560Y-135749721D01*
X98813346Y-135315679D01*
X98905000Y-134854902D01*
X98905000Y-134385098D01*
X161445000Y-134385098D01*
X161445000Y-134854902D01*
X161536654Y-135315679D01*
X161716440Y-135749721D01*
X161977450Y-136140349D01*
X162309651Y-136472550D01*
X162700279Y-136733560D01*
X163134321Y-136913346D01*
X163595098Y-137005000D01*
X164064902Y-137005000D01*
X164525679Y-136913346D01*
X164959721Y-136733560D01*
X165350349Y-136472550D01*
X165682550Y-136140349D01*
X165943560Y-135749721D01*
X166123346Y-135315679D01*
X166215000Y-134854902D01*
X166215000Y-134385098D01*
X166123346Y-133924321D01*
X165943560Y-133490279D01*
X165682550Y-133099651D01*
X165350349Y-132767450D01*
X164959721Y-132506440D01*
X164525679Y-132326654D01*
X164064902Y-132235000D01*
X163595098Y-132235000D01*
X163134321Y-132326654D01*
X162700279Y-132506440D01*
X162309651Y-132767450D01*
X161977450Y-133099651D01*
X161716440Y-133490279D01*
X161536654Y-133924321D01*
X161445000Y-134385098D01*
X98905000Y-134385098D01*
X98813346Y-133924321D01*
X98633560Y-133490279D01*
X98372550Y-133099651D01*
X98040349Y-132767450D01*
X97649721Y-132506440D01*
X97215679Y-132326654D01*
X96754902Y-132235000D01*
X96285098Y-132235000D01*
X95824321Y-132326654D01*
X95390279Y-132506440D01*
X94999651Y-132767450D01*
X94667450Y-133099651D01*
X94406440Y-133490279D01*
X94226654Y-133924321D01*
X94135000Y-134385098D01*
X93370000Y-134385098D01*
X93370000Y-129245000D01*
X107731928Y-129245000D01*
X107744188Y-129369482D01*
X107780498Y-129489180D01*
X107839463Y-129599494D01*
X107918815Y-129696185D01*
X108015506Y-129775537D01*
X108125820Y-129834502D01*
X108245518Y-129870812D01*
X108370000Y-129883072D01*
X108934250Y-129880000D01*
X109093000Y-129721250D01*
X109093000Y-128397000D01*
X107893750Y-128397000D01*
X107735000Y-128555750D01*
X107731928Y-129245000D01*
X93370000Y-129245000D01*
X93370000Y-127295000D01*
X107731928Y-127295000D01*
X107735000Y-127984250D01*
X107893750Y-128143000D01*
X109093000Y-128143000D01*
X109093000Y-126818750D01*
X109347000Y-126818750D01*
X109347000Y-128143000D01*
X109367000Y-128143000D01*
X109367000Y-128397000D01*
X109347000Y-128397000D01*
X109347000Y-129721250D01*
X109505750Y-129880000D01*
X110070000Y-129883072D01*
X110194482Y-129870812D01*
X110314180Y-129834502D01*
X110424494Y-129775537D01*
X110521185Y-129696185D01*
X110600537Y-129599494D01*
X110659502Y-129489180D01*
X110670055Y-129454392D01*
X110890987Y-129635706D01*
X111148967Y-129773599D01*
X111428890Y-129858513D01*
X111720000Y-129887185D01*
X112011111Y-129858513D01*
X112291034Y-129773599D01*
X112549014Y-129635706D01*
X112775134Y-129450134D01*
X112960706Y-129224014D01*
X112970000Y-129206626D01*
X112979294Y-129224014D01*
X113164866Y-129450134D01*
X113390987Y-129635706D01*
X113648967Y-129773599D01*
X113928890Y-129858513D01*
X114220000Y-129887185D01*
X114511111Y-129858513D01*
X114791034Y-129773599D01*
X115049014Y-129635706D01*
X115275134Y-129450134D01*
X115443483Y-129245000D01*
X120431928Y-129245000D01*
X120444188Y-129369482D01*
X120480498Y-129489180D01*
X120539463Y-129599494D01*
X120618815Y-129696185D01*
X120715506Y-129775537D01*
X120825820Y-129834502D01*
X120945518Y-129870812D01*
X121070000Y-129883072D01*
X121634250Y-129880000D01*
X121793000Y-129721250D01*
X121793000Y-128397000D01*
X120593750Y-128397000D01*
X120435000Y-128555750D01*
X120431928Y-129245000D01*
X115443483Y-129245000D01*
X115460706Y-129224014D01*
X115497595Y-129155000D01*
X118066531Y-129155000D01*
X118110000Y-129159281D01*
X118153469Y-129155000D01*
X118153477Y-129155000D01*
X118283490Y-129142195D01*
X118450313Y-129091589D01*
X118604059Y-129009411D01*
X118738817Y-128898817D01*
X118766534Y-128865044D01*
X120442345Y-127189233D01*
X120431928Y-127295000D01*
X120435000Y-127984250D01*
X120593750Y-128143000D01*
X121793000Y-128143000D01*
X121793000Y-126818750D01*
X121634250Y-126660000D01*
X121070000Y-126656928D01*
X120964233Y-126667345D01*
X144573349Y-103058230D01*
X144579461Y-103088960D01*
X126324956Y-121343466D01*
X126291183Y-121371183D01*
X126180589Y-121505942D01*
X126098411Y-121659688D01*
X126047805Y-121826511D01*
X126035000Y-121956524D01*
X126035000Y-121956531D01*
X126030719Y-122000000D01*
X126035000Y-122043469D01*
X126035001Y-126950240D01*
X125864866Y-127089866D01*
X125679294Y-127315987D01*
X125670000Y-127333374D01*
X125660706Y-127315986D01*
X125475134Y-127089866D01*
X125249013Y-126904294D01*
X124991033Y-126766401D01*
X124711110Y-126681487D01*
X124420000Y-126652815D01*
X124128889Y-126681487D01*
X123848966Y-126766401D01*
X123590986Y-126904294D01*
X123370055Y-127085608D01*
X123359502Y-127050820D01*
X123300537Y-126940506D01*
X123221185Y-126843815D01*
X123124494Y-126764463D01*
X123014180Y-126705498D01*
X122894482Y-126669188D01*
X122770000Y-126656928D01*
X122205750Y-126660000D01*
X122047000Y-126818750D01*
X122047000Y-128143000D01*
X122067000Y-128143000D01*
X122067000Y-128397000D01*
X122047000Y-128397000D01*
X122047000Y-129721250D01*
X122205750Y-129880000D01*
X122770000Y-129883072D01*
X122894482Y-129870812D01*
X123014180Y-129834502D01*
X123124494Y-129775537D01*
X123221185Y-129696185D01*
X123300537Y-129599494D01*
X123359502Y-129489180D01*
X123370055Y-129454392D01*
X123590987Y-129635706D01*
X123848967Y-129773599D01*
X124128890Y-129858513D01*
X124420000Y-129887185D01*
X124711111Y-129858513D01*
X124991034Y-129773599D01*
X125249014Y-129635706D01*
X125475134Y-129450134D01*
X125660706Y-129224014D01*
X125670000Y-129206626D01*
X125679294Y-129224014D01*
X125864866Y-129450134D01*
X126090987Y-129635706D01*
X126348967Y-129773599D01*
X126628890Y-129858513D01*
X126920000Y-129887185D01*
X127211111Y-129858513D01*
X127491034Y-129773599D01*
X127749014Y-129635706D01*
X127975134Y-129450134D01*
X128143483Y-129245000D01*
X133131928Y-129245000D01*
X133144188Y-129369482D01*
X133180498Y-129489180D01*
X133239463Y-129599494D01*
X133318815Y-129696185D01*
X133415506Y-129775537D01*
X133525820Y-129834502D01*
X133645518Y-129870812D01*
X133770000Y-129883072D01*
X134334250Y-129880000D01*
X134493000Y-129721250D01*
X134493000Y-128397000D01*
X133293750Y-128397000D01*
X133135000Y-128555750D01*
X133131928Y-129245000D01*
X128143483Y-129245000D01*
X128160706Y-129224014D01*
X128298599Y-128966033D01*
X128383513Y-128686110D01*
X128405000Y-128467949D01*
X128405000Y-128072050D01*
X128383513Y-127853889D01*
X128298599Y-127573966D01*
X128160706Y-127315986D01*
X128143484Y-127295000D01*
X133131928Y-127295000D01*
X133135000Y-127984250D01*
X133293750Y-128143000D01*
X134493000Y-128143000D01*
X134493000Y-126818750D01*
X134334250Y-126660000D01*
X133770000Y-126656928D01*
X133645518Y-126669188D01*
X133525820Y-126705498D01*
X133415506Y-126764463D01*
X133318815Y-126843815D01*
X133239463Y-126940506D01*
X133180498Y-127050820D01*
X133144188Y-127170518D01*
X133131928Y-127295000D01*
X128143484Y-127295000D01*
X127975134Y-127089866D01*
X127805000Y-126950241D01*
X127805000Y-122366578D01*
X144573348Y-105598230D01*
X144622068Y-105843158D01*
X144727273Y-106097146D01*
X139024952Y-111799468D01*
X138991184Y-111827181D01*
X138963471Y-111860949D01*
X138963468Y-111860952D01*
X138880590Y-111961939D01*
X138798412Y-112115685D01*
X138747805Y-112282508D01*
X138730719Y-112455998D01*
X138735001Y-112499477D01*
X138735000Y-126950240D01*
X138564866Y-127089866D01*
X138379294Y-127315987D01*
X138370000Y-127333374D01*
X138360706Y-127315986D01*
X138175134Y-127089866D01*
X137949013Y-126904294D01*
X137691033Y-126766401D01*
X137411110Y-126681487D01*
X137120000Y-126652815D01*
X136828889Y-126681487D01*
X136548966Y-126766401D01*
X136290986Y-126904294D01*
X136070055Y-127085608D01*
X136059502Y-127050820D01*
X136000537Y-126940506D01*
X135921185Y-126843815D01*
X135824494Y-126764463D01*
X135714180Y-126705498D01*
X135594482Y-126669188D01*
X135470000Y-126656928D01*
X134905750Y-126660000D01*
X134747000Y-126818750D01*
X134747000Y-128143000D01*
X134767000Y-128143000D01*
X134767000Y-128397000D01*
X134747000Y-128397000D01*
X134747000Y-129721250D01*
X134905750Y-129880000D01*
X135470000Y-129883072D01*
X135594482Y-129870812D01*
X135714180Y-129834502D01*
X135824494Y-129775537D01*
X135921185Y-129696185D01*
X136000537Y-129599494D01*
X136059502Y-129489180D01*
X136070055Y-129454392D01*
X136290987Y-129635706D01*
X136548967Y-129773599D01*
X136828890Y-129858513D01*
X137120000Y-129887185D01*
X137411111Y-129858513D01*
X137691034Y-129773599D01*
X137949014Y-129635706D01*
X138175134Y-129450134D01*
X138360706Y-129224014D01*
X138370000Y-129206626D01*
X138379294Y-129224014D01*
X138564866Y-129450134D01*
X138790987Y-129635706D01*
X139048967Y-129773599D01*
X139328890Y-129858513D01*
X139620000Y-129887185D01*
X139911111Y-129858513D01*
X140191034Y-129773599D01*
X140449014Y-129635706D01*
X140675134Y-129450134D01*
X140843483Y-129245000D01*
X145831928Y-129245000D01*
X145844188Y-129369482D01*
X145880498Y-129489180D01*
X145939463Y-129599494D01*
X146018815Y-129696185D01*
X146115506Y-129775537D01*
X146225820Y-129834502D01*
X146345518Y-129870812D01*
X146470000Y-129883072D01*
X147034250Y-129880000D01*
X147193000Y-129721250D01*
X147193000Y-128397000D01*
X145993750Y-128397000D01*
X145835000Y-128555750D01*
X145831928Y-129245000D01*
X140843483Y-129245000D01*
X140860706Y-129224014D01*
X140998599Y-128966033D01*
X141083513Y-128686110D01*
X141105000Y-128467949D01*
X141105000Y-128072050D01*
X141083513Y-127853889D01*
X140998599Y-127573966D01*
X140860706Y-127315986D01*
X140843484Y-127295000D01*
X145831928Y-127295000D01*
X145835000Y-127984250D01*
X145993750Y-128143000D01*
X147193000Y-128143000D01*
X147193000Y-126818750D01*
X147034250Y-126660000D01*
X146470000Y-126656928D01*
X146345518Y-126669188D01*
X146225820Y-126705498D01*
X146115506Y-126764463D01*
X146018815Y-126843815D01*
X145939463Y-126940506D01*
X145880498Y-127050820D01*
X145844188Y-127170518D01*
X145831928Y-127295000D01*
X140843484Y-127295000D01*
X140675134Y-127089866D01*
X140505000Y-126950241D01*
X140505000Y-112822576D01*
X144716482Y-108611095D01*
X144734010Y-108653411D01*
X144896525Y-108896632D01*
X145028380Y-109028487D01*
X144955820Y-109050498D01*
X144845506Y-109109463D01*
X144748815Y-109188815D01*
X144669463Y-109285506D01*
X144610498Y-109395820D01*
X144574188Y-109515518D01*
X144561928Y-109640000D01*
X144561928Y-111340000D01*
X144574188Y-111464482D01*
X144610498Y-111584180D01*
X144669463Y-111694494D01*
X144748815Y-111791185D01*
X144845506Y-111870537D01*
X144904116Y-111901865D01*
X144727244Y-111937047D01*
X144338698Y-112097988D01*
X143989017Y-112331637D01*
X143691637Y-112629017D01*
X143457988Y-112978698D01*
X143297047Y-113367244D01*
X143215000Y-113779721D01*
X143215000Y-114200279D01*
X143297047Y-114612756D01*
X143457988Y-115001302D01*
X143691637Y-115350983D01*
X143989017Y-115648363D01*
X144338698Y-115882012D01*
X144727244Y-116042953D01*
X145139721Y-116125000D01*
X145560279Y-116125000D01*
X145972756Y-116042953D01*
X146361302Y-115882012D01*
X146710983Y-115648363D01*
X147008363Y-115350983D01*
X147242012Y-115001302D01*
X147402953Y-114612756D01*
X147485000Y-114200279D01*
X147485000Y-113779721D01*
X147402953Y-113367244D01*
X147242012Y-112978698D01*
X147008363Y-112629017D01*
X146710983Y-112331637D01*
X146361302Y-112097988D01*
X146071799Y-111978072D01*
X146900000Y-111978072D01*
X147024482Y-111965812D01*
X147144180Y-111929502D01*
X147254494Y-111870537D01*
X147351185Y-111791185D01*
X147430537Y-111694494D01*
X147489502Y-111584180D01*
X147525812Y-111464482D01*
X147538072Y-111340000D01*
X147538072Y-110689650D01*
X151435001Y-114586580D01*
X151435000Y-126950240D01*
X151264866Y-127089866D01*
X151079294Y-127315987D01*
X151070000Y-127333374D01*
X151060706Y-127315986D01*
X150875134Y-127089866D01*
X150649013Y-126904294D01*
X150391033Y-126766401D01*
X150111110Y-126681487D01*
X149820000Y-126652815D01*
X149528889Y-126681487D01*
X149248966Y-126766401D01*
X148990986Y-126904294D01*
X148770055Y-127085608D01*
X148759502Y-127050820D01*
X148700537Y-126940506D01*
X148621185Y-126843815D01*
X148524494Y-126764463D01*
X148414180Y-126705498D01*
X148294482Y-126669188D01*
X148170000Y-126656928D01*
X147605750Y-126660000D01*
X147447000Y-126818750D01*
X147447000Y-128143000D01*
X147467000Y-128143000D01*
X147467000Y-128397000D01*
X147447000Y-128397000D01*
X147447000Y-129721250D01*
X147605750Y-129880000D01*
X148170000Y-129883072D01*
X148294482Y-129870812D01*
X148414180Y-129834502D01*
X148524494Y-129775537D01*
X148621185Y-129696185D01*
X148700537Y-129599494D01*
X148759502Y-129489180D01*
X148770055Y-129454392D01*
X148990987Y-129635706D01*
X149248967Y-129773599D01*
X149528890Y-129858513D01*
X149820000Y-129887185D01*
X150111111Y-129858513D01*
X150391034Y-129773599D01*
X150649014Y-129635706D01*
X150875134Y-129450134D01*
X151060706Y-129224014D01*
X151070000Y-129206626D01*
X151079294Y-129224014D01*
X151264866Y-129450134D01*
X151490987Y-129635706D01*
X151748967Y-129773599D01*
X152028890Y-129858513D01*
X152320000Y-129887185D01*
X152611111Y-129858513D01*
X152891034Y-129773599D01*
X153149014Y-129635706D01*
X153375134Y-129450134D01*
X153560706Y-129224014D01*
X153698599Y-128966033D01*
X153783513Y-128686110D01*
X153805000Y-128467949D01*
X153805000Y-128072050D01*
X153783513Y-127853889D01*
X153698599Y-127573966D01*
X153560706Y-127315986D01*
X153375134Y-127089866D01*
X153205000Y-126950241D01*
X153205000Y-115150000D01*
X155866928Y-115150000D01*
X155879188Y-115274482D01*
X155915498Y-115394180D01*
X155974463Y-115504494D01*
X156053815Y-115601185D01*
X156150506Y-115680537D01*
X156260820Y-115739502D01*
X156380518Y-115775812D01*
X156505000Y-115788072D01*
X157194250Y-115785000D01*
X157353000Y-115626250D01*
X157353000Y-114427000D01*
X157607000Y-114427000D01*
X157607000Y-115626250D01*
X157765750Y-115785000D01*
X158455000Y-115788072D01*
X158579482Y-115775812D01*
X158699180Y-115739502D01*
X158809494Y-115680537D01*
X158906185Y-115601185D01*
X158985537Y-115504494D01*
X159044502Y-115394180D01*
X159080812Y-115274482D01*
X159093072Y-115150000D01*
X159090000Y-114585750D01*
X158931250Y-114427000D01*
X157607000Y-114427000D01*
X157353000Y-114427000D01*
X156028750Y-114427000D01*
X155870000Y-114585750D01*
X155866928Y-115150000D01*
X153205000Y-115150000D01*
X153205000Y-114263466D01*
X153209281Y-114219999D01*
X153205000Y-114176533D01*
X153205000Y-114176523D01*
X153192195Y-114046510D01*
X153141589Y-113879687D01*
X153059411Y-113725941D01*
X152948817Y-113591183D01*
X152915049Y-113563470D01*
X147520539Y-108168961D01*
X147535000Y-108096260D01*
X147535000Y-107803740D01*
X147477932Y-107516842D01*
X147365990Y-107246589D01*
X147203475Y-107003368D01*
X146996632Y-106796525D01*
X146822240Y-106680000D01*
X146996632Y-106563475D01*
X147203475Y-106356632D01*
X147365990Y-106113411D01*
X147477932Y-105843158D01*
X147535000Y-105556260D01*
X147535000Y-105263740D01*
X147477932Y-104976842D01*
X147365990Y-104706589D01*
X147203475Y-104463368D01*
X146996632Y-104256525D01*
X146822240Y-104140000D01*
X146996632Y-104023475D01*
X147203475Y-103816632D01*
X147365990Y-103573411D01*
X147477932Y-103303158D01*
X147535000Y-103016260D01*
X147535000Y-102723740D01*
X147477932Y-102436842D01*
X147365990Y-102166589D01*
X147203475Y-101923368D01*
X146996632Y-101716525D01*
X146822240Y-101600000D01*
X146996632Y-101483475D01*
X147203475Y-101276632D01*
X147365990Y-101033411D01*
X147477932Y-100763158D01*
X147526652Y-100518230D01*
X155920772Y-108912351D01*
X155891487Y-109008889D01*
X155862815Y-109300000D01*
X155891487Y-109591111D01*
X155976401Y-109871034D01*
X156114294Y-110129014D01*
X156299866Y-110355134D01*
X156525986Y-110540706D01*
X156543374Y-110550000D01*
X156525986Y-110559294D01*
X156299866Y-110744866D01*
X156114294Y-110970986D01*
X155976401Y-111228966D01*
X155891487Y-111508889D01*
X155862815Y-111800000D01*
X155891487Y-112091111D01*
X155976401Y-112371034D01*
X156114294Y-112629014D01*
X156295608Y-112849945D01*
X156260820Y-112860498D01*
X156150506Y-112919463D01*
X156053815Y-112998815D01*
X155974463Y-113095506D01*
X155915498Y-113205820D01*
X155879188Y-113325518D01*
X155866928Y-113450000D01*
X155870000Y-114014250D01*
X156028750Y-114173000D01*
X157353000Y-114173000D01*
X157353000Y-114153000D01*
X157607000Y-114153000D01*
X157607000Y-114173000D01*
X158931250Y-114173000D01*
X159090000Y-114014250D01*
X159093072Y-113450000D01*
X159080812Y-113325518D01*
X159044502Y-113205820D01*
X158985537Y-113095506D01*
X158906185Y-112998815D01*
X158809494Y-112919463D01*
X158699180Y-112860498D01*
X158664392Y-112849945D01*
X158845706Y-112629014D01*
X158983599Y-112371034D01*
X159068513Y-112091111D01*
X159097185Y-111800000D01*
X159068513Y-111508889D01*
X158983599Y-111228966D01*
X158845706Y-110970986D01*
X158660134Y-110744866D01*
X158434014Y-110559294D01*
X158416626Y-110550000D01*
X158434014Y-110540706D01*
X158660134Y-110355134D01*
X158845706Y-110129014D01*
X158983599Y-109871034D01*
X159068513Y-109591111D01*
X159097185Y-109300000D01*
X159068513Y-109008889D01*
X158983599Y-108728966D01*
X158845706Y-108470986D01*
X158660134Y-108244866D01*
X158434014Y-108059294D01*
X158176034Y-107921401D01*
X157896111Y-107836487D01*
X157677950Y-107815000D01*
X157326579Y-107815000D01*
X151961579Y-102450000D01*
X155866928Y-102450000D01*
X155879188Y-102574482D01*
X155915498Y-102694180D01*
X155974463Y-102804494D01*
X156053815Y-102901185D01*
X156150506Y-102980537D01*
X156260820Y-103039502D01*
X156380518Y-103075812D01*
X156505000Y-103088072D01*
X157194250Y-103085000D01*
X157353000Y-102926250D01*
X157353000Y-101727000D01*
X157607000Y-101727000D01*
X157607000Y-102926250D01*
X157765750Y-103085000D01*
X158455000Y-103088072D01*
X158579482Y-103075812D01*
X158699180Y-103039502D01*
X158809494Y-102980537D01*
X158906185Y-102901185D01*
X158985537Y-102804494D01*
X159044502Y-102694180D01*
X159080812Y-102574482D01*
X159093072Y-102450000D01*
X159090000Y-101885750D01*
X158931250Y-101727000D01*
X157607000Y-101727000D01*
X157353000Y-101727000D01*
X156028750Y-101727000D01*
X155870000Y-101885750D01*
X155866928Y-102450000D01*
X151961579Y-102450000D01*
X147520539Y-98008961D01*
X147535000Y-97936260D01*
X147535000Y-97643740D01*
X147503424Y-97485000D01*
X156160241Y-97485000D01*
X156299866Y-97655134D01*
X156525986Y-97840706D01*
X156543374Y-97850000D01*
X156525986Y-97859294D01*
X156299866Y-98044866D01*
X156114294Y-98270986D01*
X155976401Y-98528966D01*
X155891487Y-98808889D01*
X155862815Y-99100000D01*
X155891487Y-99391111D01*
X155976401Y-99671034D01*
X156114294Y-99929014D01*
X156295608Y-100149945D01*
X156260820Y-100160498D01*
X156150506Y-100219463D01*
X156053815Y-100298815D01*
X155974463Y-100395506D01*
X155915498Y-100505820D01*
X155879188Y-100625518D01*
X155866928Y-100750000D01*
X155870000Y-101314250D01*
X156028750Y-101473000D01*
X157353000Y-101473000D01*
X157353000Y-101453000D01*
X157607000Y-101453000D01*
X157607000Y-101473000D01*
X158931250Y-101473000D01*
X159090000Y-101314250D01*
X159093072Y-100750000D01*
X159080812Y-100625518D01*
X159044502Y-100505820D01*
X158985537Y-100395506D01*
X158906185Y-100298815D01*
X158809494Y-100219463D01*
X158699180Y-100160498D01*
X158664392Y-100149945D01*
X158845706Y-99929014D01*
X158983599Y-99671034D01*
X159068513Y-99391111D01*
X159097185Y-99100000D01*
X159068513Y-98808889D01*
X158983599Y-98528966D01*
X158845706Y-98270986D01*
X158660134Y-98044866D01*
X158434014Y-97859294D01*
X158416626Y-97850000D01*
X158434014Y-97840706D01*
X158660134Y-97655134D01*
X158845706Y-97429014D01*
X158983599Y-97171034D01*
X159068513Y-96891111D01*
X159097185Y-96600000D01*
X159068513Y-96308889D01*
X158983599Y-96028966D01*
X158845706Y-95770986D01*
X158660134Y-95544866D01*
X158434014Y-95359294D01*
X158176034Y-95221401D01*
X157896111Y-95136487D01*
X157677950Y-95115000D01*
X157282050Y-95115000D01*
X157063889Y-95136487D01*
X156783966Y-95221401D01*
X156525986Y-95359294D01*
X156299866Y-95544866D01*
X156160241Y-95715000D01*
X147766579Y-95715000D01*
X147520539Y-95468960D01*
X147535000Y-95396260D01*
X147535000Y-95103740D01*
X147477932Y-94816842D01*
X147365990Y-94546589D01*
X147203475Y-94303368D01*
X146996632Y-94096525D01*
X146822240Y-93980000D01*
X146996632Y-93863475D01*
X147203475Y-93656632D01*
X147365990Y-93413411D01*
X147477932Y-93143158D01*
X147535000Y-92856260D01*
X147535000Y-92563740D01*
X147477932Y-92276842D01*
X147365990Y-92006589D01*
X147203475Y-91763368D01*
X146996632Y-91556525D01*
X146822240Y-91440000D01*
X146996632Y-91323475D01*
X147203475Y-91116632D01*
X147365990Y-90873411D01*
X147477932Y-90603158D01*
X147535000Y-90316260D01*
X147535000Y-90023740D01*
X147520539Y-89951039D01*
X147721578Y-89750000D01*
X155866928Y-89750000D01*
X155879188Y-89874482D01*
X155915498Y-89994180D01*
X155974463Y-90104494D01*
X156053815Y-90201185D01*
X156150506Y-90280537D01*
X156260820Y-90339502D01*
X156380518Y-90375812D01*
X156505000Y-90388072D01*
X157194250Y-90385000D01*
X157353000Y-90226250D01*
X157353000Y-89027000D01*
X157607000Y-89027000D01*
X157607000Y-90226250D01*
X157765750Y-90385000D01*
X158455000Y-90388072D01*
X158579482Y-90375812D01*
X158699180Y-90339502D01*
X158809494Y-90280537D01*
X158906185Y-90201185D01*
X158985537Y-90104494D01*
X159044502Y-89994180D01*
X159080812Y-89874482D01*
X159093072Y-89750000D01*
X159090000Y-89185750D01*
X158931250Y-89027000D01*
X157607000Y-89027000D01*
X157353000Y-89027000D01*
X156028750Y-89027000D01*
X155870000Y-89185750D01*
X155866928Y-89750000D01*
X147721578Y-89750000D01*
X152686579Y-84785000D01*
X156160241Y-84785000D01*
X156299866Y-84955134D01*
X156525986Y-85140706D01*
X156543374Y-85150000D01*
X156525986Y-85159294D01*
X156299866Y-85344866D01*
X156114294Y-85570986D01*
X155976401Y-85828966D01*
X155891487Y-86108889D01*
X155862815Y-86400000D01*
X155891487Y-86691111D01*
X155976401Y-86971034D01*
X156114294Y-87229014D01*
X156295608Y-87449945D01*
X156260820Y-87460498D01*
X156150506Y-87519463D01*
X156053815Y-87598815D01*
X155974463Y-87695506D01*
X155915498Y-87805820D01*
X155879188Y-87925518D01*
X155866928Y-88050000D01*
X155870000Y-88614250D01*
X156028750Y-88773000D01*
X157353000Y-88773000D01*
X157353000Y-88753000D01*
X157607000Y-88753000D01*
X157607000Y-88773000D01*
X158931250Y-88773000D01*
X159090000Y-88614250D01*
X159093072Y-88050000D01*
X159080812Y-87925518D01*
X159044502Y-87805820D01*
X158985537Y-87695506D01*
X158906185Y-87598815D01*
X158809494Y-87519463D01*
X158699180Y-87460498D01*
X158664392Y-87449945D01*
X158845706Y-87229014D01*
X158983599Y-86971034D01*
X159068513Y-86691111D01*
X159097185Y-86400000D01*
X159068513Y-86108889D01*
X158983599Y-85828966D01*
X158845706Y-85570986D01*
X158660134Y-85344866D01*
X158434014Y-85159294D01*
X158416626Y-85150000D01*
X158434014Y-85140706D01*
X158660134Y-84955134D01*
X158845706Y-84729014D01*
X158983599Y-84471034D01*
X159068513Y-84191111D01*
X159097185Y-83900000D01*
X159068513Y-83608889D01*
X158983599Y-83328966D01*
X158845706Y-83070986D01*
X158660134Y-82844866D01*
X158434014Y-82659294D01*
X158176034Y-82521401D01*
X157896111Y-82436487D01*
X157677950Y-82415000D01*
X157282050Y-82415000D01*
X157063889Y-82436487D01*
X156783966Y-82521401D01*
X156525986Y-82659294D01*
X156299866Y-82844866D01*
X156160241Y-83015000D01*
X152363466Y-83015000D01*
X152319999Y-83010719D01*
X152276533Y-83015000D01*
X152276523Y-83015000D01*
X152146510Y-83027805D01*
X151979687Y-83078411D01*
X151825941Y-83160589D01*
X151825939Y-83160590D01*
X151825940Y-83160590D01*
X151724953Y-83243468D01*
X151724951Y-83243470D01*
X151691183Y-83271183D01*
X151663470Y-83304951D01*
X147526652Y-87441770D01*
X147520539Y-87411039D01*
X156650039Y-78281540D01*
X156683807Y-78253827D01*
X156794401Y-78119069D01*
X156838487Y-78036589D01*
X156876579Y-77965324D01*
X156927185Y-77798500D01*
X156927690Y-77793368D01*
X156938251Y-77686141D01*
X157194250Y-77685000D01*
X157353000Y-77526250D01*
X157353000Y-76327000D01*
X157607000Y-76327000D01*
X157607000Y-77526250D01*
X157765750Y-77685000D01*
X158455000Y-77688072D01*
X158579482Y-77675812D01*
X158699180Y-77639502D01*
X158809494Y-77580537D01*
X158906185Y-77501185D01*
X158985537Y-77404494D01*
X159044502Y-77294180D01*
X159080812Y-77174482D01*
X159093072Y-77050000D01*
X159090000Y-76485750D01*
X158931250Y-76327000D01*
X157607000Y-76327000D01*
X157353000Y-76327000D01*
X157333000Y-76327000D01*
X157333000Y-76073000D01*
X157353000Y-76073000D01*
X157353000Y-76053000D01*
X157607000Y-76053000D01*
X157607000Y-76073000D01*
X158931250Y-76073000D01*
X159090000Y-75914250D01*
X159093072Y-75350000D01*
X159080812Y-75225518D01*
X159044502Y-75105820D01*
X158985537Y-74995506D01*
X158906185Y-74898815D01*
X158809494Y-74819463D01*
X158699180Y-74760498D01*
X158664392Y-74749945D01*
X158845706Y-74529014D01*
X158983599Y-74271034D01*
X159068513Y-73991111D01*
X159097185Y-73700000D01*
X159068513Y-73408889D01*
X158983599Y-73128966D01*
X158845706Y-72870986D01*
X158660134Y-72644866D01*
X158434014Y-72459294D01*
X158416626Y-72450000D01*
X158434014Y-72440706D01*
X158660134Y-72255134D01*
X158845706Y-72029014D01*
X158983599Y-71771034D01*
X159068513Y-71491111D01*
X159097185Y-71200000D01*
X159068513Y-70908889D01*
X158983599Y-70628966D01*
X158845706Y-70370986D01*
X158660134Y-70144866D01*
X158434014Y-69959294D01*
X158176034Y-69821401D01*
X157896111Y-69736487D01*
X157677950Y-69715000D01*
X157282050Y-69715000D01*
X157063889Y-69736487D01*
X156783966Y-69821401D01*
X156525986Y-69959294D01*
X156299866Y-70144866D01*
X156114294Y-70370986D01*
X155976401Y-70628966D01*
X155891487Y-70908889D01*
X155862815Y-71200000D01*
X155891487Y-71491111D01*
X155902152Y-71526269D01*
X155459946Y-71968476D01*
X155426173Y-71996193D01*
X155315579Y-72130952D01*
X155233401Y-72284698D01*
X155182795Y-72451521D01*
X155169990Y-72581534D01*
X155169990Y-72581541D01*
X155165709Y-72625010D01*
X155169990Y-72668479D01*
X155169991Y-77258430D01*
X147526652Y-84901770D01*
X147477932Y-84656842D01*
X147365990Y-84386589D01*
X147203475Y-84143368D01*
X146996632Y-83936525D01*
X146822240Y-83820000D01*
X146996632Y-83703475D01*
X147203475Y-83496632D01*
X147365990Y-83253411D01*
X147477932Y-82983158D01*
X147535000Y-82696260D01*
X147535000Y-82403740D01*
X147477932Y-82116842D01*
X147365990Y-81846589D01*
X147203475Y-81603368D01*
X146996632Y-81396525D01*
X146822240Y-81280000D01*
X146996632Y-81163475D01*
X147203475Y-80956632D01*
X147365990Y-80713411D01*
X147477932Y-80443158D01*
X147535000Y-80156260D01*
X147535000Y-79863740D01*
X147477932Y-79576842D01*
X147365990Y-79306589D01*
X147203475Y-79063368D01*
X146996632Y-78856525D01*
X146814466Y-78734805D01*
X146931355Y-78665178D01*
X147147588Y-78470269D01*
X147321641Y-78236920D01*
X147446825Y-77974099D01*
X147491476Y-77826890D01*
X147370155Y-77597000D01*
X146177000Y-77597000D01*
X146177000Y-77617000D01*
X145923000Y-77617000D01*
X145923000Y-77597000D01*
X144729845Y-77597000D01*
X144608524Y-77826890D01*
X144653175Y-77974099D01*
X144778359Y-78236920D01*
X144952412Y-78470269D01*
X145168645Y-78665178D01*
X145285534Y-78734805D01*
X145103368Y-78856525D01*
X144896525Y-79063368D01*
X144734010Y-79306589D01*
X144622068Y-79576842D01*
X144565000Y-79863740D01*
X144565000Y-80156260D01*
X144622068Y-80443158D01*
X144734010Y-80713411D01*
X144896525Y-80956632D01*
X145103368Y-81163475D01*
X145277760Y-81280000D01*
X145103368Y-81396525D01*
X144896525Y-81603368D01*
X144734010Y-81846589D01*
X144622068Y-82116842D01*
X144565000Y-82403740D01*
X144565000Y-82696260D01*
X144622068Y-82983158D01*
X144734010Y-83253411D01*
X144896525Y-83496632D01*
X145103368Y-83703475D01*
X145277760Y-83820000D01*
X145103368Y-83936525D01*
X144896525Y-84143368D01*
X144734010Y-84386589D01*
X144622068Y-84656842D01*
X144565000Y-84943740D01*
X144565000Y-85236260D01*
X144622068Y-85523158D01*
X144734010Y-85793411D01*
X144896525Y-86036632D01*
X145103368Y-86243475D01*
X145277760Y-86360000D01*
X145103368Y-86476525D01*
X144896525Y-86683368D01*
X144734010Y-86926589D01*
X144622068Y-87196842D01*
X144565000Y-87483740D01*
X144565000Y-87776260D01*
X144622068Y-88063158D01*
X144734010Y-88333411D01*
X144896525Y-88576632D01*
X145103368Y-88783475D01*
X145277760Y-88900000D01*
X145103368Y-89016525D01*
X144896525Y-89223368D01*
X144734010Y-89466589D01*
X144622068Y-89736842D01*
X144565000Y-90023740D01*
X144565000Y-90316260D01*
X144622068Y-90603158D01*
X144734010Y-90873411D01*
X144896525Y-91116632D01*
X145103368Y-91323475D01*
X145277760Y-91440000D01*
X145103368Y-91556525D01*
X144896525Y-91763368D01*
X144734010Y-92006589D01*
X144622068Y-92276842D01*
X144565000Y-92563740D01*
X144565000Y-92856260D01*
X144622068Y-93143158D01*
X144734010Y-93413411D01*
X144896525Y-93656632D01*
X145103368Y-93863475D01*
X145277760Y-93980000D01*
X145103368Y-94096525D01*
X144896525Y-94303368D01*
X144734010Y-94546589D01*
X144622068Y-94816842D01*
X144565000Y-95103740D01*
X144565000Y-95396260D01*
X144622068Y-95683158D01*
X144734010Y-95953411D01*
X144896525Y-96196632D01*
X145103368Y-96403475D01*
X145277760Y-96520000D01*
X145103368Y-96636525D01*
X144896525Y-96843368D01*
X144734010Y-97086589D01*
X144622068Y-97356842D01*
X144565000Y-97643740D01*
X144565000Y-97936260D01*
X144622068Y-98223158D01*
X144734010Y-98493411D01*
X144896525Y-98736632D01*
X145103368Y-98943475D01*
X145277760Y-99060000D01*
X145103368Y-99176525D01*
X144896525Y-99383368D01*
X144734010Y-99626589D01*
X144622068Y-99896842D01*
X144565000Y-100183740D01*
X144565000Y-100476260D01*
X144579461Y-100548960D01*
X117743422Y-127385000D01*
X115497595Y-127385000D01*
X115460706Y-127315986D01*
X115275134Y-127089866D01*
X115049013Y-126904294D01*
X114791033Y-126766401D01*
X114511110Y-126681487D01*
X114220000Y-126652815D01*
X113928889Y-126681487D01*
X113648966Y-126766401D01*
X113390986Y-126904294D01*
X113164866Y-127089866D01*
X112979294Y-127315987D01*
X112970000Y-127333374D01*
X112960706Y-127315986D01*
X112775134Y-127089866D01*
X112549013Y-126904294D01*
X112291033Y-126766401D01*
X112011110Y-126681487D01*
X111720000Y-126652815D01*
X111428889Y-126681487D01*
X111148966Y-126766401D01*
X110890986Y-126904294D01*
X110670055Y-127085608D01*
X110659502Y-127050820D01*
X110600537Y-126940506D01*
X110521185Y-126843815D01*
X110424494Y-126764463D01*
X110314180Y-126705498D01*
X110194482Y-126669188D01*
X110070000Y-126656928D01*
X109505750Y-126660000D01*
X109347000Y-126818750D01*
X109093000Y-126818750D01*
X108934250Y-126660000D01*
X108370000Y-126656928D01*
X108245518Y-126669188D01*
X108125820Y-126705498D01*
X108015506Y-126764463D01*
X107918815Y-126843815D01*
X107839463Y-126940506D01*
X107780498Y-127050820D01*
X107744188Y-127170518D01*
X107731928Y-127295000D01*
X93370000Y-127295000D01*
X93370000Y-91470001D01*
X96870718Y-91470001D01*
X96875000Y-91513480D01*
X96874999Y-112956530D01*
X96870718Y-112999999D01*
X96874999Y-113043468D01*
X96874999Y-113043475D01*
X96886211Y-113157313D01*
X96887804Y-113173489D01*
X96894453Y-113195408D01*
X96938410Y-113340311D01*
X97020588Y-113494057D01*
X97131182Y-113628816D01*
X97164955Y-113656533D01*
X97571928Y-114063506D01*
X97571928Y-115150000D01*
X97584188Y-115274482D01*
X97620498Y-115394180D01*
X97679463Y-115504494D01*
X97758815Y-115601185D01*
X97855506Y-115680537D01*
X97965820Y-115739502D01*
X98085518Y-115775812D01*
X98210000Y-115788072D01*
X99296494Y-115788072D01*
X100943470Y-117435049D01*
X100971183Y-117468817D01*
X101004951Y-117496530D01*
X101004953Y-117496532D01*
X101076452Y-117555210D01*
X101105941Y-117579411D01*
X101259687Y-117661589D01*
X101426510Y-117712195D01*
X101556523Y-117725000D01*
X101556533Y-117725000D01*
X101599999Y-117729281D01*
X101643465Y-117725000D01*
X121876531Y-117725000D01*
X121920000Y-117729281D01*
X121963469Y-117725000D01*
X121963477Y-117725000D01*
X122093490Y-117712195D01*
X122260313Y-117661589D01*
X122414059Y-117579411D01*
X122548817Y-117468817D01*
X122576534Y-117435044D01*
X123785050Y-116226529D01*
X123818817Y-116198817D01*
X123929411Y-116064059D01*
X124011589Y-115910313D01*
X124062195Y-115743490D01*
X124075000Y-115613477D01*
X124075000Y-115613467D01*
X124079281Y-115570001D01*
X124075000Y-115526535D01*
X124075000Y-103513469D01*
X124079281Y-103470000D01*
X124075000Y-103426531D01*
X124075000Y-103426523D01*
X124062195Y-103296510D01*
X124011589Y-103129687D01*
X124011589Y-103129686D01*
X123929411Y-102975941D01*
X123846532Y-102874953D01*
X123846530Y-102874951D01*
X123818817Y-102841183D01*
X123785049Y-102813470D01*
X121520539Y-100548961D01*
X121535000Y-100476260D01*
X121535000Y-100183740D01*
X121477932Y-99896842D01*
X121365990Y-99626589D01*
X121203475Y-99383368D01*
X120996632Y-99176525D01*
X120822240Y-99060000D01*
X120996632Y-98943475D01*
X121203475Y-98736632D01*
X121365990Y-98493411D01*
X121477932Y-98223158D01*
X121535000Y-97936260D01*
X121535000Y-97643740D01*
X121477932Y-97356842D01*
X121365990Y-97086589D01*
X121203475Y-96843368D01*
X120996632Y-96636525D01*
X120822240Y-96520000D01*
X120996632Y-96403475D01*
X121203475Y-96196632D01*
X121365990Y-95953411D01*
X121477932Y-95683158D01*
X121535000Y-95396260D01*
X121535000Y-95103740D01*
X121477932Y-94816842D01*
X121365990Y-94546589D01*
X121203475Y-94303368D01*
X120996632Y-94096525D01*
X120822240Y-93980000D01*
X120996632Y-93863475D01*
X121203475Y-93656632D01*
X121365990Y-93413411D01*
X121477932Y-93143158D01*
X121535000Y-92856260D01*
X121535000Y-92563740D01*
X121477932Y-92276842D01*
X121365990Y-92006589D01*
X121203475Y-91763368D01*
X120996632Y-91556525D01*
X120822240Y-91440000D01*
X120996632Y-91323475D01*
X121203475Y-91116632D01*
X121365990Y-90873411D01*
X121477932Y-90603158D01*
X121535000Y-90316260D01*
X121535000Y-90023740D01*
X121477932Y-89736842D01*
X121365990Y-89466589D01*
X121203475Y-89223368D01*
X120996632Y-89016525D01*
X120822240Y-88900000D01*
X120996632Y-88783475D01*
X121203475Y-88576632D01*
X121365990Y-88333411D01*
X121477932Y-88063158D01*
X121535000Y-87776260D01*
X121535000Y-87483740D01*
X121477932Y-87196842D01*
X121365990Y-86926589D01*
X121203475Y-86683368D01*
X120996632Y-86476525D01*
X120822240Y-86360000D01*
X120996632Y-86243475D01*
X121203475Y-86036632D01*
X121365990Y-85793411D01*
X121477932Y-85523158D01*
X121535000Y-85236260D01*
X121535000Y-84943740D01*
X121477932Y-84656842D01*
X121365990Y-84386589D01*
X121203475Y-84143368D01*
X120996632Y-83936525D01*
X120822240Y-83820000D01*
X120996632Y-83703475D01*
X121203475Y-83496632D01*
X121365990Y-83253411D01*
X121477932Y-82983158D01*
X121535000Y-82696260D01*
X121535000Y-82403740D01*
X121477932Y-82116842D01*
X121365990Y-81846589D01*
X121203475Y-81603368D01*
X120996632Y-81396525D01*
X120822240Y-81280000D01*
X120996632Y-81163475D01*
X121203475Y-80956632D01*
X121365990Y-80713411D01*
X121477932Y-80443158D01*
X121535000Y-80156260D01*
X121535000Y-79863740D01*
X121477932Y-79576842D01*
X121365990Y-79306589D01*
X121203475Y-79063368D01*
X120996632Y-78856525D01*
X120814466Y-78734805D01*
X120931355Y-78665178D01*
X121147588Y-78470269D01*
X121321641Y-78236920D01*
X121446825Y-77974099D01*
X121491476Y-77826890D01*
X121370155Y-77597000D01*
X120177000Y-77597000D01*
X120177000Y-77617000D01*
X119923000Y-77617000D01*
X119923000Y-77597000D01*
X118729845Y-77597000D01*
X118608524Y-77826890D01*
X118653175Y-77974099D01*
X118778359Y-78236920D01*
X118952412Y-78470269D01*
X119168645Y-78665178D01*
X119285534Y-78734805D01*
X119103368Y-78856525D01*
X118896525Y-79063368D01*
X118734010Y-79306589D01*
X118622068Y-79576842D01*
X118565000Y-79863740D01*
X118565000Y-80156260D01*
X118622068Y-80443158D01*
X118734010Y-80713411D01*
X118896525Y-80956632D01*
X119103368Y-81163475D01*
X119277760Y-81280000D01*
X119103368Y-81396525D01*
X118896525Y-81603368D01*
X118734010Y-81846589D01*
X118622068Y-82116842D01*
X118565000Y-82403740D01*
X118565000Y-82696260D01*
X118622068Y-82983158D01*
X118734010Y-83253411D01*
X118896525Y-83496632D01*
X119103368Y-83703475D01*
X119277760Y-83820000D01*
X119103368Y-83936525D01*
X118896525Y-84143368D01*
X118734010Y-84386589D01*
X118622068Y-84656842D01*
X118565000Y-84943740D01*
X118565000Y-85236260D01*
X118622068Y-85523158D01*
X118734010Y-85793411D01*
X118896525Y-86036632D01*
X119103368Y-86243475D01*
X119277760Y-86360000D01*
X119103368Y-86476525D01*
X118896525Y-86683368D01*
X118855344Y-86745000D01*
X118476579Y-86745000D01*
X112766535Y-81034957D01*
X112755226Y-80978102D01*
X112677205Y-80789744D01*
X112563937Y-80620226D01*
X112419774Y-80476063D01*
X112250256Y-80362795D01*
X112061898Y-80284774D01*
X111861939Y-80245000D01*
X111658061Y-80245000D01*
X111458102Y-80284774D01*
X111269744Y-80362795D01*
X111100226Y-80476063D01*
X110956063Y-80620226D01*
X110842795Y-80789744D01*
X110764774Y-80978102D01*
X110725000Y-81178061D01*
X110725000Y-81381939D01*
X110764774Y-81581898D01*
X110842795Y-81770256D01*
X110956063Y-81939774D01*
X111100226Y-82083937D01*
X111269744Y-82197205D01*
X111458102Y-82275226D01*
X111514957Y-82286535D01*
X117453470Y-88225049D01*
X117481183Y-88258817D01*
X117514951Y-88286530D01*
X117514953Y-88286532D01*
X117572075Y-88333411D01*
X117615941Y-88369411D01*
X117769687Y-88451589D01*
X117936510Y-88502195D01*
X118066523Y-88515000D01*
X118066533Y-88515000D01*
X118109999Y-88519281D01*
X118153465Y-88515000D01*
X118855344Y-88515000D01*
X118896525Y-88576632D01*
X119103368Y-88783475D01*
X119277760Y-88900000D01*
X119103368Y-89016525D01*
X118896525Y-89223368D01*
X118734010Y-89466589D01*
X118622068Y-89736842D01*
X118565000Y-90023740D01*
X118565000Y-90316260D01*
X118622068Y-90603158D01*
X118734010Y-90873411D01*
X118896525Y-91116632D01*
X119103368Y-91323475D01*
X119277760Y-91440000D01*
X119103368Y-91556525D01*
X118896525Y-91763368D01*
X118734010Y-92006589D01*
X118622068Y-92276842D01*
X118565000Y-92563740D01*
X118565000Y-92856260D01*
X118622068Y-93143158D01*
X118734010Y-93413411D01*
X118896525Y-93656632D01*
X119103368Y-93863475D01*
X119277760Y-93980000D01*
X119103368Y-94096525D01*
X118896525Y-94303368D01*
X118734010Y-94546589D01*
X118622068Y-94816842D01*
X118565000Y-95103740D01*
X118565000Y-95396260D01*
X118622068Y-95683158D01*
X118734010Y-95953411D01*
X118896525Y-96196632D01*
X119103368Y-96403475D01*
X119277760Y-96520000D01*
X119103368Y-96636525D01*
X118896525Y-96843368D01*
X118734010Y-97086589D01*
X118622068Y-97356842D01*
X118565000Y-97643740D01*
X118565000Y-97936260D01*
X118622068Y-98223158D01*
X118734010Y-98493411D01*
X118896525Y-98736632D01*
X119103368Y-98943475D01*
X119277760Y-99060000D01*
X119103368Y-99176525D01*
X118896525Y-99383368D01*
X118734010Y-99626589D01*
X118622068Y-99896842D01*
X118565000Y-100183740D01*
X118565000Y-100476260D01*
X118622068Y-100763158D01*
X118734010Y-101033411D01*
X118896525Y-101276632D01*
X119103368Y-101483475D01*
X119277760Y-101600000D01*
X119103368Y-101716525D01*
X118896525Y-101923368D01*
X118734010Y-102166589D01*
X118622068Y-102436842D01*
X118565000Y-102723740D01*
X118565000Y-103016260D01*
X118622068Y-103303158D01*
X118734010Y-103573411D01*
X118896525Y-103816632D01*
X119103368Y-104023475D01*
X119277760Y-104140000D01*
X119103368Y-104256525D01*
X118896525Y-104463368D01*
X118734010Y-104706589D01*
X118622068Y-104976842D01*
X118565000Y-105263740D01*
X118565000Y-105556260D01*
X118622068Y-105843158D01*
X118734010Y-106113411D01*
X118896525Y-106356632D01*
X119103368Y-106563475D01*
X119277760Y-106680000D01*
X119103368Y-106796525D01*
X118896525Y-107003368D01*
X118734010Y-107246589D01*
X118622068Y-107516842D01*
X118565000Y-107803740D01*
X118565000Y-108096260D01*
X118622068Y-108383158D01*
X118713801Y-108604622D01*
X113248072Y-114070352D01*
X113248072Y-113450000D01*
X113235812Y-113325518D01*
X113199502Y-113205820D01*
X113140537Y-113095506D01*
X113061185Y-112998815D01*
X112964494Y-112919463D01*
X112854180Y-112860498D01*
X112781620Y-112838487D01*
X112913475Y-112706632D01*
X113075990Y-112463411D01*
X113187932Y-112193158D01*
X113245000Y-111906260D01*
X113245000Y-111613740D01*
X113187932Y-111326842D01*
X113075990Y-111056589D01*
X112913475Y-110813368D01*
X112706632Y-110606525D01*
X112532240Y-110490000D01*
X112706632Y-110373475D01*
X112913475Y-110166632D01*
X113075990Y-109923411D01*
X113187932Y-109653158D01*
X113245000Y-109366260D01*
X113245000Y-109073740D01*
X113187932Y-108786842D01*
X113075990Y-108516589D01*
X112913475Y-108273368D01*
X112706632Y-108066525D01*
X112532240Y-107950000D01*
X112706632Y-107833475D01*
X112913475Y-107626632D01*
X113075990Y-107383411D01*
X113187932Y-107113158D01*
X113245000Y-106826260D01*
X113245000Y-106533740D01*
X113187932Y-106246842D01*
X113075990Y-105976589D01*
X112913475Y-105733368D01*
X112706632Y-105526525D01*
X112532240Y-105410000D01*
X112706632Y-105293475D01*
X112913475Y-105086632D01*
X113075990Y-104843411D01*
X113187932Y-104573158D01*
X113245000Y-104286260D01*
X113245000Y-103993740D01*
X113187932Y-103706842D01*
X113075990Y-103436589D01*
X112913475Y-103193368D01*
X112706632Y-102986525D01*
X112524466Y-102864805D01*
X112641355Y-102795178D01*
X112857588Y-102600269D01*
X113031641Y-102366920D01*
X113156825Y-102104099D01*
X113201476Y-101956890D01*
X113080155Y-101727000D01*
X111887000Y-101727000D01*
X111887000Y-101747000D01*
X111633000Y-101747000D01*
X111633000Y-101727000D01*
X110439845Y-101727000D01*
X110318524Y-101956890D01*
X110363175Y-102104099D01*
X110488359Y-102366920D01*
X110662412Y-102600269D01*
X110878645Y-102795178D01*
X110995534Y-102864805D01*
X110813368Y-102986525D01*
X110606525Y-103193368D01*
X110444010Y-103436589D01*
X110332068Y-103706842D01*
X110275000Y-103993740D01*
X110275000Y-104286260D01*
X110332068Y-104573158D01*
X110444010Y-104843411D01*
X110606525Y-105086632D01*
X110813368Y-105293475D01*
X110987760Y-105410000D01*
X110813368Y-105526525D01*
X110606525Y-105733368D01*
X110444010Y-105976589D01*
X110332068Y-106246842D01*
X110275000Y-106533740D01*
X110275000Y-106826260D01*
X110332068Y-107113158D01*
X110444010Y-107383411D01*
X110606525Y-107626632D01*
X110813368Y-107833475D01*
X110987760Y-107950000D01*
X110813368Y-108066525D01*
X110606525Y-108273368D01*
X110444010Y-108516589D01*
X110332068Y-108786842D01*
X110275000Y-109073740D01*
X110275000Y-109366260D01*
X110332068Y-109653158D01*
X110444010Y-109923411D01*
X110606525Y-110166632D01*
X110813368Y-110373475D01*
X110987760Y-110490000D01*
X110813368Y-110606525D01*
X110606525Y-110813368D01*
X110444010Y-111056589D01*
X110332068Y-111326842D01*
X110275000Y-111613740D01*
X110275000Y-111906260D01*
X110332068Y-112193158D01*
X110444010Y-112463411D01*
X110606525Y-112706632D01*
X110738380Y-112838487D01*
X110665820Y-112860498D01*
X110555506Y-112919463D01*
X110458815Y-112998815D01*
X110379463Y-113095506D01*
X110320498Y-113205820D01*
X110284188Y-113325518D01*
X110271928Y-113450000D01*
X110271928Y-114715001D01*
X103266580Y-114715001D01*
X100530539Y-111978961D01*
X100545000Y-111906260D01*
X100545000Y-111613740D01*
X100530539Y-111541040D01*
X100955051Y-111116528D01*
X100988818Y-111088816D01*
X101099412Y-110954058D01*
X101181590Y-110800312D01*
X101232196Y-110633489D01*
X101245001Y-110503476D01*
X101245001Y-110503466D01*
X101249282Y-110460000D01*
X101245001Y-110416533D01*
X101245001Y-101243110D01*
X110318524Y-101243110D01*
X110439845Y-101473000D01*
X111633000Y-101473000D01*
X111633000Y-100279186D01*
X111887000Y-100279186D01*
X111887000Y-101473000D01*
X113080155Y-101473000D01*
X113201476Y-101243110D01*
X113156825Y-101095901D01*
X113031641Y-100833080D01*
X112857588Y-100599731D01*
X112641355Y-100404822D01*
X112391252Y-100255843D01*
X112116891Y-100158519D01*
X111887000Y-100279186D01*
X111633000Y-100279186D01*
X111403109Y-100158519D01*
X111128748Y-100255843D01*
X110878645Y-100404822D01*
X110662412Y-100599731D01*
X110488359Y-100833080D01*
X110363175Y-101095901D01*
X110318524Y-101243110D01*
X101245001Y-101243110D01*
X101245001Y-95743555D01*
X101247205Y-95740256D01*
X101325226Y-95551898D01*
X101365000Y-95351939D01*
X101365000Y-95148061D01*
X101325226Y-94948102D01*
X101247205Y-94759744D01*
X101133937Y-94590226D01*
X100989774Y-94446063D01*
X100820256Y-94332795D01*
X100631898Y-94254774D01*
X100431939Y-94215000D01*
X100228061Y-94215000D01*
X100028102Y-94254774D01*
X99839744Y-94332795D01*
X99670226Y-94446063D01*
X99526063Y-94590226D01*
X99412795Y-94759744D01*
X99334774Y-94948102D01*
X99295000Y-95148061D01*
X99295000Y-95351939D01*
X99334774Y-95551898D01*
X99412795Y-95740256D01*
X99475002Y-95833356D01*
X99475001Y-105259132D01*
X99416891Y-105238519D01*
X99187000Y-105359186D01*
X99187000Y-106553000D01*
X99207000Y-106553000D01*
X99207000Y-106807000D01*
X99187000Y-106807000D01*
X99187000Y-106827000D01*
X98933000Y-106827000D01*
X98933000Y-106807000D01*
X98913000Y-106807000D01*
X98913000Y-106553000D01*
X98933000Y-106553000D01*
X98933000Y-105359186D01*
X98703109Y-105238519D01*
X98644999Y-105259132D01*
X98644999Y-93130000D01*
X101381928Y-93130000D01*
X101381928Y-94830000D01*
X101394188Y-94954482D01*
X101430498Y-95074180D01*
X101489463Y-95184494D01*
X101568815Y-95281185D01*
X101665506Y-95360537D01*
X101775820Y-95419502D01*
X101895518Y-95455812D01*
X102020000Y-95468072D01*
X103720000Y-95468072D01*
X103844482Y-95455812D01*
X103964180Y-95419502D01*
X104074494Y-95360537D01*
X104171185Y-95281185D01*
X104250537Y-95184494D01*
X104309502Y-95074180D01*
X104345812Y-94954482D01*
X104358072Y-94830000D01*
X104358072Y-93130000D01*
X104345812Y-93005518D01*
X104309502Y-92885820D01*
X104250537Y-92775506D01*
X104171185Y-92678815D01*
X104074494Y-92599463D01*
X103964180Y-92540498D01*
X103883534Y-92516034D01*
X103967588Y-92440269D01*
X104141641Y-92206920D01*
X104266825Y-91944099D01*
X104311476Y-91796890D01*
X104190155Y-91567000D01*
X102997000Y-91567000D01*
X102997000Y-91587000D01*
X102743000Y-91587000D01*
X102743000Y-91567000D01*
X101549845Y-91567000D01*
X101428524Y-91796890D01*
X101473175Y-91944099D01*
X101598359Y-92206920D01*
X101772412Y-92440269D01*
X101856466Y-92516034D01*
X101775820Y-92540498D01*
X101665506Y-92599463D01*
X101568815Y-92678815D01*
X101489463Y-92775506D01*
X101430498Y-92885820D01*
X101394188Y-93005518D01*
X101381928Y-93130000D01*
X98644999Y-93130000D01*
X98644999Y-91836579D01*
X101393348Y-89088230D01*
X101442068Y-89333158D01*
X101554010Y-89603411D01*
X101716525Y-89846632D01*
X101923368Y-90053475D01*
X102105534Y-90175195D01*
X101988645Y-90244822D01*
X101772412Y-90439731D01*
X101598359Y-90673080D01*
X101473175Y-90935901D01*
X101428524Y-91083110D01*
X101549845Y-91313000D01*
X102743000Y-91313000D01*
X102743000Y-91293000D01*
X102997000Y-91293000D01*
X102997000Y-91313000D01*
X104190155Y-91313000D01*
X104311476Y-91083110D01*
X104266825Y-90935901D01*
X104141641Y-90673080D01*
X103967588Y-90439731D01*
X103751355Y-90244822D01*
X103634466Y-90175195D01*
X103816632Y-90053475D01*
X104023475Y-89846632D01*
X104185990Y-89603411D01*
X104297932Y-89333158D01*
X104355000Y-89046260D01*
X104355000Y-88753740D01*
X104297932Y-88466842D01*
X104185990Y-88196589D01*
X104023475Y-87953368D01*
X103816632Y-87746525D01*
X103642240Y-87630000D01*
X103816632Y-87513475D01*
X104023475Y-87306632D01*
X104185990Y-87063411D01*
X104297932Y-86793158D01*
X104355000Y-86506260D01*
X104355000Y-86213740D01*
X104297932Y-85926842D01*
X104185990Y-85656589D01*
X104023475Y-85413368D01*
X103816632Y-85206525D01*
X103642240Y-85090000D01*
X103816632Y-84973475D01*
X104023475Y-84766632D01*
X104185990Y-84523411D01*
X104297932Y-84253158D01*
X104355000Y-83966260D01*
X104355000Y-83673740D01*
X104297932Y-83386842D01*
X104185990Y-83116589D01*
X104023475Y-82873368D01*
X103816632Y-82666525D01*
X103642240Y-82550000D01*
X103816632Y-82433475D01*
X104023475Y-82226632D01*
X104185990Y-81983411D01*
X104297932Y-81713158D01*
X104355000Y-81426260D01*
X104355000Y-81133740D01*
X104297932Y-80846842D01*
X104185990Y-80576589D01*
X104023475Y-80333368D01*
X103816632Y-80126525D01*
X103642240Y-80010000D01*
X103816632Y-79893475D01*
X104023475Y-79686632D01*
X104185990Y-79443411D01*
X104297932Y-79173158D01*
X104355000Y-78886260D01*
X104355000Y-78593740D01*
X104297932Y-78306842D01*
X104185990Y-78036589D01*
X104023475Y-77793368D01*
X103816632Y-77586525D01*
X103642240Y-77470000D01*
X103816632Y-77353475D01*
X104023475Y-77146632D01*
X104185990Y-76903411D01*
X104297932Y-76633158D01*
X104355000Y-76346260D01*
X104355000Y-76053740D01*
X104297932Y-75766842D01*
X104185990Y-75496589D01*
X104023475Y-75253368D01*
X103816632Y-75046525D01*
X103573411Y-74884010D01*
X103331337Y-74783740D01*
X118565000Y-74783740D01*
X118565000Y-75076260D01*
X118622068Y-75363158D01*
X118734010Y-75633411D01*
X118896525Y-75876632D01*
X119103368Y-76083475D01*
X119285534Y-76205195D01*
X119168645Y-76274822D01*
X118952412Y-76469731D01*
X118778359Y-76703080D01*
X118653175Y-76965901D01*
X118608524Y-77113110D01*
X118729845Y-77343000D01*
X119923000Y-77343000D01*
X119923000Y-77323000D01*
X120177000Y-77323000D01*
X120177000Y-77343000D01*
X121370155Y-77343000D01*
X121491476Y-77113110D01*
X121446825Y-76965901D01*
X121321641Y-76703080D01*
X121147588Y-76469731D01*
X120931355Y-76274822D01*
X120814466Y-76205195D01*
X120996632Y-76083475D01*
X121203475Y-75876632D01*
X121365990Y-75633411D01*
X121477932Y-75363158D01*
X121535000Y-75076260D01*
X121535000Y-74783740D01*
X121477932Y-74496842D01*
X121365990Y-74226589D01*
X121203475Y-73983368D01*
X120996632Y-73776525D01*
X120753411Y-73614010D01*
X120483158Y-73502068D01*
X120196260Y-73445000D01*
X119903740Y-73445000D01*
X119616842Y-73502068D01*
X119346589Y-73614010D01*
X119103368Y-73776525D01*
X118896525Y-73983368D01*
X118734010Y-74226589D01*
X118622068Y-74496842D01*
X118565000Y-74783740D01*
X103331337Y-74783740D01*
X103303158Y-74772068D01*
X103016260Y-74715000D01*
X102723740Y-74715000D01*
X102436842Y-74772068D01*
X102166589Y-74884010D01*
X101923368Y-75046525D01*
X101716525Y-75253368D01*
X101554010Y-75496589D01*
X101442068Y-75766842D01*
X101385000Y-76053740D01*
X101385000Y-76346260D01*
X101442068Y-76633158D01*
X101554010Y-76903411D01*
X101716525Y-77146632D01*
X101923368Y-77353475D01*
X102097760Y-77470000D01*
X101923368Y-77586525D01*
X101716525Y-77793368D01*
X101554010Y-78036589D01*
X101442068Y-78306842D01*
X101385000Y-78593740D01*
X101385000Y-78886260D01*
X101442068Y-79173158D01*
X101554010Y-79443411D01*
X101716525Y-79686632D01*
X101923368Y-79893475D01*
X102097760Y-80010000D01*
X101923368Y-80126525D01*
X101716525Y-80333368D01*
X101554010Y-80576589D01*
X101442068Y-80846842D01*
X101385000Y-81133740D01*
X101385000Y-81426260D01*
X101442068Y-81713158D01*
X101554010Y-81983411D01*
X101716525Y-82226632D01*
X101923368Y-82433475D01*
X102097760Y-82550000D01*
X101923368Y-82666525D01*
X101716525Y-82873368D01*
X101554010Y-83116589D01*
X101442068Y-83386842D01*
X101385000Y-83673740D01*
X101385000Y-83966260D01*
X101442068Y-84253158D01*
X101554010Y-84523411D01*
X101716525Y-84766632D01*
X101923368Y-84973475D01*
X102097760Y-85090000D01*
X101923368Y-85206525D01*
X101716525Y-85413368D01*
X101554010Y-85656589D01*
X101442068Y-85926842D01*
X101385000Y-86213740D01*
X101385000Y-86506260D01*
X101399461Y-86578960D01*
X97164951Y-90813471D01*
X97131183Y-90841184D01*
X97103470Y-90874952D01*
X97103467Y-90874955D01*
X97020589Y-90975942D01*
X96938411Y-91129688D01*
X96887804Y-91296511D01*
X96870718Y-91470001D01*
X93370000Y-91470001D01*
X93370000Y-72288061D01*
X124695000Y-72288061D01*
X124695000Y-72491939D01*
X124734774Y-72691898D01*
X124812795Y-72880256D01*
X124845000Y-72928455D01*
X124845001Y-74886521D01*
X124840719Y-74930000D01*
X124857805Y-75103490D01*
X124908412Y-75270313D01*
X124990590Y-75424059D01*
X125073468Y-75525046D01*
X125073471Y-75525049D01*
X125101184Y-75558817D01*
X125134951Y-75586529D01*
X125993465Y-76445044D01*
X126004774Y-76501898D01*
X126082795Y-76690256D01*
X126196063Y-76859774D01*
X126340226Y-77003937D01*
X126509744Y-77117205D01*
X126698102Y-77195226D01*
X126898061Y-77235000D01*
X127101939Y-77235000D01*
X127301898Y-77195226D01*
X127490256Y-77117205D01*
X127659774Y-77003937D01*
X127803937Y-76859774D01*
X127917205Y-76690256D01*
X127995226Y-76501898D01*
X128035000Y-76301939D01*
X128035000Y-76098061D01*
X127995226Y-75898102D01*
X127917205Y-75709744D01*
X127803937Y-75540226D01*
X127659774Y-75396063D01*
X127490256Y-75282795D01*
X127301898Y-75204774D01*
X127245044Y-75193465D01*
X126835319Y-74783740D01*
X144565000Y-74783740D01*
X144565000Y-75076260D01*
X144622068Y-75363158D01*
X144734010Y-75633411D01*
X144896525Y-75876632D01*
X145103368Y-76083475D01*
X145285534Y-76205195D01*
X145168645Y-76274822D01*
X144952412Y-76469731D01*
X144778359Y-76703080D01*
X144653175Y-76965901D01*
X144608524Y-77113110D01*
X144729845Y-77343000D01*
X145923000Y-77343000D01*
X145923000Y-77323000D01*
X146177000Y-77323000D01*
X146177000Y-77343000D01*
X147370155Y-77343000D01*
X147491476Y-77113110D01*
X147446825Y-76965901D01*
X147321641Y-76703080D01*
X147147588Y-76469731D01*
X146931355Y-76274822D01*
X146814466Y-76205195D01*
X146996632Y-76083475D01*
X147203475Y-75876632D01*
X147365990Y-75633411D01*
X147477932Y-75363158D01*
X147535000Y-75076260D01*
X147535000Y-74783740D01*
X147477932Y-74496842D01*
X147365990Y-74226589D01*
X147203475Y-73983368D01*
X146996632Y-73776525D01*
X146753411Y-73614010D01*
X146483158Y-73502068D01*
X146196260Y-73445000D01*
X145903740Y-73445000D01*
X145616842Y-73502068D01*
X145346589Y-73614010D01*
X145103368Y-73776525D01*
X144896525Y-73983368D01*
X144734010Y-74226589D01*
X144622068Y-74496842D01*
X144565000Y-74783740D01*
X126835319Y-74783740D01*
X126615000Y-74563422D01*
X126615000Y-72928454D01*
X126647205Y-72880256D01*
X126725226Y-72691898D01*
X126765000Y-72491939D01*
X126765000Y-72288061D01*
X126725226Y-72088102D01*
X126647205Y-71899744D01*
X126533937Y-71730226D01*
X126389774Y-71586063D01*
X126220256Y-71472795D01*
X126031898Y-71394774D01*
X125831939Y-71355000D01*
X125628061Y-71355000D01*
X125428102Y-71394774D01*
X125239744Y-71472795D01*
X125070226Y-71586063D01*
X124926063Y-71730226D01*
X124812795Y-71899744D01*
X124734774Y-72088102D01*
X124695000Y-72288061D01*
X93370000Y-72288061D01*
X93370000Y-67179721D01*
X118615000Y-67179721D01*
X118615000Y-67600279D01*
X118697047Y-68012756D01*
X118857988Y-68401302D01*
X119091637Y-68750983D01*
X119389017Y-69048363D01*
X119738698Y-69282012D01*
X120127244Y-69442953D01*
X120539721Y-69525000D01*
X120960279Y-69525000D01*
X121372756Y-69442953D01*
X121761302Y-69282012D01*
X122110983Y-69048363D01*
X122408363Y-68750983D01*
X122642012Y-68401302D01*
X122802953Y-68012756D01*
X122885000Y-67600279D01*
X122885000Y-67179721D01*
X122802953Y-66767244D01*
X122642012Y-66378698D01*
X122408363Y-66029017D01*
X122110983Y-65731637D01*
X121761302Y-65497988D01*
X121372756Y-65337047D01*
X120960279Y-65255000D01*
X120539721Y-65255000D01*
X120127244Y-65337047D01*
X119738698Y-65497988D01*
X119389017Y-65731637D01*
X119091637Y-66029017D01*
X118857988Y-66378698D01*
X118697047Y-66767244D01*
X118615000Y-67179721D01*
X93370000Y-67179721D01*
X93370000Y-55912279D01*
X93396197Y-55645098D01*
X94135000Y-55645098D01*
X94135000Y-56114902D01*
X94226654Y-56575679D01*
X94406440Y-57009721D01*
X94667450Y-57400349D01*
X94999651Y-57732550D01*
X95390279Y-57993560D01*
X95824321Y-58173346D01*
X96285098Y-58265000D01*
X96754902Y-58265000D01*
X97215679Y-58173346D01*
X97649721Y-57993560D01*
X98040349Y-57732550D01*
X98372550Y-57400349D01*
X98633560Y-57009721D01*
X98636037Y-57003740D01*
X117895000Y-57003740D01*
X117895000Y-57296260D01*
X117952068Y-57583158D01*
X118064010Y-57853411D01*
X118226525Y-58096632D01*
X118433368Y-58303475D01*
X118676589Y-58465990D01*
X118946842Y-58577932D01*
X119233740Y-58635000D01*
X119526260Y-58635000D01*
X119813158Y-58577932D01*
X120083411Y-58465990D01*
X120326632Y-58303475D01*
X120533475Y-58096632D01*
X120650000Y-57922240D01*
X120766525Y-58096632D01*
X120973368Y-58303475D01*
X121216589Y-58465990D01*
X121486842Y-58577932D01*
X121773740Y-58635000D01*
X122066260Y-58635000D01*
X122353158Y-58577932D01*
X122623411Y-58465990D01*
X122866632Y-58303475D01*
X123073475Y-58096632D01*
X123190000Y-57922240D01*
X123306525Y-58096632D01*
X123513368Y-58303475D01*
X123756589Y-58465990D01*
X124026842Y-58577932D01*
X124313740Y-58635000D01*
X124606260Y-58635000D01*
X124796918Y-58597075D01*
X136577658Y-70377816D01*
X136602236Y-70407764D01*
X136632184Y-70432342D01*
X136632187Y-70432345D01*
X136661559Y-70456450D01*
X136721767Y-70505862D01*
X136858140Y-70578754D01*
X136971672Y-70613194D01*
X137006112Y-70623641D01*
X137020490Y-70625057D01*
X137121439Y-70635000D01*
X137121446Y-70635000D01*
X137159999Y-70638797D01*
X137198552Y-70635000D01*
X146011447Y-70635000D01*
X146050000Y-70638797D01*
X146088553Y-70635000D01*
X146088561Y-70635000D01*
X146203887Y-70623641D01*
X146351860Y-70578754D01*
X146488233Y-70505862D01*
X146607764Y-70407764D01*
X146632347Y-70377810D01*
X148665158Y-68345000D01*
X148691939Y-68345000D01*
X148891898Y-68305226D01*
X149080256Y-68227205D01*
X149249774Y-68113937D01*
X149393937Y-67969774D01*
X149507205Y-67800256D01*
X149585226Y-67611898D01*
X149625000Y-67411939D01*
X149625000Y-67208061D01*
X149585226Y-67008102D01*
X149507205Y-66819744D01*
X149393937Y-66650226D01*
X149249774Y-66506063D01*
X149080256Y-66392795D01*
X148891898Y-66314774D01*
X148691939Y-66275000D01*
X148488061Y-66275000D01*
X148288102Y-66314774D01*
X148099744Y-66392795D01*
X147930226Y-66506063D01*
X147786063Y-66650226D01*
X147672795Y-66819744D01*
X147594774Y-67008102D01*
X147555000Y-67208061D01*
X147555000Y-67234842D01*
X147485000Y-67304842D01*
X147485000Y-67179721D01*
X147402953Y-66767244D01*
X147242012Y-66378698D01*
X147008363Y-66029017D01*
X146710983Y-65731637D01*
X146361302Y-65497988D01*
X145972756Y-65337047D01*
X145807900Y-65304255D01*
X148825000Y-62287156D01*
X148825000Y-62331939D01*
X148864774Y-62531898D01*
X148942795Y-62720256D01*
X149056063Y-62889774D01*
X149200226Y-63033937D01*
X149369744Y-63147205D01*
X149558102Y-63225226D01*
X149758061Y-63265000D01*
X149961939Y-63265000D01*
X150161898Y-63225226D01*
X150350256Y-63147205D01*
X150519774Y-63033937D01*
X150663937Y-62889774D01*
X150777205Y-62720256D01*
X150855226Y-62531898D01*
X150895000Y-62331939D01*
X150895000Y-62305157D01*
X151517687Y-61682471D01*
X151518388Y-61683520D01*
X151676480Y-61841612D01*
X151862376Y-61965824D01*
X152068933Y-62051383D01*
X152288212Y-62095000D01*
X152511788Y-62095000D01*
X152731067Y-62051383D01*
X152842774Y-62005112D01*
X152925820Y-62049502D01*
X153045518Y-62085812D01*
X153170000Y-62098072D01*
X154170000Y-62098072D01*
X154294482Y-62085812D01*
X154414180Y-62049502D01*
X154524494Y-61990537D01*
X154621185Y-61911185D01*
X154700537Y-61814494D01*
X154759502Y-61704180D01*
X154795812Y-61584482D01*
X154808072Y-61460000D01*
X154808072Y-60460000D01*
X154795812Y-60335518D01*
X154759502Y-60215820D01*
X154711930Y-60126820D01*
X154747446Y-60046864D01*
X154764119Y-59991874D01*
X154637954Y-59817000D01*
X153797000Y-59817000D01*
X153797000Y-59821928D01*
X153543000Y-59821928D01*
X153543000Y-59817000D01*
X153531974Y-59817000D01*
X153535000Y-59801788D01*
X153535000Y-59578212D01*
X153531974Y-59563000D01*
X153543000Y-59563000D01*
X153543000Y-58547000D01*
X153797000Y-58547000D01*
X153797000Y-59563000D01*
X154637954Y-59563000D01*
X154764119Y-59388126D01*
X154747446Y-59333136D01*
X154657123Y-59129794D01*
X154604361Y-59055000D01*
X154657123Y-58980206D01*
X154747446Y-58776864D01*
X154764119Y-58721874D01*
X154637954Y-58547000D01*
X153797000Y-58547000D01*
X153543000Y-58547000D01*
X153531974Y-58547000D01*
X153535000Y-58531788D01*
X153535000Y-58308212D01*
X153531974Y-58293000D01*
X153543000Y-58293000D01*
X153543000Y-58281974D01*
X153558212Y-58285000D01*
X153781788Y-58285000D01*
X153797000Y-58281974D01*
X153797000Y-58293000D01*
X154637954Y-58293000D01*
X154764119Y-58118126D01*
X154747446Y-58063136D01*
X154657123Y-57859794D01*
X154607647Y-57789658D01*
X154675824Y-57687624D01*
X154761383Y-57481067D01*
X154805000Y-57261788D01*
X154805000Y-57038212D01*
X154761383Y-56818933D01*
X154675824Y-56612376D01*
X154607647Y-56510342D01*
X154657123Y-56440206D01*
X154747446Y-56236864D01*
X154764119Y-56181874D01*
X154637954Y-56007000D01*
X153797000Y-56007000D01*
X153797000Y-56018026D01*
X153781788Y-56015000D01*
X153558212Y-56015000D01*
X153543000Y-56018026D01*
X153543000Y-56007000D01*
X153531974Y-56007000D01*
X153535000Y-55991788D01*
X153535000Y-55768212D01*
X153531974Y-55753000D01*
X153543000Y-55753000D01*
X153543000Y-54910871D01*
X153797000Y-54910871D01*
X153797000Y-55753000D01*
X154637954Y-55753000D01*
X154715801Y-55645098D01*
X161445000Y-55645098D01*
X161445000Y-56114902D01*
X161536654Y-56575679D01*
X161716440Y-57009721D01*
X161977450Y-57400349D01*
X162309651Y-57732550D01*
X162700279Y-57993560D01*
X163134321Y-58173346D01*
X163595098Y-58265000D01*
X164064902Y-58265000D01*
X164525679Y-58173346D01*
X164959721Y-57993560D01*
X165350349Y-57732550D01*
X165682550Y-57400349D01*
X165943560Y-57009721D01*
X166123346Y-56575679D01*
X166215000Y-56114902D01*
X166215000Y-55645098D01*
X166123346Y-55184321D01*
X165943560Y-54750279D01*
X165682550Y-54359651D01*
X165350349Y-54027450D01*
X164959721Y-53766440D01*
X164525679Y-53586654D01*
X164064902Y-53495000D01*
X163595098Y-53495000D01*
X163134321Y-53586654D01*
X162700279Y-53766440D01*
X162309651Y-54027450D01*
X161977450Y-54359651D01*
X161716440Y-54750279D01*
X161536654Y-55184321D01*
X161445000Y-55645098D01*
X154715801Y-55645098D01*
X154764119Y-55578126D01*
X154747446Y-55523136D01*
X154657123Y-55319794D01*
X154528865Y-55137980D01*
X154367601Y-54984682D01*
X154179529Y-54865790D01*
X153971876Y-54785874D01*
X153797000Y-54910871D01*
X153543000Y-54910871D01*
X153368124Y-54785874D01*
X153160471Y-54865790D01*
X153039512Y-54942256D01*
X152937624Y-54874176D01*
X152731067Y-54788617D01*
X152511788Y-54745000D01*
X152288212Y-54745000D01*
X152068933Y-54788617D01*
X151862376Y-54874176D01*
X151676480Y-54998388D01*
X151518388Y-55156480D01*
X151394176Y-55342376D01*
X151308617Y-55548933D01*
X151265000Y-55768212D01*
X151265000Y-55991788D01*
X151308617Y-56211067D01*
X151394176Y-56417624D01*
X151459241Y-56515000D01*
X151394176Y-56612376D01*
X151308617Y-56818933D01*
X151265000Y-57038212D01*
X151265000Y-57261788D01*
X151308617Y-57481067D01*
X151382779Y-57660110D01*
X151292078Y-57687624D01*
X151280138Y-57691246D01*
X151143765Y-57764138D01*
X151083557Y-57813550D01*
X151054185Y-57837655D01*
X151054182Y-57837658D01*
X151024234Y-57862236D01*
X150999656Y-57892184D01*
X142886840Y-66005001D01*
X140735000Y-66005001D01*
X140735000Y-65938061D01*
X140695226Y-65738102D01*
X140617205Y-65549744D01*
X140503937Y-65380226D01*
X140359774Y-65236063D01*
X140190256Y-65122795D01*
X140001898Y-65044774D01*
X139945044Y-65033465D01*
X133120843Y-58209264D01*
X133233475Y-58096632D01*
X133350000Y-57922240D01*
X133466525Y-58096632D01*
X133673368Y-58303475D01*
X133916589Y-58465990D01*
X134186842Y-58577932D01*
X134473740Y-58635000D01*
X134766260Y-58635000D01*
X135053158Y-58577932D01*
X135323411Y-58465990D01*
X135566632Y-58303475D01*
X135773475Y-58096632D01*
X135890000Y-57922240D01*
X136006525Y-58096632D01*
X136213368Y-58303475D01*
X136456589Y-58465990D01*
X136726842Y-58577932D01*
X137013740Y-58635000D01*
X137306260Y-58635000D01*
X137593158Y-58577932D01*
X137863411Y-58465990D01*
X138106632Y-58303475D01*
X138313475Y-58096632D01*
X138430000Y-57922240D01*
X138546525Y-58096632D01*
X138753368Y-58303475D01*
X138996589Y-58465990D01*
X139266842Y-58577932D01*
X139553740Y-58635000D01*
X139846260Y-58635000D01*
X140133158Y-58577932D01*
X140403411Y-58465990D01*
X140646632Y-58303475D01*
X140778487Y-58171620D01*
X140800498Y-58244180D01*
X140859463Y-58354494D01*
X140938815Y-58451185D01*
X141035506Y-58530537D01*
X141145820Y-58589502D01*
X141265518Y-58625812D01*
X141390000Y-58638072D01*
X143090000Y-58638072D01*
X143214482Y-58625812D01*
X143334180Y-58589502D01*
X143444494Y-58530537D01*
X143541185Y-58451185D01*
X143620537Y-58354494D01*
X143679502Y-58244180D01*
X143715812Y-58124482D01*
X143728072Y-58000000D01*
X143728072Y-56300000D01*
X143715812Y-56175518D01*
X143679502Y-56055820D01*
X143620537Y-55945506D01*
X143541185Y-55848815D01*
X143444494Y-55769463D01*
X143334180Y-55710498D01*
X143261620Y-55688487D01*
X143393475Y-55556632D01*
X143555990Y-55313411D01*
X143667932Y-55043158D01*
X143725000Y-54756260D01*
X143725000Y-54463740D01*
X143667932Y-54176842D01*
X143555990Y-53906589D01*
X143393475Y-53663368D01*
X143186632Y-53456525D01*
X142943411Y-53294010D01*
X142673158Y-53182068D01*
X142386260Y-53125000D01*
X142093740Y-53125000D01*
X141806842Y-53182068D01*
X141536589Y-53294010D01*
X141293368Y-53456525D01*
X141086525Y-53663368D01*
X140964805Y-53845534D01*
X140895178Y-53728645D01*
X140700269Y-53512412D01*
X140466920Y-53338359D01*
X140204099Y-53213175D01*
X140056890Y-53168524D01*
X139827000Y-53289845D01*
X139827000Y-54483000D01*
X139847000Y-54483000D01*
X139847000Y-54737000D01*
X139827000Y-54737000D01*
X139827000Y-54757000D01*
X139573000Y-54757000D01*
X139573000Y-54737000D01*
X137287000Y-54737000D01*
X137287000Y-54757000D01*
X137033000Y-54757000D01*
X137033000Y-54737000D01*
X134747000Y-54737000D01*
X134747000Y-54757000D01*
X134493000Y-54757000D01*
X134493000Y-54737000D01*
X132207000Y-54737000D01*
X132207000Y-54757000D01*
X131953000Y-54757000D01*
X131953000Y-54737000D01*
X129667000Y-54737000D01*
X129667000Y-54757000D01*
X129413000Y-54757000D01*
X129413000Y-54737000D01*
X127127000Y-54737000D01*
X127127000Y-54757000D01*
X126873000Y-54757000D01*
X126873000Y-54737000D01*
X124587000Y-54737000D01*
X124587000Y-54757000D01*
X124333000Y-54757000D01*
X124333000Y-54737000D01*
X122047000Y-54737000D01*
X122047000Y-54757000D01*
X121793000Y-54757000D01*
X121793000Y-54737000D01*
X119507000Y-54737000D01*
X119507000Y-54757000D01*
X119253000Y-54757000D01*
X119253000Y-54737000D01*
X118059186Y-54737000D01*
X117938519Y-54966891D01*
X118035843Y-55241252D01*
X118184822Y-55491355D01*
X118379731Y-55707588D01*
X118609406Y-55878900D01*
X118433368Y-55996525D01*
X118226525Y-56203368D01*
X118064010Y-56446589D01*
X117952068Y-56716842D01*
X117895000Y-57003740D01*
X98636037Y-57003740D01*
X98813346Y-56575679D01*
X98905000Y-56114902D01*
X98905000Y-55645098D01*
X98813346Y-55184321D01*
X98633560Y-54750279D01*
X98372550Y-54359651D01*
X98266008Y-54253109D01*
X117938519Y-54253109D01*
X118059186Y-54483000D01*
X119253000Y-54483000D01*
X119253000Y-53289845D01*
X119507000Y-53289845D01*
X119507000Y-54483000D01*
X121793000Y-54483000D01*
X121793000Y-53289845D01*
X122047000Y-53289845D01*
X122047000Y-54483000D01*
X124333000Y-54483000D01*
X124333000Y-53289845D01*
X124587000Y-53289845D01*
X124587000Y-54483000D01*
X126873000Y-54483000D01*
X126873000Y-53289845D01*
X127127000Y-53289845D01*
X127127000Y-54483000D01*
X129413000Y-54483000D01*
X129413000Y-53289845D01*
X129667000Y-53289845D01*
X129667000Y-54483000D01*
X131953000Y-54483000D01*
X131953000Y-53289845D01*
X132207000Y-53289845D01*
X132207000Y-54483000D01*
X134493000Y-54483000D01*
X134493000Y-53289845D01*
X134747000Y-53289845D01*
X134747000Y-54483000D01*
X137033000Y-54483000D01*
X137033000Y-53289845D01*
X137287000Y-53289845D01*
X137287000Y-54483000D01*
X139573000Y-54483000D01*
X139573000Y-53289845D01*
X139343110Y-53168524D01*
X139195901Y-53213175D01*
X138933080Y-53338359D01*
X138699731Y-53512412D01*
X138504822Y-53728645D01*
X138430000Y-53854255D01*
X138355178Y-53728645D01*
X138160269Y-53512412D01*
X137926920Y-53338359D01*
X137664099Y-53213175D01*
X137516890Y-53168524D01*
X137287000Y-53289845D01*
X137033000Y-53289845D01*
X136803110Y-53168524D01*
X136655901Y-53213175D01*
X136393080Y-53338359D01*
X136159731Y-53512412D01*
X135964822Y-53728645D01*
X135890000Y-53854255D01*
X135815178Y-53728645D01*
X135620269Y-53512412D01*
X135386920Y-53338359D01*
X135124099Y-53213175D01*
X134976890Y-53168524D01*
X134747000Y-53289845D01*
X134493000Y-53289845D01*
X134263110Y-53168524D01*
X134115901Y-53213175D01*
X133853080Y-53338359D01*
X133619731Y-53512412D01*
X133424822Y-53728645D01*
X133350000Y-53854255D01*
X133275178Y-53728645D01*
X133080269Y-53512412D01*
X132846920Y-53338359D01*
X132584099Y-53213175D01*
X132436890Y-53168524D01*
X132207000Y-53289845D01*
X131953000Y-53289845D01*
X131723110Y-53168524D01*
X131575901Y-53213175D01*
X131313080Y-53338359D01*
X131079731Y-53512412D01*
X130884822Y-53728645D01*
X130810000Y-53854255D01*
X130735178Y-53728645D01*
X130540269Y-53512412D01*
X130306920Y-53338359D01*
X130044099Y-53213175D01*
X129896890Y-53168524D01*
X129667000Y-53289845D01*
X129413000Y-53289845D01*
X129183110Y-53168524D01*
X129035901Y-53213175D01*
X128773080Y-53338359D01*
X128539731Y-53512412D01*
X128344822Y-53728645D01*
X128270000Y-53854255D01*
X128195178Y-53728645D01*
X128000269Y-53512412D01*
X127766920Y-53338359D01*
X127504099Y-53213175D01*
X127356890Y-53168524D01*
X127127000Y-53289845D01*
X126873000Y-53289845D01*
X126643110Y-53168524D01*
X126495901Y-53213175D01*
X126233080Y-53338359D01*
X125999731Y-53512412D01*
X125804822Y-53728645D01*
X125730000Y-53854255D01*
X125655178Y-53728645D01*
X125460269Y-53512412D01*
X125226920Y-53338359D01*
X124964099Y-53213175D01*
X124816890Y-53168524D01*
X124587000Y-53289845D01*
X124333000Y-53289845D01*
X124103110Y-53168524D01*
X123955901Y-53213175D01*
X123693080Y-53338359D01*
X123459731Y-53512412D01*
X123264822Y-53728645D01*
X123190000Y-53854255D01*
X123115178Y-53728645D01*
X122920269Y-53512412D01*
X122686920Y-53338359D01*
X122424099Y-53213175D01*
X122276890Y-53168524D01*
X122047000Y-53289845D01*
X121793000Y-53289845D01*
X121563110Y-53168524D01*
X121415901Y-53213175D01*
X121153080Y-53338359D01*
X120919731Y-53512412D01*
X120724822Y-53728645D01*
X120650000Y-53854255D01*
X120575178Y-53728645D01*
X120380269Y-53512412D01*
X120146920Y-53338359D01*
X119884099Y-53213175D01*
X119736890Y-53168524D01*
X119507000Y-53289845D01*
X119253000Y-53289845D01*
X119023110Y-53168524D01*
X118875901Y-53213175D01*
X118613080Y-53338359D01*
X118379731Y-53512412D01*
X118184822Y-53728645D01*
X118035843Y-53978748D01*
X117938519Y-54253109D01*
X98266008Y-54253109D01*
X98040349Y-54027450D01*
X97649721Y-53766440D01*
X97215679Y-53586654D01*
X96754902Y-53495000D01*
X96285098Y-53495000D01*
X95824321Y-53586654D01*
X95390279Y-53766440D01*
X94999651Y-54027450D01*
X94667450Y-54359651D01*
X94406440Y-54750279D01*
X94226654Y-55184321D01*
X94135000Y-55645098D01*
X93396197Y-55645098D01*
X93433096Y-55268778D01*
X93610606Y-54680836D01*
X93898937Y-54138564D01*
X94287094Y-53662636D01*
X94760314Y-53271155D01*
X95300552Y-52979049D01*
X95887244Y-52797437D01*
X96528879Y-52730000D01*
X163797721Y-52730000D01*
X164441222Y-52793096D01*
%TD*%
M02*
