%TF.GenerationSoftware,KiCad,Pcbnew,5.1.6*%
%TF.CreationDate,2020-08-26T17:45:01+02:00*%
%TF.ProjectId,PAF_controller,5041465f-636f-46e7-9472-6f6c6c65722e,rev?*%
%TF.SameCoordinates,Original*%
%TF.FileFunction,Legend,Bot*%
%TF.FilePolarity,Positive*%
%FSLAX46Y46*%
G04 Gerber Fmt 4.6, Leading zero omitted, Abs format (unit mm)*
G04 Created by KiCad (PCBNEW 5.1.6) date 2020-08-26 17:45:01*
%MOMM*%
%LPD*%
G01*
G04 APERTURE LIST*
%ADD10C,0.300000*%
%ADD11C,0.120000*%
G04 APERTURE END LIST*
D10*
X149897142Y-134028571D02*
X149897142Y-132528571D01*
X149325714Y-132528571D01*
X149182857Y-132600000D01*
X149111428Y-132671428D01*
X149040000Y-132814285D01*
X149040000Y-133028571D01*
X149111428Y-133171428D01*
X149182857Y-133242857D01*
X149325714Y-133314285D01*
X149897142Y-133314285D01*
X148468571Y-133600000D02*
X147754285Y-133600000D01*
X148611428Y-134028571D02*
X148111428Y-132528571D01*
X147611428Y-134028571D01*
X146611428Y-133242857D02*
X147111428Y-133242857D01*
X147111428Y-134028571D02*
X147111428Y-132528571D01*
X146397142Y-132528571D01*
X143825714Y-133885714D02*
X143897142Y-133957142D01*
X144111428Y-134028571D01*
X144254285Y-134028571D01*
X144468571Y-133957142D01*
X144611428Y-133814285D01*
X144682857Y-133671428D01*
X144754285Y-133385714D01*
X144754285Y-133171428D01*
X144682857Y-132885714D01*
X144611428Y-132742857D01*
X144468571Y-132600000D01*
X144254285Y-132528571D01*
X144111428Y-132528571D01*
X143897142Y-132600000D01*
X143825714Y-132671428D01*
X142968571Y-134028571D02*
X143111428Y-133957142D01*
X143182857Y-133885714D01*
X143254285Y-133742857D01*
X143254285Y-133314285D01*
X143182857Y-133171428D01*
X143111428Y-133100000D01*
X142968571Y-133028571D01*
X142754285Y-133028571D01*
X142611428Y-133100000D01*
X142540000Y-133171428D01*
X142468571Y-133314285D01*
X142468571Y-133742857D01*
X142540000Y-133885714D01*
X142611428Y-133957142D01*
X142754285Y-134028571D01*
X142968571Y-134028571D01*
X141825714Y-133028571D02*
X141825714Y-134028571D01*
X141825714Y-133171428D02*
X141754285Y-133100000D01*
X141611428Y-133028571D01*
X141397142Y-133028571D01*
X141254285Y-133100000D01*
X141182857Y-133242857D01*
X141182857Y-134028571D01*
X140682857Y-133028571D02*
X140111428Y-133028571D01*
X140468571Y-132528571D02*
X140468571Y-133814285D01*
X140397142Y-133957142D01*
X140254285Y-134028571D01*
X140111428Y-134028571D01*
X139611428Y-134028571D02*
X139611428Y-133028571D01*
X139611428Y-133314285D02*
X139540000Y-133171428D01*
X139468571Y-133100000D01*
X139325714Y-133028571D01*
X139182857Y-133028571D01*
X138468571Y-134028571D02*
X138611428Y-133957142D01*
X138682857Y-133885714D01*
X138754285Y-133742857D01*
X138754285Y-133314285D01*
X138682857Y-133171428D01*
X138611428Y-133100000D01*
X138468571Y-133028571D01*
X138254285Y-133028571D01*
X138111428Y-133100000D01*
X138040000Y-133171428D01*
X137968571Y-133314285D01*
X137968571Y-133742857D01*
X138040000Y-133885714D01*
X138111428Y-133957142D01*
X138254285Y-134028571D01*
X138468571Y-134028571D01*
X137111428Y-134028571D02*
X137254285Y-133957142D01*
X137325714Y-133814285D01*
X137325714Y-132528571D01*
X136325714Y-134028571D02*
X136468571Y-133957142D01*
X136540000Y-133814285D01*
X136540000Y-132528571D01*
X135182857Y-133957142D02*
X135325714Y-134028571D01*
X135611428Y-134028571D01*
X135754285Y-133957142D01*
X135825714Y-133814285D01*
X135825714Y-133242857D01*
X135754285Y-133100000D01*
X135611428Y-133028571D01*
X135325714Y-133028571D01*
X135182857Y-133100000D01*
X135111428Y-133242857D01*
X135111428Y-133385714D01*
X135825714Y-133528571D01*
X134468571Y-134028571D02*
X134468571Y-133028571D01*
X134468571Y-133314285D02*
X134397142Y-133171428D01*
X134325714Y-133100000D01*
X134182857Y-133028571D01*
X134040000Y-133028571D01*
X132540000Y-133028571D02*
X132182857Y-134028571D01*
X131825714Y-133028571D01*
X130468571Y-134028571D02*
X131325714Y-134028571D01*
X130897142Y-134028571D02*
X130897142Y-132528571D01*
X131040000Y-132742857D01*
X131182857Y-132885714D01*
X131325714Y-132957142D01*
X129825714Y-133885714D02*
X129754285Y-133957142D01*
X129825714Y-134028571D01*
X129897142Y-133957142D01*
X129825714Y-133885714D01*
X129825714Y-134028571D01*
X128825714Y-132528571D02*
X128682857Y-132528571D01*
X128540000Y-132600000D01*
X128468571Y-132671428D01*
X128397142Y-132814285D01*
X128325714Y-133100000D01*
X128325714Y-133457142D01*
X128397142Y-133742857D01*
X128468571Y-133885714D01*
X128540000Y-133957142D01*
X128682857Y-134028571D01*
X128825714Y-134028571D01*
X128968571Y-133957142D01*
X129040000Y-133885714D01*
X129111428Y-133742857D01*
X129182857Y-133457142D01*
X129182857Y-133100000D01*
X129111428Y-132814285D01*
X129040000Y-132671428D01*
X128968571Y-132600000D01*
X128825714Y-132528571D01*
X126540000Y-133457142D02*
X125397142Y-133457142D01*
X123611428Y-133600000D02*
X122897142Y-133600000D01*
X123754285Y-134028571D02*
X123254285Y-132528571D01*
X122754285Y-134028571D01*
X122040000Y-134028571D02*
X122182857Y-133957142D01*
X122254285Y-133814285D01*
X122254285Y-132528571D01*
X120897142Y-133957142D02*
X121040000Y-134028571D01*
X121325714Y-134028571D01*
X121468571Y-133957142D01*
X121540000Y-133814285D01*
X121540000Y-133242857D01*
X121468571Y-133100000D01*
X121325714Y-133028571D01*
X121040000Y-133028571D01*
X120897142Y-133100000D01*
X120825714Y-133242857D01*
X120825714Y-133385714D01*
X121540000Y-133528571D01*
X120325714Y-134028571D02*
X119540000Y-133028571D01*
X120325714Y-133028571D02*
X119540000Y-134028571D01*
X117825714Y-134028571D02*
X117825714Y-132528571D01*
X117825714Y-133242857D02*
X116968571Y-133242857D01*
X116968571Y-134028571D02*
X116968571Y-132528571D01*
X116040000Y-134028571D02*
X116182857Y-133957142D01*
X116254285Y-133885714D01*
X116325714Y-133742857D01*
X116325714Y-133314285D01*
X116254285Y-133171428D01*
X116182857Y-133100000D01*
X116040000Y-133028571D01*
X115825714Y-133028571D01*
X115682857Y-133100000D01*
X115611428Y-133171428D01*
X115540000Y-133314285D01*
X115540000Y-133742857D01*
X115611428Y-133885714D01*
X115682857Y-133957142D01*
X115825714Y-134028571D01*
X116040000Y-134028571D01*
X115111428Y-133028571D02*
X114540000Y-133028571D01*
X114897142Y-134028571D02*
X114897142Y-132742857D01*
X114825714Y-132600000D01*
X114682857Y-132528571D01*
X114540000Y-132528571D01*
X114254285Y-133028571D02*
X113682857Y-133028571D01*
X114040000Y-134028571D02*
X114040000Y-132742857D01*
X113968571Y-132600000D01*
X113825714Y-132528571D01*
X113682857Y-132528571D01*
X113182857Y-134028571D02*
X113182857Y-133028571D01*
X113182857Y-133171428D02*
X113111428Y-133100000D01*
X112968571Y-133028571D01*
X112754285Y-133028571D01*
X112611428Y-133100000D01*
X112540000Y-133242857D01*
X112540000Y-134028571D01*
X112540000Y-133242857D02*
X112468571Y-133100000D01*
X112325714Y-133028571D01*
X112111428Y-133028571D01*
X111968571Y-133100000D01*
X111897142Y-133242857D01*
X111897142Y-134028571D01*
X110540000Y-134028571D02*
X110540000Y-133242857D01*
X110611428Y-133100000D01*
X110754285Y-133028571D01*
X111040000Y-133028571D01*
X111182857Y-133100000D01*
X110540000Y-133957142D02*
X110682857Y-134028571D01*
X111040000Y-134028571D01*
X111182857Y-133957142D01*
X111254285Y-133814285D01*
X111254285Y-133671428D01*
X111182857Y-133528571D01*
X111040000Y-133457142D01*
X110682857Y-133457142D01*
X110540000Y-133385714D01*
X109825714Y-133028571D02*
X109825714Y-134028571D01*
X109825714Y-133171428D02*
X109754285Y-133100000D01*
X109611428Y-133028571D01*
X109397142Y-133028571D01*
X109254285Y-133100000D01*
X109182857Y-133242857D01*
X109182857Y-134028571D01*
D11*
%TO.C,J2*%
X143570000Y-53170000D02*
X118050000Y-53170000D01*
X118050000Y-53170000D02*
X118050000Y-50510000D01*
X118050000Y-50510000D02*
X143570000Y-50510000D01*
X143570000Y-50510000D02*
X143570000Y-53170000D01*
X142620000Y-50510000D02*
X142620000Y-44510000D01*
X142620000Y-44510000D02*
X141860000Y-44510000D01*
X141860000Y-44510000D02*
X141860000Y-50510000D01*
X142560000Y-50510000D02*
X142560000Y-44510000D01*
X142440000Y-50510000D02*
X142440000Y-44510000D01*
X142320000Y-50510000D02*
X142320000Y-44510000D01*
X142200000Y-50510000D02*
X142200000Y-44510000D01*
X142080000Y-50510000D02*
X142080000Y-44510000D01*
X141960000Y-50510000D02*
X141960000Y-44510000D01*
X142620000Y-53567071D02*
X142620000Y-53170000D01*
X141860000Y-53567071D02*
X141860000Y-53170000D01*
X142620000Y-56040000D02*
X142620000Y-55652929D01*
X141860000Y-56040000D02*
X141860000Y-55652929D01*
X140970000Y-53170000D02*
X140970000Y-50510000D01*
X140080000Y-50510000D02*
X140080000Y-44510000D01*
X140080000Y-44510000D02*
X139320000Y-44510000D01*
X139320000Y-44510000D02*
X139320000Y-50510000D01*
X140080000Y-53567071D02*
X140080000Y-53170000D01*
X139320000Y-53567071D02*
X139320000Y-53170000D01*
X140080000Y-56107071D02*
X140080000Y-55652929D01*
X139320000Y-56107071D02*
X139320000Y-55652929D01*
X138430000Y-53170000D02*
X138430000Y-50510000D01*
X137540000Y-50510000D02*
X137540000Y-44510000D01*
X137540000Y-44510000D02*
X136780000Y-44510000D01*
X136780000Y-44510000D02*
X136780000Y-50510000D01*
X137540000Y-53567071D02*
X137540000Y-53170000D01*
X136780000Y-53567071D02*
X136780000Y-53170000D01*
X137540000Y-56107071D02*
X137540000Y-55652929D01*
X136780000Y-56107071D02*
X136780000Y-55652929D01*
X135890000Y-53170000D02*
X135890000Y-50510000D01*
X135000000Y-50510000D02*
X135000000Y-44510000D01*
X135000000Y-44510000D02*
X134240000Y-44510000D01*
X134240000Y-44510000D02*
X134240000Y-50510000D01*
X135000000Y-53567071D02*
X135000000Y-53170000D01*
X134240000Y-53567071D02*
X134240000Y-53170000D01*
X135000000Y-56107071D02*
X135000000Y-55652929D01*
X134240000Y-56107071D02*
X134240000Y-55652929D01*
X133350000Y-53170000D02*
X133350000Y-50510000D01*
X132460000Y-50510000D02*
X132460000Y-44510000D01*
X132460000Y-44510000D02*
X131700000Y-44510000D01*
X131700000Y-44510000D02*
X131700000Y-50510000D01*
X132460000Y-53567071D02*
X132460000Y-53170000D01*
X131700000Y-53567071D02*
X131700000Y-53170000D01*
X132460000Y-56107071D02*
X132460000Y-55652929D01*
X131700000Y-56107071D02*
X131700000Y-55652929D01*
X130810000Y-53170000D02*
X130810000Y-50510000D01*
X129920000Y-50510000D02*
X129920000Y-44510000D01*
X129920000Y-44510000D02*
X129160000Y-44510000D01*
X129160000Y-44510000D02*
X129160000Y-50510000D01*
X129920000Y-53567071D02*
X129920000Y-53170000D01*
X129160000Y-53567071D02*
X129160000Y-53170000D01*
X129920000Y-56107071D02*
X129920000Y-55652929D01*
X129160000Y-56107071D02*
X129160000Y-55652929D01*
X128270000Y-53170000D02*
X128270000Y-50510000D01*
X127380000Y-50510000D02*
X127380000Y-44510000D01*
X127380000Y-44510000D02*
X126620000Y-44510000D01*
X126620000Y-44510000D02*
X126620000Y-50510000D01*
X127380000Y-53567071D02*
X127380000Y-53170000D01*
X126620000Y-53567071D02*
X126620000Y-53170000D01*
X127380000Y-56107071D02*
X127380000Y-55652929D01*
X126620000Y-56107071D02*
X126620000Y-55652929D01*
X125730000Y-53170000D02*
X125730000Y-50510000D01*
X124840000Y-50510000D02*
X124840000Y-44510000D01*
X124840000Y-44510000D02*
X124080000Y-44510000D01*
X124080000Y-44510000D02*
X124080000Y-50510000D01*
X124840000Y-53567071D02*
X124840000Y-53170000D01*
X124080000Y-53567071D02*
X124080000Y-53170000D01*
X124840000Y-56107071D02*
X124840000Y-55652929D01*
X124080000Y-56107071D02*
X124080000Y-55652929D01*
X123190000Y-53170000D02*
X123190000Y-50510000D01*
X122300000Y-50510000D02*
X122300000Y-44510000D01*
X122300000Y-44510000D02*
X121540000Y-44510000D01*
X121540000Y-44510000D02*
X121540000Y-50510000D01*
X122300000Y-53567071D02*
X122300000Y-53170000D01*
X121540000Y-53567071D02*
X121540000Y-53170000D01*
X122300000Y-56107071D02*
X122300000Y-55652929D01*
X121540000Y-56107071D02*
X121540000Y-55652929D01*
X120650000Y-53170000D02*
X120650000Y-50510000D01*
X119760000Y-50510000D02*
X119760000Y-44510000D01*
X119760000Y-44510000D02*
X119000000Y-44510000D01*
X119000000Y-44510000D02*
X119000000Y-50510000D01*
X119760000Y-53567071D02*
X119760000Y-53170000D01*
X119000000Y-53567071D02*
X119000000Y-53170000D01*
X119760000Y-56107071D02*
X119760000Y-55652929D01*
X119000000Y-56107071D02*
X119000000Y-55652929D01*
X142240000Y-58420000D02*
X143510000Y-58420000D01*
X143510000Y-58420000D02*
X143510000Y-57150000D01*
%TD*%
M02*
